<?xml version="1.0" encoding="UTF-8"?>
<svg width="90px" height="90px" viewBox="0 0 90 90" version="1.1" xmlns="http://www.w3.org/2000/svg" xmlns:xlink="http://www.w3.org/1999/xlink">
    <!-- Generator: Sketch 51.2 (57519) - http://www.bohemiancoding.com/sketch -->
    <title>默认加载头像</title>
    <desc>Created with Sketch.</desc>
    <defs>
        <polygon id="path-1" points="0 0.652613412 47.9259498 0.652613412 47.9259498 43.125 0 43.125"></polygon>
        <polygon id="path-3" points="0.468059701 0.375 11.6619403 0.375 11.6619403 13.125 0.468059701 13.125"></polygon>
    </defs>
    <g id="Page-1" stroke="none" stroke-width="1" fill="none" fill-rule="evenodd">
        <g id="足记游戏切图" transform="translate(-2710.000000, -948.000000)">
            <g id="默认加载头像" transform="translate(2730.000000, 963.000000)">
                <path d="M25.841194,59.34735 C15.3747761,59.34735 6.81134328,50.7411 6.81134328,40.22235 L6.81134328,15.09735 L44.8710448,15.09735 L44.8710448,40.22235 C44.8710448,50.7411 36.3076119,59.34735 25.841194,59.34735" id="Fill-1" fill="#EEEEEE"></path>
                <g id="Group-5" transform="translate(0.000000, 0.097350)">
                    <mask id="mask-2" fill="white">
                        <use xlink:href="#path-1"></use>
                    </mask>
                    <g id="Clip-4"></g>
                    <path d="M6.43820896,43.125 C6.43820896,43.125 -6.99462687,23.625 4.94567164,9.375 C16.8859701,-4.875 33.1277612,2.625 34.7964179,2.625 C36.2889552,2.625 45.6173134,5.25 47.1098507,3 C47.1098507,3 47.4829851,10.125 45.9904478,13.125 C45.9904478,13.125 51.2143284,24.375 44.4979104,38.625 C44.4979104,38.625 45.2441791,22.875 43.0053731,20.625 C40.3673134,17.973 19.8710448,24.375 11.6620896,17.625 C11.6620896,17.625 6.43820896,21.375 7.18447761,24.375 C7.93074627,27.375 6.43820896,43.125 6.43820896,43.125" id="Fill-3" fill="#D8D8D8" mask="url(#mask-2)"></path>
                </g>
                <path d="M11.6620896,37.59735 C11.6620896,41.11785 9.15686567,43.97235 6.06507463,43.97235 C2.97328358,43.97235 0.468059701,41.11785 0.468059701,37.59735 C0.468059701,34.07685 2.97328358,31.22235 6.06507463,31.22235 C9.15686567,31.22235 11.6620896,34.07685 11.6620896,37.59735" id="Fill-6" fill="#EEEEEE"></path>
                <g id="Group-10" transform="translate(38.059701, 30.097350)">
                    <mask id="mask-4" fill="white">
                        <use xlink:href="#path-3"></use>
                    </mask>
                    <g id="Clip-9"></g>
                    <path d="M11.6620896,6.75 C11.6620896,10.2705 9.15686567,13.125 6.06507463,13.125 C2.97328358,13.125 0.468059701,10.2705 0.468059701,6.75 C0.468059701,3.2295 2.97328358,0.375 6.06507463,0.375 C9.15686567,0.375 11.6620896,3.2295 11.6620896,6.75" id="Fill-8" fill="#EEEEEE" mask="url(#mask-4)"></path>
                </g>
                <path d="M25.841194,51.47235 C21.3262687,51.47235 17.6322388,47.75985 17.6322388,43.22235 L17.6322388,42.7491 C17.6322388,40.12185 19.7710448,40.97235 22.3852239,40.97235 L29.2971642,40.97235 C31.9113433,40.97235 34.0501493,40.12185 34.0501493,42.7491 L34.0501493,43.22235 C34.0501493,47.75985 30.3561194,51.47235 25.841194,51.47235" id="Fill-11" fill="#DDDDDD"></path>
                <path d="M25.841194,43.97235 C21.3262687,43.97235 17.6322388,42.7491 17.6322388,42.7491 C17.6322388,40.12185 19.7710448,40.97235 22.3852239,40.97235 L29.2971642,40.97235 C31.9113433,40.97235 34.0501493,40.12185 34.0501493,42.7491 C34.0501493,42.7491 30.3561194,43.97235 25.841194,43.97235" id="Fill-13" fill="#FDFFFF"></path>
                <path d="M19.3434328,27.47235 L15.1747761,27.47235 C14.8844776,27.47235 14.6471642,27.23385 14.6471642,26.9421 L14.6471642,26.5026 C14.6471642,26.21085 14.8844776,25.97235 15.1747761,25.97235 L19.3434328,25.97235 C19.6337313,25.97235 19.8710448,26.21085 19.8710448,26.5026 L19.8710448,26.9421 C19.8710448,27.23385 19.6337313,27.47235 19.3434328,27.47235" id="Fill-15" fill="#777777"></path>
                <path d="M36.5076119,27.47235 L32.3389552,27.47235 C32.0486567,27.47235 31.8113433,27.23385 31.8113433,26.9421 L31.8113433,26.5026 C31.8113433,26.21085 32.0486567,25.97235 32.3389552,25.97235 L36.5076119,25.97235 C36.7979104,25.97235 37.0352239,26.21085 37.0352239,26.5026 L37.0352239,26.9421 C37.0352239,27.23385 36.7979104,27.47235 36.5076119,27.47235" id="Fill-17" fill="#777777"></path>
                <path d="M16.8859701,39.47235 C16.8859701,40.7151 15.3822388,41.72235 13.5277612,41.72235 C11.6732836,41.72235 10.1695522,40.7151 10.1695522,39.47235 C10.1695522,38.2296 11.6732836,37.22235 13.5277612,37.22235 C15.3822388,37.22235 16.8859701,38.2296 16.8859701,39.47235" id="Fill-19" fill="#DDDDDD"></path>
                <path d="M43.0053731,39.47235 C43.0053731,40.7151 41.5016418,41.72235 39.6471642,41.72235 C37.7926866,41.72235 36.2889552,40.7151 36.2889552,39.47235 C36.2889552,38.2296 37.7926866,37.22235 39.6471642,37.22235 C41.5016418,37.22235 43.0053731,38.2296 43.0053731,39.47235" id="Fill-21" fill="#DDDDDD"></path>
                <path d="M17.7284328,34.97235 L17.5358955,34.97235 C16.7679851,34.97235 16.1396269,34.34085 16.1396269,33.5691 L16.1396269,31.1256 C16.1396269,30.35385 16.7679851,29.72235 17.5358955,29.72235 L17.7284328,29.72235 C18.4963433,29.72235 19.1247015,30.35385 19.1247015,31.1256 L19.1247015,33.5691 C19.1247015,34.34085 18.4963433,34.97235 17.7284328,34.97235" id="Fill-23" fill="#777777"></path>
                <path d="M34.1463433,34.97235 L33.953806,34.97235 C33.1858955,34.97235 32.5575373,34.34085 32.5575373,33.5691 L32.5575373,31.1256 C32.5575373,30.35385 33.1858955,29.72235 33.953806,29.72235 L34.1463433,29.72235 C34.9142537,29.72235 35.5426119,30.35385 35.5426119,31.1256 L35.5426119,33.5691 C35.5426119,34.34085 34.9142537,34.97235 34.1463433,34.97235" id="Fill-25" fill="#777777"></path>
            </g>
        </g>
    </g>
</svg>