<?xml version="1.0" encoding="UTF-8"?>
<svg width="130px" height="130px" viewBox="0 0 130 130" version="1.1" xmlns="http://www.w3.org/2000/svg" xmlns:xlink="http://www.w3.org/1999/xlink">
    <!-- Generator: Sketch 51.2 (57519) - http://www.bohemiancoding.com/sketch -->
    <title>1</title>
    <desc>Created with Sketch.</desc>
    <defs></defs>
    <g id="Page-1" stroke="none" stroke-width="1" fill="none" fill-rule="evenodd">
        <g id="足记游戏切图" transform="translate(-2272.000000, -543.000000)">
            <g id="1" transform="translate(2306.000000, 555.000000)">
                <path d="M63.43136,0.145833333 L37.06088,108.844167 L10.0748,108.844167 L24.21308,50.5670833 C26.25368,42.1520833 27.28196,37.094375 27.29336,35.3939583 C27.30476,33.6935417 26.51588,32.405625 24.92216,31.5325 C23.33072,30.659375 19.41824,30.2239583 13.18244,30.2239583 L10.51256,30.2239583 L15.81128,8.38666667 C31.89896,10.1077083 38.63408,8.9275 47.53292,0.145833333 L63.43136,0.145833333 Z" id="Path" fill="#5542ED"></path>
                <path d="M53.43136,0.145833333 L27.06088,108.844167 L0.0748,108.844167 L14.21308,50.5670833 C16.25368,42.1520833 17.28196,37.094375 17.29336,35.3939583 C17.30476,33.6935417 16.51588,32.405625 14.92216,31.5325 C13.33072,30.659375 9.41824,30.2239583 3.18244,30.2239583 L0.51256,30.2239583 L5.81128,8.38666667 C21.89896,10.1077083 28.63408,8.9275 37.53292,0.145833333 L53.43136,0.145833333 Z" id="Fill-1" fill="#FFFFFF"></path>
                <path d="M53.43136,0.145833333 L27.06088,108.844167 L0.0748,108.844167 L14.21308,50.5670833 C16.25368,42.1520833 17.28196,37.094375 17.29336,35.3939583 C17.30476,33.6935417 16.51588,32.405625 14.92216,31.5325 C13.33072,30.659375 9.41824,30.2239583 3.18244,30.2239583 L0.51256,30.2239583 L5.81128,8.38666667 C21.89896,10.1077083 28.63408,8.9275 37.53292,0.145833333 L53.43136,0.145833333 Z" id="Stroke-3" stroke="#333333" stroke-width="6.9"></path>
            </g>
        </g>
    </g>
</svg>