<?xml version="1.0" encoding="UTF-8"?>
<svg width="130px" height="130px" viewBox="0 0 130 130" version="1.1" xmlns="http://www.w3.org/2000/svg" xmlns:xlink="http://www.w3.org/1999/xlink">
    <!-- Generator: Sketch 51.2 (57519) - http://www.bohemiancoding.com/sketch -->
    <title>2</title>
    <desc>Created with Sketch.</desc>
    <defs></defs>
    <g id="Page-1" stroke="none" stroke-width="1" fill="none" fill-rule="evenodd">
        <g id="足记游戏切图" transform="translate(-2130.000000, -543.000000)">
            <g id="2" transform="translate(2151.000000, 553.000000)">
                <path d="M74.2308105,92.9834837 L69.7159684,111.63079 L10.0866263,111.63079 L13.8848632,96.0229531 C38.5882842,66.9266061 53.4446789,48.9227082 58.4494684,42.0089531 C63.4542579,35.0928918 66.4282842,29.7011776 67.3669684,25.8268918 C68.0858632,22.8543 68.1179158,20.6358102 67.4654158,19.1714224 C66.8129158,17.7070347 65.4552579,16.9759939 63.3970211,16.9759939 C61.3364947,16.9759939 59.6056526,17.787749 58.2067842,19.4089531 C56.8056263,21.0301571 55.5235211,24.2495041 54.3558895,29.0693 L51.8374684,39.4745245 L27.5553105,39.4745245 L28.5214684,35.4872388 C30.0050474,29.3621776 31.4863368,24.530851 32.9699158,20.9955653 C34.4512053,17.4602796 36.8368368,13.9803408 40.1245211,10.5580551 C43.4122053,7.13346327 47.2356263,4.54368776 51.5970737,2.78872857 C55.9585211,1.03146327 60.8877579,0.152830612 66.3870737,0.152830612 C77.1636263,0.152830612 84.6616526,2.84407551 88.8811526,8.22656531 C93.1006526,13.6090551 94.2133368,20.4213408 92.2169158,28.6634224 C90.7012842,34.9245449 87.5441,41.5454224 82.7476526,48.5283612 C77.9466263,55.5089939 65.2034158,70.3281367 44.5157316,92.9834837 L74.2308105,92.9834837 Z" id="Stroke-3-Copy-5" fill="#5542ED"></path>
                <path d="M64.2308105,92.9834837 L59.7159684,111.63079 L0.0866263158,111.63079 L3.88486316,96.0229531 C28.5882842,66.9266061 43.4446789,48.9227082 48.4494684,42.0089531 C53.4542579,35.0928918 56.4282842,29.7011776 57.3669684,25.8268918 C58.0858632,22.8543 58.1179158,20.6358102 57.4654158,19.1714224 C56.8129158,17.7070347 55.4552579,16.9759939 53.3970211,16.9759939 C51.3364947,16.9759939 49.6056526,17.787749 48.2067842,19.4089531 C46.8056263,21.0301571 45.5235211,24.2495041 44.3558895,29.0693 L41.8374684,39.4745245 L17.5553105,39.4745245 L18.5214684,35.4872388 C20.0050474,29.3621776 21.4863368,24.530851 22.9699158,20.9955653 C24.4512053,17.4602796 26.8368368,13.9803408 30.1245211,10.5580551 C33.4122053,7.13346327 37.2356263,4.54368776 41.5970737,2.78872857 C45.9585211,1.03146327 50.8877579,0.152830612 56.3870737,0.152830612 C67.1636263,0.152830612 74.6616526,2.84407551 78.8811526,8.22656531 C83.1006526,13.6090551 84.2133368,20.4213408 82.2169158,28.6634224 C80.7012842,34.9245449 77.5441,41.5454224 72.7476526,48.5283612 C67.9466263,55.5089939 55.2034158,70.3281367 34.5157316,92.9834837 L64.2308105,92.9834837 Z" id="Fill-1" fill="#FFFFFF"></path>
                <path d="M64.2308105,92.9834837 L59.7159684,111.63079 L0.0866263158,111.63079 L3.88486316,96.0229531 C28.5882842,66.9266061 43.4446789,48.9227082 48.4494684,42.0089531 C53.4542579,35.0928918 56.4282842,29.7011776 57.3669684,25.8268918 C58.0858632,22.8543 58.1179158,20.6358102 57.4654158,19.1714224 C56.8129158,17.7070347 55.4552579,16.9759939 53.3970211,16.9759939 C51.3364947,16.9759939 49.6056526,17.787749 48.2067842,19.4089531 C46.8056263,21.0301571 45.5235211,24.2495041 44.3558895,29.0693 L41.8374684,39.4745245 L17.5553105,39.4745245 L18.5214684,35.4872388 C20.0050474,29.3621776 21.4863368,24.530851 22.9699158,20.9955653 C24.4512053,17.4602796 26.8368368,13.9803408 30.1245211,10.5580551 C33.4122053,7.13346327 37.2356263,4.54368776 41.5970737,2.78872857 C45.9585211,1.03146327 50.8877579,0.152830612 56.3870737,0.152830612 C67.1636263,0.152830612 74.6616526,2.84407551 78.8811526,8.22656531 C83.1006526,13.6090551 84.2133368,20.4213408 82.2169158,28.6634224 C80.7012842,34.9245449 77.5441,41.5454224 72.7476526,48.5283612 C67.9466263,55.5089939 55.2034158,70.3281367 34.5157316,92.9834837 L64.2308105,92.9834837 Z" id="Stroke-3" stroke="#333333" stroke-width="6.9"></path>
            </g>
        </g>
    </g>
</svg>