<?xml version="1.0" encoding="UTF-8"?>
<svg width="130px" height="130px" viewBox="0 0 130 130" version="1.1" xmlns="http://www.w3.org/2000/svg" xmlns:xlink="http://www.w3.org/1999/xlink">
    <!-- Generator: Sketch 51.2 (57519) - http://www.bohemiancoding.com/sketch -->
    <title>3</title>
    <desc>Created with Sketch.</desc>
    <defs></defs>
    <g id="Page-1" stroke="none" stroke-width="1" fill="none" fill-rule="evenodd">
        <g id="足记游戏切图" transform="translate(-1990.000000, -543.000000)">
            <g id="3" transform="translate(2013.000000, 553.000000)">
                <path d="M72.2487343,49.57539 C76.0649914,50.96919 78.6014486,53.25079 79.8581057,56.42019 C81.1147629,59.58959 80.3093914,67.01399 77.4419914,78.70029 C75.3151629,87.37589 72.66762,94.10569 69.5039914,98.89199 C66.3403629,103.67829 62.0126486,107.31919 56.5185343,109.81239 C51.0267343,112.30789 44.4587914,113.55449 36.8193343,113.55449 C28.1407629,113.55449 21.6839057,112.10549 17.4441343,109.20979 C13.2066771,106.31179 10.8229629,102.76289 10.2929914,98.56309 C9.76302,94.36329 10.7743629,87.07459 13.3200771,76.69699 L14.8729629,70.37199 L42.2625343,70.37199 L38.4786771,85.79349 C37.3215343,90.51079 36.8679343,93.50999 37.1201914,94.78879 C37.3701343,96.06989 38.4671057,96.70929 40.4111057,96.70929 C42.53562,96.70929 44.1347914,95.90199 45.2109343,94.28279 C46.2847629,92.66589 47.6594486,88.44309 49.3349914,81.61669 L51.18642,74.06809 C52.2116486,69.89129 52.4870486,66.83689 52.01262,64.90489 C51.5358771,62.97289 50.4481629,61.70329 48.7425343,61.09839 C47.0369057,60.49119 43.5307629,60.14389 38.2171629,60.05419 L42.1051629,44.21869 C48.6129343,44.21869 52.6953343,43.97029 54.3546771,43.47809 C56.0117057,42.98359 57.3840771,41.90489 58.4694771,40.24199 C59.5571914,38.58139 60.53382,35.97549 61.4039914,32.42659 L62.8943914,26.36149 C63.8293629,22.54349 64.0515343,20.02729 63.5585914,18.81519 C63.0656486,17.60309 61.9825629,16.99589 60.3093343,16.99589 C58.41162,16.99589 56.9559343,17.63529 55.9399629,18.91639 C54.9263057,20.19749 53.9057057,22.92529 52.8804771,27.10209 L51.2442771,33.76519 L23.8523914,33.76519 L25.5719057,26.76629 C28.1291914,16.34499 32.2509343,9.30239 37.9417629,5.64079 C43.6302771,1.98149 51.6955629,0.15069 62.13762,0.15069 C75.1994486,0.15069 83.4383057,2.68529 86.8495629,7.75909 C90.26082,12.83059 90.8579057,19.88009 88.6431343,28.90299 C87.1457914,35.00719 85.2272486,39.41859 82.88982,42.13489 C80.5500771,44.85119 77.0045914,47.33059 72.2487343,49.57539 Z" id="Stroke-3-Copy-4" fill="#5542ED"></path>
                <path d="M62.2487343,49.57539 C66.0649914,50.96919 68.6014486,53.25079 69.8581057,56.42019 C71.1147629,59.58959 70.3093914,67.01399 67.4419914,78.70029 C65.3151629,87.37589 62.66762,94.10569 59.5039914,98.89199 C56.3403629,103.67829 52.0126486,107.31919 46.5185343,109.81239 C41.0267343,112.30789 34.4587914,113.55449 26.8193343,113.55449 C18.1407629,113.55449 11.6839057,112.10549 7.44413429,109.20979 C3.20667714,106.31179 0.822962857,102.76289 0.292991429,98.56309 C-0.23698,94.36329 0.774362857,87.07459 3.32007714,76.69699 L4.87296286,70.37199 L32.2625343,70.37199 L28.4786771,85.79349 C27.3215343,90.51079 26.8679343,93.50999 27.1201914,94.78879 C27.3701343,96.06989 28.4671057,96.70929 30.4111057,96.70929 C32.53562,96.70929 34.1347914,95.90199 35.2109343,94.28279 C36.2847629,92.66589 37.6594486,88.44309 39.3349914,81.61669 L41.18642,74.06809 C42.2116486,69.89129 42.4870486,66.83689 42.01262,64.90489 C41.5358771,62.97289 40.4481629,61.70329 38.7425343,61.09839 C37.0369057,60.49119 33.5307629,60.14389 28.2171629,60.05419 L32.1051629,44.21869 C38.6129343,44.21869 42.6953343,43.97029 44.3546771,43.47809 C46.0117057,42.98359 47.3840771,41.90489 48.4694771,40.24199 C49.5571914,38.58139 50.53382,35.97549 51.4039914,32.42659 L52.8943914,26.36149 C53.8293629,22.54349 54.0515343,20.02729 53.5585914,18.81519 C53.0656486,17.60309 51.9825629,16.99589 50.3093343,16.99589 C48.41162,16.99589 46.9559343,17.63529 45.9399629,18.91639 C44.9263057,20.19749 43.9057057,22.92529 42.8804771,27.10209 L41.2442771,33.76519 L13.8523914,33.76519 L15.5719057,26.76629 C18.1291914,16.34499 22.2509343,9.30239 27.9417629,5.64079 C33.6302771,1.98149 41.6955629,0.15069 52.13762,0.15069 C65.1994486,0.15069 73.4383057,2.68529 76.8495629,7.75909 C80.26082,12.83059 80.8579057,19.88009 78.6431343,28.90299 C77.1457914,35.00719 75.2272486,39.41859 72.88982,42.13489 C70.5500771,44.85119 67.0045914,47.33059 62.2487343,49.57539" id="Fill-1" fill="#FFFFFF"></path>
                <path d="M62.2487343,49.57539 C66.0649914,50.96919 68.6014486,53.25079 69.8581057,56.42019 C71.1147629,59.58959 70.3093914,67.01399 67.4419914,78.70029 C65.3151629,87.37589 62.66762,94.10569 59.5039914,98.89199 C56.3403629,103.67829 52.0126486,107.31919 46.5185343,109.81239 C41.0267343,112.30789 34.4587914,113.55449 26.8193343,113.55449 C18.1407629,113.55449 11.6839057,112.10549 7.44413429,109.20979 C3.20667714,106.31179 0.822962857,102.76289 0.292991429,98.56309 C-0.23698,94.36329 0.774362857,87.07459 3.32007714,76.69699 L4.87296286,70.37199 L32.2625343,70.37199 L28.4786771,85.79349 C27.3215343,90.51079 26.8679343,93.50999 27.1201914,94.78879 C27.3701343,96.06989 28.4671057,96.70929 30.4111057,96.70929 C32.53562,96.70929 34.1347914,95.90199 35.2109343,94.28279 C36.2847629,92.66589 37.6594486,88.44309 39.3349914,81.61669 L41.18642,74.06809 C42.2116486,69.89129 42.4870486,66.83689 42.01262,64.90489 C41.5358771,62.97289 40.4481629,61.70329 38.7425343,61.09839 C37.0369057,60.49119 33.5307629,60.14389 28.2171629,60.05419 L32.1051629,44.21869 C38.6129343,44.21869 42.6953343,43.97029 44.3546771,43.47809 C46.0117057,42.98359 47.3840771,41.90489 48.4694771,40.24199 C49.5571914,38.58139 50.53382,35.97549 51.4039914,32.42659 L52.8943914,26.36149 C53.8293629,22.54349 54.0515343,20.02729 53.5585914,18.81519 C53.0656486,17.60309 51.9825629,16.99589 50.3093343,16.99589 C48.41162,16.99589 46.9559343,17.63529 45.9399629,18.91639 C44.9263057,20.19749 43.9057057,22.92529 42.8804771,27.10209 L41.2442771,33.76519 L13.8523914,33.76519 L15.5719057,26.76629 C18.1291914,16.34499 22.2509343,9.30239 27.9417629,5.64079 C33.6302771,1.98149 41.6955629,0.15069 52.13762,0.15069 C65.1994486,0.15069 73.4383057,2.68529 76.8495629,7.75909 C80.26082,12.83059 80.8579057,19.88009 78.6431343,28.90299 C77.1457914,35.00719 75.2272486,39.41859 72.88982,42.13489 C70.5500771,44.85119 67.0045914,47.33059 62.2487343,49.57539 Z" id="Stroke-3" stroke="#333333" stroke-width="6.9"></path>
            </g>
        </g>
    </g>
</svg>