<?xml version="1.0" encoding="UTF-8"?>
<svg width="366px" height="124px" viewBox="0 0 366 124" version="1.1" xmlns="http://www.w3.org/2000/svg" xmlns:xlink="http://www.w3.org/1999/xlink">
    <!-- Generator: Sketch 51.2 (57519) - http://www.bohemiancoding.com/sketch -->
    <title>成 就</title>
    <desc>Created with Sketch.</desc>
    <defs>
        <polygon id="path-1" points="0 0 40 0 40 41.250382 20 33.8632076 0 41.250382"></polygon>
        <linearGradient x1="90.8342634%" y1="59.484282%" x2="-11.983817%" y2="19.8800223%" id="linearGradient-3">
            <stop stop-color="#FFE200" offset="0%"></stop>
            <stop stop-color="#FFAB00" offset="100%"></stop>
        </linearGradient>
        <polygon id="path-4" points="21.4285714 33.519264 8.18498596 40.4246122 10.7142857 25.7988501 -1.27897692e-13 15.4408279 14.8067787 13.3069579 21.4285714 7.10542736e-15 28.0503642 13.3069579 42.8571429 15.4408279 32.1428571 25.7988501 34.6721569 40.4246122"></polygon>
        <filter x="-3.5%" y="-3.7%" width="107.0%" height="107.4%" filterUnits="objectBoundingBox" id="filter-5">
            <feOffset dx="-3" dy="-3" in="SourceAlpha" result="shadowOffsetInner1"></feOffset>
            <feComposite in="shadowOffsetInner1" in2="SourceAlpha" operator="arithmetic" k2="-1" k3="1" result="shadowInnerInner1"></feComposite>
            <feColorMatrix values="0 0 0 0 1   0 0 0 0 0.870588235   0 0 0 0 0.533333333  0 0 0 1 0" type="matrix" in="shadowInnerInner1"></feColorMatrix>
        </filter>
    </defs>
    <g id="Page-1" stroke="none" stroke-width="1" fill="none" fill-rule="evenodd">
        <g id="成-就">
            <rect id="Rectangle-12-Copy-5" fill="#FF5E72" fill-rule="nonzero" x="0" y="0" width="366" height="124"></rect>
            <polygon id="Rectangle-12" fill="#FFFFFF" fill-rule="nonzero" opacity="0.115290179" points="331.767578 0 348.558594 0 297.791016 124 281 124"></polygon>
            <polygon id="Rectangle-12-Copy-3" fill="#FFFFFF" fill-rule="nonzero" opacity="0.115290179" points="361.976562 0 358.767578 0 308 124 311.208984 124"></polygon>
            <rect id="Rectangle-16-Copy" fill="#302E73" fill-rule="nonzero" opacity="0.5" x="34" y="41" width="154" height="60"></rect>
            <rect id="Rectangle-16" stroke="#333333" stroke-width="6" fill="#FFFFFF" fill-rule="nonzero" x="30" y="37" width="148" height="54"></rect>
            <path d="M84.2,58.92 C84.0933328,58.5999984 83.8933348,58.3933338 83.6,58.3 C83.3066652,58.2066662 83.0400012,58.16 82.8,58.16 L74.6,58.16 L77.48,64.28 L83.84,61.56 L83.84,66.68 C83.7333328,66.3599984 83.5333348,66.1466672 83.24,66.04 C82.9466652,65.9333328 82.6800012,65.88 82.44,65.88 L78.92,67.4 L81.56,73 L85.92,72.96 L85.92,76.48 C85.786666,76.1333316 85.5733348,75.9133338 85.28,75.82 C84.9866652,75.7266662 84.7200012,75.68 84.48,75.68 L82.88,75.72 L81.12,75.72 L77.76,75.76 L77.76,75.72 L76.92,75.72 L74,69.52 L67.84,72.2 L67.84,67.2 L69.04,67.88 L72.56,66.4 L68.68,58.16 L56.08,58.16 L55.68,61.76 L65.88,61.76 L65.88,76.52 C65.7733328,76.1999984 65.5666682,75.9933338 65.26,75.9 C64.9533318,75.8066662 64.6800012,75.76 64.44,75.76 L56,75.76 L56,72.36 L57.2,73.04 L60.76,73.04 L60.76,64.48 L55.36,64.48 L54.12,75.76 L49,75.76 L50.8,58.16 L51.16,54.32 L52.44,55 L67.2,55 L66.2,52.84 L65.48,52.04 L71.72,52.04 L73.12,55 L76.56,55 L76.56,53.36 L75.84,52.56 L81.68,52.56 L81.68,55 L84.2,55 L84.2,58.92 Z M158.08,58.32 L158.08,61.44 C157.946666,61.173332 157.740001,60.9866672 157.46,60.88 C157.179999,60.7733328 156.920001,60.72 156.68,60.72 L151.8,60.72 L151.28,62.64 L156.6,62.64 L156.6,73.04 L158.4,73.04 L158.4,76.56 C158.266666,76.2399984 158.053335,76.0333338 157.76,75.94 C157.466665,75.8466662 157.200001,75.8 156.96,75.8 L152.6,75.8 L152.6,75.76 L151.76,75.76 L151.76,63.4 L151.24,62.84 L147.68,75.68 L142.56,75.68 L146.76,60.72 L142.08,60.72 L142.08,57.72 L143.68,58.32 L147,58.32 L147,52.76 L146.28,52 L152.16,52 L152.16,58.32 L158.08,58.32 Z M127.52,75.84 L128.52,74.72 L128.52,64.84 L121.08,64.84 L121.08,58.92 L120.52,58.04 L141.04,58.04 L141.04,64.84 L133.64,64.84 L133.64,75.84 L127.52,75.84 Z M141.64,53.68 L141.64,57.2 C141.506666,56.9066652 141.280002,56.7000006 140.96,56.58 C140.639998,56.4599994 140.346668,56.4 140.08,56.4 L120.76,56.4 L120.76,53 L122.36,53.68 L129.16,53.68 L129.16,52.8 L128.4,52.04 L134.28,52.04 L134.28,53.68 L141.64,53.68 Z M140.32,66.44 L139.68,67.16 L141.04,75.76 L136.88,75.76 L135.44,66.44 L140.32,66.44 Z M126.56,66.28 L125.12,75.56 L120.96,75.56 L122.32,67 L121.68,66.28 L126.56,66.28 Z M126.48,63.04 L135.72,63.04 L135.72,59.88 L126.48,59.88 L126.48,63.04 Z M158.2,56.28 L154.16,56.28 L153.68,52.96 L152.96,52.04 L157.64,52.04 L158.2,56.28 Z" fill="#333333" fill-rule="nonzero"></path>
            <g id="Group" transform="translate(254.000000, 18.000000)">
                <g id="Rectangle-19" transform="translate(8.000000, 42.095236)">
                    <polygon id="Shape" stroke="#35A875" stroke-width="3" points="22 37.4622567 0.5 45.4034692 0.5 0.5 43.5 0.5 43.5 45.4034692"></polygon>
                    <g id="Clipped" transform="translate(2.000000, 2.000000)">
                        <mask id="mask-2" fill="white">
                            <use xlink:href="#path-1"></use>
                        </mask>
                        <use id="path-1" fill="#4FBB8B" xlink:href="#path-1"></use>
                        <rect id="Rectangle-path" stroke="#FFFFFF" stroke-width="5.70857714" mask="url(#mask-2)" x="14.28286" y="4.27671553" width="11.43428" height="35.5418048"></rect>
                    </g>
                </g>
                <ellipse id="Oval-8" stroke="#FF9B00" stroke-width="3" fill="url(#linearGradient-3)" fill-rule="nonzero" cx="30" cy="29.8709663" rx="30" ry="29.8709663"></ellipse>
                <ellipse id="Oval-8-Copy" fill="#FFCF1E" fill-rule="nonzero" cx="30" cy="29.8709663" rx="24.2857143" ry="24.1812584"></ellipse>
                <g id="Star" transform="translate(8.000000, 8.000000)">
                    <g id="path-4-link" fill="#FFFFFF">
                        <polygon id="path-4" points="22 34.0538258 8.7564145 40.959174 11.2857143 26.3334119 0.57142857 15.9753897 15.3782073 13.8415197 22 0.53456179 28.6217927 13.8415197 43.4285714 15.9753897 32.7142857 26.3334119 35.2435855 40.959174"></polygon>
                    </g>
                    <g id="path-4-link" transform="translate(1.000000, 1.000000)">
                        <g id="Star">
                            <use fill="#FFFFFF" fill-rule="evenodd" xlink:href="#path-4"></use>
                            <use fill="black" fill-opacity="1" filter="url(#filter-5)" xlink:href="#path-4"></use>
                        </g>
                    </g>
                </g>
            </g>
            <g id="xo" transform="translate(227.000000, 18.000000)" fill-rule="nonzero">
                <path d="M98,25.1530097 L100.770485,22.3825242 C101.280518,21.8724919 102.107443,21.8724919 102.617476,22.3825242 C103.127508,22.8925565 103.127508,23.7194822 102.617476,24.2295145 L99.8469903,27 L102.617476,29.7704855 C103.127508,30.2805178 103.127508,31.1074435 102.617476,31.6174758 C102.107443,32.1275081 101.280518,32.1275081 100.770485,31.6174758 L98,28.8469903 L95.2295145,31.6174758 C94.7194822,32.1275081 93.8925565,32.1275081 93.3825242,31.6174758 C92.8724919,31.1074435 92.8724919,30.2805178 93.3825242,29.7704855 L96.1530097,27 L93.3825242,24.2295145 C92.8724919,23.7194822 92.8724919,22.8925565 93.3825242,22.3825242 C93.8925565,21.8724919 94.7194822,21.8724919 95.2295145,22.3825242 L98,25.1530097 Z" id="Combined-Shape" fill="#FFEBB2"></path>
                <path d="M5,37.1530097 L7.77048547,34.3825242 C8.28051776,33.8724919 9.10744349,33.8724919 9.61747578,34.3825242 C10.1275081,34.8925565 10.1275081,35.7194822 9.61747578,36.2295145 L6.84699031,39 L9.61747578,41.7704855 C10.1275081,42.2805178 10.1275081,43.1074435 9.61747578,43.6174758 C9.10744349,44.1275081 8.28051776,44.1275081 7.77048547,43.6174758 L5,40.8469903 L2.22951453,43.6174758 C1.71948224,44.1275081 0.89255651,44.1275081 0.382524219,43.6174758 C-0.127508073,43.1074435 -0.127508073,42.2805178 0.382524219,41.7704855 L3.15300969,39 L0.382524219,36.2295145 C-0.127508073,35.7194822 -0.127508073,34.8925565 0.382524219,34.3825242 C0.89255651,33.8724919 1.71948224,33.8724919 2.22951453,34.3825242 L5,37.1530097 Z" id="Combined-Shape-Copy" fill="#FFEBB2"></path>
                <path d="M17.4693301,63 C18.3012633,65.0549166 19.1792757,66.5009202 20.1033674,67.3380107 C21.0274592,68.1751012 22.6392234,68.9844675 24.9386602,69.7661094 C22.6861811,70.8404469 21.0744169,71.8174293 20.1033674,72.6970566 C19.132318,73.5766839 18.2543056,74.8550713 17.4693301,76.5322187 C16.4190131,74.7790178 15.4503089,73.5006304 14.5632174,72.6970566 C13.676126,71.8934828 12.1550535,70.9165004 10,69.7661094 C12.0982458,69.0024101 13.6193182,68.1930439 14.5632174,67.3380107 C15.5071166,66.4829775 16.4758209,65.0369739 17.4693301,63 Z" id="Rectangle-Copy-3" fill="#FFCB2B"></path>
                <path d="M85.5,0 C86.558109,2.61358212 87.6748247,4.45270742 88.8501471,5.51737587 C90.0254696,6.58204433 92.0754205,7.61145112 95,8.60559624 C92.1351445,9.97201149 90.0851935,11.2146039 88.8501471,12.3333735 C87.6151007,13.452143 86.498385,15.0780827 85.5,17.2111925 C84.1641357,14.9813527 82.9320721,13.3554131 81.8038091,12.3333735 C80.675546,11.3113339 78.740943,10.0687415 76,8.60559624 C78.6686911,7.6342718 80.6032941,6.60486502 81.8038091,5.51737587 C83.004324,4.42988673 84.2363876,2.59076144 85.5,0 Z" id="Rectangle-Copy-2" fill="#FFE7E7"></path>
            </g>
        </g>
    </g>
</svg>