<?xml version="1.0" encoding="UTF-8"?>
<svg width="750px" height="471px" viewBox="0 0 750 471" version="1.1" xmlns="http://www.w3.org/2000/svg" xmlns:xlink="http://www.w3.org/1999/xlink">
    <!-- Generator: Sketch 51.2 (57519) - http://www.bohemiancoding.com/sketch -->
    <title>水印</title>
    <desc>Created with Sketch.</desc>
    <defs>
        <rect id="path-1" x="0" y="0" width="750" height="471"></rect>
    </defs>
    <g id="Page-1" stroke="none" stroke-width="1" fill="none" fill-rule="evenodd">
        <g id="足记游戏切图" transform="translate(-125.000000, -2473.000000)">
            <g id="水印1" transform="translate(125.000000, 2473.000000)">
                <mask id="mask-2" fill="white">
                    <use xlink:href="#path-1"></use>
                </mask>
                <use id="Mask" fill="#FFFFFF" xlink:href="#path-1"></use>
                <g id="Group-159" mask="url(#mask-2)">
                    <g transform="translate(6.000000, 20.000000)">
                        <path d="M396.3423,8.9499 C401.1803,17.3309 398.3093,28.0469 389.9283,32.8859 C381.5473,37.7239 370.8313,34.8529 365.9923,26.4719 C361.1543,18.0919 364.0253,7.3749 372.4053,2.5359 C380.7863,-2.3021 391.5033,0.5699 396.3423,8.9499 Z" id="Stroke-1" stroke="#F7F7F7" stroke-width="6.372" fill="none"></path>
                        <path d="M21.6753,83.6183 C24.2173,88.0213 22.7083,93.6523 18.3053,96.1953 C13.9023,98.7373 8.2713,97.2283 5.7283,92.8253 C3.1863,88.4223 4.6953,82.7913 9.0983,80.2483 C13.5013,77.7063 19.1323,79.2153 21.6753,83.6183 Z" id="Stroke-3" stroke="#F7F7F7" stroke-width="6.372" fill="none"></path>
                        <path d="M305.5513,167.423 C308.0933,171.826 306.5843,177.457 302.1813,180 C297.7783,182.542 292.1473,181.033 289.6043,176.63 C287.0623,172.226 288.5713,166.595 292.9743,164.053 C297.3773,161.51 303.0083,163.019 305.5513,167.423 Z" id="Stroke-5" stroke="#F7F7F7" stroke-width="6.372" fill="none"></path>
                        <path d="M532.4497,223.548 C534.9927,227.951 533.4837,233.582 529.0797,236.125 C524.6767,238.667 519.0457,237.158 516.5027,232.755 C513.9607,228.351 515.4697,222.72 519.8727,220.178 C524.2767,217.635 529.9077,219.144 532.4497,223.548 Z" id="Stroke-7" stroke="#F7F7F7" stroke-width="6.372" fill="none"></path>
                        <path d="M156.1177,154.6994 L171.6727,158.8674 C173.8557,159.4524 174.5877,162.1804 172.9887,163.7794 L161.6017,175.1664 L150.2157,186.5534 C148.6167,188.1504 145.8887,187.4204 145.3037,185.2364 L141.1357,169.6814 L136.9677,154.1274 C136.3827,151.9444 138.3807,149.9464 140.5627,150.5314 L156.1177,154.6994 Z" id="Stroke-9" stroke="#F7F7F7" stroke-width="6.372" fill="none" stroke-linecap="round"></path>
                        <path d="M262.9204,43.0236 L277.7694,34.4506 C278.4044,34.0836 279.2174,34.3016 279.5844,34.9366 L279.8484,35.3946 C280.2154,36.0296 279.9974,36.8426 279.3614,37.2096 L264.5134,45.7826 C263.8774,46.1496 263.0654,45.9316 262.6974,45.2966 L262.4344,44.8386 C262.0664,44.2036 262.2844,43.3906 262.9204,43.0236" id="Fill-11" stroke="none" fill="#F7F7F7" fill-rule="evenodd"></path>
                        <path d="M231.021,33.924 L234.77,21.553 C235.196,20.149 236.679,19.355 238.083,19.78 C238.312,19.85 238.53,19.949 238.731,20.076 C241.582,21.874 244.935,21.909 248.792,20.182 C252.974,18.308 254.923,15.216 254.641,10.905 C254.544,9.441 255.654,8.175 257.119,8.08 C257.298,8.068 257.479,8.074 257.657,8.099 L269.612,9.754 C271.792,10.056 273.316,12.069 273.014,14.25 C273.012,14.264 273.01,14.279 273.007,14.294 L272.083,20.465 C271.994,21.059 272.108,21.667 272.409,22.187 L281.896,38.62 C282.63,39.891 282.195,41.517 280.923,42.25 L253.512,58.076 C252.241,58.81 250.616,58.375 249.881,57.104 L240.635,41.088 C240.24,40.403 239.56,39.93 238.781,39.797 L234.166,39.009 C231.996,38.639 230.537,36.579 230.907,34.409 C230.935,34.245 230.973,34.083 231.021,33.924 Z" id="Stroke-13" stroke="#F7F7F7" stroke-width="3.186" fill="none"></path>
                        <path d="M235.2964,33.7736 L238.4834,23.2596 C238.8224,22.1366 240.0084,21.5026 241.1314,21.8426 C241.3204,21.9006 241.5014,21.9836 241.6674,22.0916 C244.0504,23.6306 246.8594,23.6746 250.0954,22.2256 C253.5964,20.6576 255.2134,18.0616 254.9464,14.4366 C254.8604,13.2666 255.7394,12.2486 256.9094,12.1626 C257.0584,12.1516 257.2084,12.1566 257.3564,12.1766 L267.5114,13.5836 C269.2544,13.8246 270.4714,15.4326 270.2304,17.1756 C270.2284,17.1876 270.2274,17.1996 270.2254,17.2116 L269.4334,22.4886 C269.3614,22.9646 269.4534,23.4496 269.6944,23.8656 L277.0984,36.6906 C277.9784,38.2136 277.4564,40.1626 275.9324,41.0426 L254.8624,53.2066 C253.3394,54.0866 251.3914,53.5646 250.5114,52.0406 L243.3024,39.5536 C242.9854,39.0066 242.4424,38.6286 241.8194,38.5226 L237.8094,37.8376 C236.0744,37.5416 234.9084,35.8956 235.2044,34.1616 C235.2274,34.0306 235.2584,33.9006 235.2964,33.7736" id="Fill-15" stroke="none" fill="#F7F7F7" fill-rule="evenodd"></path>
                        <path d="M363.6919,109.5256 C364.1279,104.9426 369.9249,101.6666 373.0849,96.3406 C374.9649,93.1696 376.4039,90.0386 377.3989,86.9506 C377.6059,86.3056 378.2079,85.8696 378.8839,85.8726 C382.0879,85.8846 384.8809,85.4226 387.2659,84.4856 C389.4339,83.6326 391.5339,82.3346 393.5649,80.5896 C394.2159,80.0306 395.1989,80.1046 395.7569,80.7556 C395.8209,80.8296 395.8769,80.9086 395.9239,80.9926 L403.9289,94.8556 C404.3579,95.5996 404.1039,96.5506 403.3599,96.9796 L368.4069,117.1606 C367.7899,117.5166 367.0079,117.4076 366.5119,116.8956 C364.3749,114.6876 363.4339,112.2316 363.6919,109.5256" id="Fill-17" stroke="none" fill="#F7F7F7" fill-rule="evenodd"></path>
                        <path d="M386.1313,80.4621 C385.1663,81.0191 381.7643,81.6251 375.9243,82.2791 C375.8273,82.7201 375.2853,84.1661 374.2983,86.6161 C373.3113,89.0671 369.2973,94.9801 362.2573,104.3521 C361.7473,104.6471 361.0923,108.9001 360.6783,108.4871 C358.4293,106.2381 358.5383,105.0201 358.8023,102.2481 C359.2373,97.6651 365.0353,94.3891 368.1943,89.0641 C370.1103,85.8331 371.5673,82.6471 372.5643,79.5031 C372.7363,78.9581 373.2463,78.5891 373.8183,78.5941 C377.0963,78.6251 379.9483,78.1621 382.3773,77.2081 C384.6233,76.3241 386.7973,74.9621 388.8983,73.1201 C389.4373,72.6471 390.2563,72.6971 390.7283,73.2331 C390.7843,73.2961 390.8333,73.3661 390.8763,73.4401 L392.7313,76.6511 C393.0873,77.2691 387.5783,79.6261 386.1313,80.4621" id="Fill-19" stroke="none" fill="#F7F7F7" fill-rule="evenodd"></path>
                        <path d="M360.021,108.9308 C360.519,103.6888 367.15,99.9428 370.763,93.8518 C372.946,90.1718 374.606,86.5418 375.746,82.9618 C375.953,82.3118 376.558,81.8728 377.24,81.8778 C380.968,81.9098 384.216,81.3808 386.983,80.2928 C389.531,79.2908 391.997,77.7498 394.381,75.6698 C395.028,75.1048 396.01,75.1718 396.575,75.8188 C396.64,75.8948 396.699,75.9768 396.75,76.0638 L406.151,92.3468 C406.58,93.0908 406.326,94.0408 405.582,94.4708 L365.264,117.7478 C364.653,118.1018 363.88,117.9978 363.383,117.4968 C360.842,114.9368 359.721,112.0808 360.021,108.9308 Z" id="Stroke-21" stroke="#F7F7F7" stroke-width="3.186" fill="none"></path>
                        <path d="M389.7378,68.466 L389.7318,68.457 C389.7338,68.46 389.7358,68.463 389.7378,68.466 Z M394.0378,74.655 L389.8058,68.574 C387.2988,70.757 384.6878,72.385 381.9738,73.452 C379.0118,74.617 375.5738,75.178 371.6638,75.149 C370.4868,78.84 368.7778,82.57 366.5418,86.342 C365.6958,87.768 364.6718,89.127 363.3738,90.612 C362.9318,91.116 362.4668,91.628 361.9078,92.227 C361.5828,92.574 360.4598,93.764 360.4818,93.74 C357.3708,97.045 356.2048,98.77 356.0148,100.759 C355.7648,103.394 356.6838,105.77 358.8568,107.987" id="Stroke-23" stroke="#F7F7F7" stroke-width="3.186" fill="none"></path>
                        <path d="M48.98,221.3762 L69.723,209.4002 C74.409,206.6942 80.378,207.9442 83.585,212.3032 L93.577,225.8782 C95.245,228.1462 94.759,231.3372 92.492,233.0052 C92.34,233.1172 92.182,233.2202 92.019,233.3142 L58.543,252.6432 C56.104,254.0502 52.987,253.2152 51.58,250.7762 C51.485,250.6132 51.4,250.4452 51.325,250.2722 L44.563,234.8322 C42.392,229.8762 44.294,224.0812 48.98,221.3762 Z" id="Stroke-25" stroke="#F7F7F7" stroke-width="3.186" fill="none"></path>
                        <path d="M54.7514,222.8254 L68.0934,215.1234 C72.7484,212.4344 78.6794,213.6504 81.9014,217.9534 L87.0444,224.8174 C88.7324,227.0714 88.2734,230.2654 86.0214,231.9534 C85.8584,232.0754 85.6894,232.1864 85.5134,232.2884 L60.9064,246.4954 C58.4694,247.9024 55.3514,247.0674 53.9434,244.6294 C53.8424,244.4534 53.7514,244.2724 53.6714,244.0864 L50.2974,236.1994 C48.1834,231.2574 50.0954,225.5134 54.7514,222.8254" id="Fill-27" stroke="none" fill="#F7F7F7" fill-rule="evenodd"></path>
                        <path d="M53.7241,228.1515 L73.9561,216.4695 L71.0941,211.5115 C67.6521,205.5485 60.3311,203.3705 54.7621,206.5865 C49.1921,209.8015 47.4191,217.2305 50.8621,223.1935 L53.7241,228.1515 Z" id="Stroke-29" stroke="#F7F7F7" stroke-width="3.186" fill="none"></path>
                        <path d="M55.853,231.9142 L75.687,220.4632 L77.722,223.9882 C79.921,227.7982 78.616,232.6692 74.807,234.8682 L68.768,238.3542 C64.958,240.5552 60.087,239.2492 57.888,235.4392 L55.853,231.9142 Z" id="Stroke-31" stroke="#FFFFFF" stroke-width="3.186" fill="none" stroke-linecap="round" stroke-linejoin="round"></path>
                        <path d="M218.7964,133.1418 C224.2664,129.9838 232.2664,143.8398 237.7344,140.6828 C243.2034,137.5258 235.2034,123.6688 240.6734,120.5108 C246.1434,117.3528 254.1434,131.2088 259.6134,128.0508 C265.0864,124.8908 257.0864,111.0358 262.5594,107.8748 C268.0294,104.7168 276.0294,118.5738 281.5004,115.4148 C286.9744,112.2538 278.9744,98.3978 284.4484,95.2378 C289.9234,92.0768 297.9234,105.9328 303.3984,102.7718" id="Stroke-33" stroke="#F7F7F7" stroke-width="6.372" fill="none" stroke-linecap="round"></path>
                        <path d="M647.6001,431.6369 C653.0701,428.4799 661.0701,442.3359 666.5381,439.1779 C672.0071,436.0209 664.0071,422.1639 669.4771,419.0069 C674.9471,415.8479 682.9471,429.7039 688.4171,426.5459 C693.8901,423.3869 685.8901,409.5309 691.3631,406.3709 C696.8331,403.2119 704.8331,417.0689 710.3041,413.9099 C715.7791,410.7489 707.7791,396.8929 713.2521,393.7329 C718.7271,390.5719 726.7271,404.4279 732.2021,401.2679" id="Stroke-35" stroke="#F7F7F7" stroke-width="6.372" fill="none" stroke-linecap="round"></path>
                        <path d="M61.9487,48.2971 C67.4177,45.1391 75.4177,58.9961 80.8867,55.8391 C86.3557,52.6811 78.3557,38.8241 83.8247,35.6671 C89.2957,32.5081 97.2957,46.3651 102.7657,43.2061 C108.2377,40.0471 100.2377,26.1911 105.7107,23.0311 C111.1807,19.8721 119.1807,33.7291 124.6517,30.5701 C130.1267,27.4101 122.1267,13.5531 127.6007,10.3931 C133.0757,7.2321 141.0757,21.0891 146.5497,17.9281" id="Stroke-37" stroke="#F7F7F7" stroke-width="6.372" fill="none" stroke-linecap="round"></path>
                        <path d="M613.1118,282.8342 L628.6668,287.0022 C630.8488,287.5872 631.5808,290.3152 629.9818,291.9142 L618.5948,303.3012 L607.2088,314.6882 C605.6108,316.2862 602.8818,315.5552 602.2968,313.3712 L598.1288,297.8162 L593.9608,282.2622 C593.3758,280.0792 595.3738,278.0812 597.5558,278.6662 L613.1118,282.8342 Z" id="Stroke-39" stroke="#F7F7F7" stroke-width="6.372" fill="none" stroke-linecap="round"></path>
                        <path d="M348.7183,435.6476 C353.5563,444.0286 364.2733,446.8996 372.6543,442.0606 C381.0343,437.2226 383.9063,426.5056 379.0673,418.1256 C374.2293,409.7446 363.5123,406.8736 355.1313,411.7116 C346.7503,416.5496 343.8793,427.2666 348.7183,435.6476 Z" id="Stroke-41" stroke="#F7F7F7" stroke-width="6.372" fill="none"></path>
                        <path d="M72.8882,337.425 C77.7262,345.806 88.4432,348.678 96.8242,343.839 C105.2042,339 108.0762,328.284 103.2382,319.904 C98.3992,311.523 87.6822,308.651 79.3012,313.489 C70.9202,318.328 68.0492,329.045 72.8882,337.425 Z" id="Stroke-43" stroke="#F7F7F7" stroke-width="6.372" fill="none"></path>
                        <path d="M628.0366,113.1193 C630.5796,117.5223 636.2106,119.0313 640.6136,116.4893 C645.0176,113.9463 646.5266,108.3153 643.9836,103.9123 C641.4416,99.5083 635.8096,97.9993 631.4066,100.5423 C627.0036,103.0843 625.4946,108.7153 628.0366,113.1193 Z" id="Stroke-45" stroke="#F7F7F7" stroke-width="6.372" fill="none"></path>
                        <path d="M117.8081,440.1984 C120.3511,444.6014 125.9821,446.1104 130.3851,443.5674 C134.7891,441.0254 136.2981,435.3944 133.7551,430.9914 C131.2131,426.5874 125.5821,425.0784 121.1781,427.6214 C116.7751,430.1634 115.2661,435.7944 117.8081,440.1984 Z" id="Stroke-47" stroke="#F7F7F7" stroke-width="6.372" fill="none"></path>
                        <path d="M19.6079,301.6594 C22.1499,306.0634 27.7809,307.5724 32.1849,305.0294 C36.5879,302.4874 38.0969,296.8564 35.5539,292.4524 C33.0119,288.0494 27.3809,286.5404 22.9779,289.0834 C18.5739,291.6254 17.0649,297.2564 19.6079,301.6594 Z" id="Stroke-49" stroke="#F7F7F7" stroke-width="6.372" fill="none"></path>
                        <path d="M343.2378,272.0764 C345.7798,276.4794 351.4108,277.9884 355.8148,275.4464 C360.2178,272.9034 361.7268,267.2724 359.1848,262.8694 C356.6418,258.4664 351.0108,256.9574 346.6078,259.4994 C342.2038,262.0424 340.6948,267.6734 343.2378,272.0764 Z" id="Stroke-51" stroke="#F7F7F7" stroke-width="6.372" fill="none"></path>
                        <path d="M707.4233,59.9836 C715.8043,55.1446 718.6753,44.4286 713.8363,36.0476 C708.9983,27.6676 698.2813,24.7956 689.9013,29.6336" id="Stroke-53" stroke="#F7F7F7" stroke-width="6.372" fill="none" stroke-linecap="round"></path>
                        <path d="M174.2046,382.7072 C182.5856,377.8692 185.4576,367.1522 180.6186,358.7712 C175.7796,350.3912 165.0636,347.5192 156.6836,352.3582" id="Stroke-55" stroke="#F7F7F7" stroke-width="6.372" fill="none" stroke-linecap="round"></path>
                        <path d="M254.7983,219.0832 L250.6303,234.6382 C250.0453,236.8202 252.0433,238.8182 254.2263,238.2332 L269.7803,234.0652 L285.3353,229.8972 C287.5193,229.3122 288.2503,226.5842 286.6523,224.9852 L275.2653,213.5992 L263.8783,202.2122 C262.2793,200.6132 259.5513,201.3452 258.9663,203.5272 L254.7983,219.0832 Z" id="Stroke-57" stroke="#F7F7F7" stroke-width="6.372" fill="none" stroke-linecap="round"></path>
                        <path d="M431.0444,257.2531 L431.3084,257.7111 C431.6754,258.3471 431.4574,259.1591 430.8214,259.5261 L415.9734,268.1001 C415.3374,268.4661 414.5244,268.2481 414.1574,267.6121 L413.8944,267.1551 C413.5264,266.5201 413.7444,265.7071 414.3804,265.3401 L429.2294,256.7671 C429.8644,256.4001 430.6774,256.6181 431.0444,257.2531" id="Fill-59" stroke="none" fill="#F7F7F7" fill-rule="evenodd"></path>
                        <path d="M437.7759,224.7355 C439.8399,225.5005 440.8939,227.7935 440.1299,229.8575 L438.5049,234.2485 C438.2299,234.9905 438.2999,235.8155 438.6959,236.5005 L447.9419,252.5155 C448.6759,253.7865 448.2409,255.4125 446.9689,256.1455 L419.5579,271.9715 C418.2869,272.7065 416.6619,272.2705 415.9269,270.9995 L406.4399,254.5665 C406.1389,254.0465 405.6719,253.6425 405.1109,253.4225 L399.3049,251.1385 C399.2909,251.1325 399.2769,251.1275 399.2629,251.1215 C397.2229,250.2935 396.2419,247.9665 397.0709,245.9275 L401.6149,234.7475 C401.6829,234.5805 401.7669,234.4205 401.8679,234.2705 C402.6829,233.0495 404.3339,232.7215 405.5539,233.5375 L405.5529,233.5375 C409.1459,235.9375 412.7979,235.7965 416.5109,233.1105 C419.9359,230.6345 421.5829,227.7135 421.4509,224.3445 C421.4409,224.1065 421.4639,223.8685 421.5179,223.6365 C421.8519,222.2075 423.2809,221.3195 424.7109,221.6535 L437.2979,224.5915 C437.4609,224.6305 437.6199,224.6775 437.7759,224.7355 Z" id="Stroke-61" stroke="#F7F7F7" stroke-width="3.186" fill="none"></path>
                        <path d="M435.4116,228.3342 C437.0616,228.9442 437.9046,230.7772 437.2936,232.4282 L435.8816,236.2432 C435.6616,236.8362 435.7176,237.4952 436.0336,238.0422 L443.2426,250.5292 C444.1226,252.0532 443.5996,254.0012 442.0766,254.8812 L421.0076,267.0452 C419.4836,267.9252 417.5346,267.4032 416.6556,265.8792 L409.2516,253.0552 C409.0116,252.6392 408.6366,252.3162 408.1886,252.1412 L403.2236,250.1872 C403.2116,250.1832 403.2006,250.1782 403.1886,250.1742 C401.5586,249.5112 400.7746,247.6522 401.4366,246.0222 L405.2976,236.5252 C405.3536,236.3872 405.4246,236.2552 405.5086,236.1312 C406.1676,235.1612 407.4886,234.9092 408.4586,235.5682 C411.4646,237.6112 414.5216,237.5092 417.6296,235.2622 C420.5036,233.1842 421.8686,230.7292 421.7276,227.8962 C421.7186,227.6972 421.7356,227.4992 421.7806,227.3072 C422.0476,226.1642 423.1896,225.4542 424.3316,225.7222 L435.0296,228.2192 C435.1596,228.2492 435.2866,228.2872 435.4116,228.3342" id="Fill-63" stroke="none" fill="#F7F7F7" fill-rule="evenodd"></path>
                        <path d="M613.1323,21.8044 L637.2613,50.1104 C637.2883,50.1434 637.3153,50.1774 637.3393,50.2124 C637.7473,50.8004 637.6013,51.6084 637.0133,52.0154 L622.9973,61.7344 C622.4773,62.0954 621.7723,62.0264 621.3293,61.5714 L621.3303,61.5714 C613.3193,53.3194 608.7553,49.5114 607.6393,50.1474 C606.5233,50.7834 607.5593,56.6094 610.7483,67.6234 C610.9223,68.2224 610.6443,68.8604 610.0863,69.1404 L595.1313,76.6634 C595.0903,76.6834 595.0483,76.7024 595.0053,76.7184 C594.3353,76.9704 593.5883,76.6314 593.3363,75.9614 L580.1483,40.8754 C579.9253,40.2814 580.1643,39.6144 580.7133,39.2974 L611.4983,21.5224 C612.0403,21.2104 612.7273,21.3284 613.1323,21.8044 Z" id="Stroke-65" stroke="#F7F7F7" stroke-width="3.186" fill="none" stroke-linejoin="round"></path>
                        <path d="M612.0571,26.717 L631.4771,49.5 C631.5041,49.532 631.5311,49.567 631.5551,49.602 C631.9631,50.19 631.8171,50.997 631.2291,51.404 L620.1561,59.083 C619.6351,59.444 618.9301,59.375 618.4891,58.921 C612.0291,52.277 608.3461,49.213 607.4401,49.729 C606.5341,50.245 607.3631,54.943 609.9261,63.821 C610.0991,64.421 609.8211,65.058 609.2641,65.339 L597.4541,71.279 C597.4131,71.3 597.3711,71.318 597.3281,71.334 C596.6591,71.586 595.9111,71.247 595.6601,70.577 L585.0451,42.34 C584.8221,41.746 585.0611,41.079 585.6101,40.761 L610.4231,26.436 C610.9641,26.123 611.6521,26.241 612.0571,26.717" id="Fill-67" stroke="none" fill="#F7F7F7" fill-rule="evenodd"></path>
                        <polygon id="Fill-69" stroke="none" fill="#F7F7F7" fill-rule="evenodd" points="618.4585 28.3879 583.5105 48.5649 581.9175 45.8059 616.8655 25.6289"></polygon>
                        <path d="M498.0933,404.0246 C498.2883,404.7106 497.9923,405.4406 497.3753,405.7966 L462.4223,425.9766 C461.6783,426.4066 460.7273,426.1516 460.2983,425.4086 L452.2933,411.5446 C452.2453,411.4606 452.2053,411.3726 452.1733,411.2816 C451.8893,410.4716 452.3153,409.5846 453.1253,409.2996 C455.6523,408.4126 457.8253,407.2436 459.6483,405.7926 C461.6533,404.1956 463.4493,402.0066 465.0403,399.2276 C465.3763,398.6396 466.0553,398.3376 466.7173,398.4796 C469.8893,399.1616 473.3193,399.4816 477.0063,399.4376 C483.1973,399.3656 488.9343,395.9816 493.1213,397.8966 C495.5933,399.0266 497.2503,401.0686 498.0933,404.0246" id="Fill-71" stroke="none" fill="#F7F7F7" fill-rule="evenodd"></path>
                        <path d="M450.1313,406.6076 L448.2773,403.3956 C448.2353,403.3226 448.1993,403.2446 448.1723,403.1646 C447.9443,402.4886 448.3113,401.7536 448.9893,401.5226 C451.6353,400.6246 453.9023,399.4226 455.7903,397.9196 C457.8313,396.2946 459.6573,394.0536 461.2703,391.2016 C461.5513,390.7026 462.1263,390.4456 462.6853,390.5686 C465.9043,391.2776 469.3933,391.6096 473.1493,391.5656 C479.3403,391.4926 485.0753,388.1086 489.2633,390.0236 C491.7953,391.1806 492.9053,391.6956 493.7283,394.7676 C493.8793,395.3336 489.8673,393.7726 489.3583,394.0676 C477.7203,395.4776 470.5943,395.9986 467.9783,395.6276 C465.3623,395.2566 463.8393,395.0036 463.4083,394.8676 C459.9223,399.5966 457.6963,402.2406 456.7313,402.7976 C455.2833,403.6326 450.4873,407.2256 450.1313,406.6076" id="Fill-73" stroke="none" fill="#F7F7F7" fill-rule="evenodd"></path>
                        <path d="M500.1792,401.6144 C500.3652,402.2964 500.0682,403.0154 499.4562,403.3694 L459.1382,426.6464 C458.3952,427.0764 457.4442,426.8214 457.0142,426.0774 L447.6142,409.7944 C447.5632,409.7074 447.5212,409.6154 447.4892,409.5204 C447.2102,408.7084 447.6442,407.8244 448.4562,407.5464 C451.4502,406.5214 454.0172,405.1564 456.1592,403.4504 C458.4852,401.5984 460.5662,399.0504 462.4042,395.8054 C462.7402,395.2134 463.4232,394.9074 464.0892,395.0524 C467.7592,395.8564 471.7342,396.2334 476.0112,396.1834 C483.0922,396.0994 489.6522,392.2304 494.4412,394.4204 C497.3202,395.7364 499.2322,398.1344 500.1792,401.6144 Z" id="Stroke-75" stroke="#F7F7F7" stroke-width="3.186" fill="none"></path>
                        <path d="M444.5347,399.9133 L444.5397,399.9233 C444.5377,399.9203 444.5367,399.9163 444.5347,399.9133 Z M494.2057,392.9403 C493.3717,389.9493 491.7737,387.9653 489.3667,386.8653 C487.5497,386.0343 485.4727,386.1833 481.0557,387.2243 C481.0867,387.2163 479.4957,387.5953 479.0317,387.7023 C478.2327,387.8873 477.5577,388.0343 476.9007,388.1643 C474.9667,388.5463 473.2757,388.7533 471.6187,388.7723 C467.2337,388.8233 463.1487,388.4373 459.3637,387.6113 C457.4337,391.0133 455.2287,393.7103 452.7397,395.6923 C450.4587,397.5093 447.7427,398.9563 444.5977,400.0363 L447.7497,406.7413" id="Stroke-77" stroke="#F7F7F7" stroke-width="3.186" fill="none"></path>
                        <path d="M626.8179,166.674 L636.8079,180.25 C636.9199,180.403 637.0229,180.56 637.1169,180.723 C638.5249,183.161 637.6889,186.278 635.2519,187.686 L601.7739,207.014 C601.6109,207.109 601.4429,207.194 601.2699,207.269 C598.6919,208.399 595.6849,207.224 594.5559,204.645 L587.7949,189.204 C585.6239,184.248 587.5269,178.453 592.2129,175.747 L612.9549,163.772 C617.6399,161.067 623.6109,162.317 626.8179,166.674 Z" id="Stroke-79" stroke="#F7F7F7" stroke-width="3.186" fill="none"></path>
                        <path d="M625.1343,172.3254 L630.2773,179.1894 C630.3983,179.3514 630.5093,179.5214 630.6113,179.6974 C632.0193,182.1354 631.1833,185.2534 628.7453,186.6604 L604.1383,200.8674 C603.9633,200.9694 603.7813,201.0594 603.5953,201.1384 C601.0063,202.2464 598.0113,201.0464 596.9043,198.4584 L593.5303,190.5714 C591.4143,185.6294 593.3273,179.8864 597.9833,177.1974 L611.3243,169.4954 C615.9813,166.8064 621.9103,168.0224 625.1343,172.3254" id="Fill-81" stroke="none" fill="#F7F7F7" fill-rule="evenodd"></path>
                        <path d="M613.5884,166.3107 C610.1464,160.3477 602.8244,158.1677 597.2554,161.3837 C591.6864,164.5997 589.9124,172.0287 593.3554,177.9917 L596.2174,182.9497 L616.4504,171.2677 L613.5884,166.3107 Z" id="Stroke-83" stroke="#F7F7F7" stroke-width="3.186" fill="none"></path>
                        <path d="M621.0464,177.884 C623.2454,181.694 621.9414,186.565 618.1314,188.764 L612.0924,192.251 C608.2824,194.45 603.4114,193.145 601.2124,189.335 L599.1774,185.81 L619.0114,174.359 L621.0464,177.884 Z" id="Stroke-85" stroke="#FFFFFF" stroke-width="3.186" fill="none" stroke-linecap="round" stroke-linejoin="round"></path>
                        <path d="M143.2182,281.7336 C141.6512,279.0176 142.5802,275.5466 145.2962,273.9776 C145.5172,273.8506 145.7422,273.7396 145.9722,273.6446 C143.5962,264.5926 147.4322,254.7166 155.9282,249.8116 C164.4232,244.9066 174.8952,246.5226 181.5452,253.1066 C181.7422,252.9556 181.9512,252.8146 182.1722,252.6876 C184.8872,251.1206 188.3602,252.0496 189.9272,254.7656 C191.3372,257.2076 189.7342,260.8346 187.4222,262.6806 C190.7532,271.6286 189.4172,281.2826 177.9282,287.9176 C166.4382,294.5506 157.4082,290.8796 151.3252,283.5206 C148.5712,284.5996 144.6272,284.1746 143.2182,281.7336 Z" id="Stroke-87" stroke="#F7F7F7" stroke-width="3" fill="none"></path>
                        <path d="M145.8911,280.4933 C144.5251,278.1263 145.3361,275.1003 147.7031,273.7343 C147.8951,273.6233 148.0911,273.5263 148.2911,273.4443 C146.2201,265.5563 149.5641,256.9503 156.9671,252.6763 C164.3701,248.4013 173.4951,249.8093 179.2901,255.5473 C179.4621,255.4153 179.6441,255.2933 179.8361,255.1813 C182.2031,253.8153 185.2291,254.6263 186.5951,256.9933 C187.8231,259.1203 186.4261,262.2803 184.4121,263.8893 C187.3141,271.6863 186.1511,280.0993 176.1381,285.8813 C166.1251,291.6623 158.2571,288.4633 152.9561,282.0513 C150.5551,282.9903 147.1201,282.6203 145.8911,280.4933" id="Fill-89" stroke="none" fill="#F7F7F7" fill-rule="evenodd"></path>
                        <path d="M174.9624,263.2092 L176.7404,266.2882 C177.0774,266.8732 176.8774,267.6202 176.2934,267.9582 L174.4964,268.9952 C173.9124,269.3322 173.1644,269.1322 172.8274,268.5472 L171.0494,265.4682 C170.7114,264.8842 170.9124,264.1362 171.4964,263.7992 L173.2934,262.7622 C173.8774,262.4242 174.6254,262.6242 174.9624,263.2092" id="Fill-91" stroke="none" fill="#F7F7F7" fill-rule="evenodd"></path>
                        <path d="M161.146,271.1867 L162.923,274.2657 C163.261,274.8497 163.061,275.5977 162.476,275.9347 L160.68,276.9717 C160.095,277.3097 159.347,277.1097 159.01,276.5247 L157.232,273.4457 C156.895,272.8607 157.095,272.1137 157.68,271.7757 L159.476,270.7387 C160.061,270.4017 160.808,270.6017 161.146,271.1867" id="Fill-93" stroke="none" fill="#F7F7F7" fill-rule="evenodd"></path>
                        <path d="M485.7017,290.5129 C480.2327,293.6699 472.2327,279.8139 466.7637,282.9719 C461.2947,286.1289 469.2947,299.9859 463.8257,303.1429 C458.3547,306.3019 450.3547,292.4459 444.8847,295.6039 C439.4117,298.7629 447.4117,312.6189 441.9387,315.7799 C436.4697,318.9379 428.4697,305.0809 422.9987,308.2399 C417.5237,311.4009 425.5237,325.2569 420.0497,328.4169 C414.5747,331.5779 406.5747,317.7219 401.0997,320.8819" id="Stroke-95" stroke="#F7F7F7" stroke-width="6.372" fill="none" stroke-linecap="round"></path>
                        <path d="M311.3208,294.7756 C305.8518,297.9336 297.8518,284.0776 292.3838,287.2346 C286.9138,290.3916 294.9138,304.2486 289.4448,307.4066 C283.9738,310.5646 275.9738,296.7086 270.5038,299.8666 C265.0318,303.0256 273.0318,316.8816 267.5588,320.0426 C262.0888,323.2006 254.0888,309.3436 248.6178,312.5026 C243.1428,315.6636 251.1428,329.5196 245.6688,332.6796 C240.1948,335.8406 232.1948,321.9846 226.7198,325.1446" id="Stroke-97" stroke="#F7F7F7" stroke-width="6.372" fill="none" stroke-linecap="round"></path>
                        <path d="M686.3472,122.0695 L682.1802,137.6245 C681.5952,139.8075 683.5922,141.8045 685.7762,141.2195 L701.3302,137.0525 L716.8852,132.8845 C719.0682,132.2995 719.7992,129.5705 718.2012,127.9725 L706.8142,116.5865 L695.4272,105.1995 C693.8292,103.6005 691.1002,104.3325 690.5152,106.5145 L686.3472,122.0695 Z" id="Stroke-99" stroke="#F7F7F7" stroke-width="6.372" fill="none" stroke-linecap="round"></path>
                        <path d="M685.395,295.759 C690.234,304.139 700.95,307.011 709.331,302.172 C717.711,297.333 720.583,286.617 715.745,278.237 C710.906,269.856 700.189,266.985 691.809,271.822 C683.428,276.661 680.556,287.378 685.395,295.759 Z" id="Stroke-101" stroke="#F7F7F7" stroke-width="6.372" fill="none"></path>
                        <path d="M504.6128,366.3576 C512.9938,361.5186 515.8648,350.8026 511.0268,342.4216 C506.1878,334.0416 495.4708,331.1696 487.0908,336.0076" id="Stroke-103" stroke="#F7F7F7" stroke-width="6.372" fill="none" stroke-linecap="round"></path>
                        <path d="M53.4175,381.4924 L77.5455,409.7984 C77.5735,409.8304 77.6005,409.8644 77.6245,409.9004 C78.0315,410.4884 77.8865,411.2954 77.2985,411.7034 L63.2825,421.4214 C62.7625,421.7824 62.0565,421.7144 61.6145,421.2594 C53.6045,413.0074 49.0405,409.1984 47.9245,409.8354 C46.8085,410.4714 47.8445,416.2974 51.0335,427.3104 C51.2065,427.9104 50.9285,428.5484 50.3705,428.8284 L35.4165,436.3504 C35.3755,436.3714 35.3335,436.3894 35.2905,436.4054 C34.6205,436.6574 33.8735,436.3184 33.6215,435.6484 L20.4335,400.5624 C20.2105,399.9694 20.4485,399.3024 20.9975,398.9844 L51.7835,381.2104 C52.3245,380.8974 53.0125,381.0154 53.4175,381.4924 Z" id="Stroke-105" stroke="#F7F7F7" stroke-width="3.186" fill="none" stroke-linejoin="round"></path>
                        <path d="M52.3423,386.4045 L71.7623,409.1865 C71.7893,409.2195 71.8163,409.2545 71.8403,409.2895 C72.2483,409.8775 72.1023,410.6845 71.5143,411.0915 L60.4413,418.7705 C59.9203,419.1315 59.2153,419.0625 58.7743,418.6085 C52.3143,411.9645 48.6303,408.9005 47.7253,409.4165 C46.8193,409.9325 47.6483,414.6305 50.2113,423.5085 C50.3843,424.1085 50.1063,424.7455 49.5493,425.0255 L37.7393,430.9665 C37.6983,430.9865 37.6553,431.0055 37.6133,431.0215 C36.9433,431.2735 36.1963,430.9345 35.9453,430.2645 L25.3293,402.0265 C25.1073,401.4335 25.3463,400.7655 25.8953,400.4495 L50.7083,386.1235 C51.2493,385.8105 51.9373,385.9285 52.3423,386.4045" id="Fill-107" stroke="none" fill="#F7F7F7" fill-rule="evenodd"></path>
                        <polygon id="Fill-109" stroke="none" fill="#F7F7F7" fill-rule="evenodd" points="58.7436 388.0754 23.7956 408.2524 22.2026 405.4934 57.1496 385.3164"></polygon>
                        <path d="M501.854,164.0412 L498.373,177.0312 C497.884,178.8542 499.552,180.5232 501.375,180.0342 L514.366,176.5542 L527.356,173.0732 C529.179,172.5852 529.791,170.3062 528.456,168.9712 L518.946,159.4622 L509.436,149.9522 C508.102,148.6172 505.823,149.2282 505.334,151.0512 L501.854,164.0412 Z" id="Stroke-111" stroke="#F7F7F7" stroke-width="6" fill="none" stroke-linecap="round"></path>
                        <path d="M735.2202,215.9621 C729.7502,219.1191 721.7502,205.2631 716.2822,208.4201 C710.8132,211.5781 718.8132,225.4351 713.3432,228.5921 C707.8732,231.7501 699.8732,217.8941 694.4032,221.0531 C688.9302,224.2121 696.9302,238.0681 691.4572,241.2281 C685.9872,244.3861 677.9872,230.5291 672.5162,233.6891 C667.0412,236.8491 675.0412,250.7051 669.5682,253.8661 C664.0932,257.0261 656.0932,243.1701 650.6182,246.3311" id="Stroke-113" stroke="#F7F7F7" stroke-width="6.372" fill="none" stroke-linecap="round"></path>
                        <path d="M227.8462,395.8224 L246.1662,427.5544 C247.4542,429.7854 246.6912,432.6384 244.4592,433.9264 L242.6222,434.9874 C240.3922,436.2754 237.5392,435.5114 236.2502,433.2824 L221.5682,407.8774 L233.0702,435.8314 C233.9592,437.9924 233.1132,440.4774 231.0882,441.6464 C229.0802,442.8054 226.5262,442.3144 225.0912,440.4934 L206.8142,417.2934 L221.0852,442.0384 C222.3712,444.2684 221.6072,447.1204 219.3762,448.4084 L217.5392,449.4684 C215.3082,450.7574 212.4552,449.9934 211.1662,447.7614 L192.8462,416.0294 C190.3432,411.6944 191.8282,406.1504 196.1632,403.6474 L196.2302,403.6094 C200.1562,401.3434 205.1472,402.3224 207.9242,405.9054 C208.4972,406.6434 209.0872,407.4094 209.6932,408.2014 L217.7092,418.3684 L211.6352,403.8524 C209.8752,399.6444 211.5152,394.7854 215.4652,392.5044 C219.8002,390.0024 225.3432,391.4864 227.8462,395.8224" id="Fill-115" stroke="none" fill="#F7F7F7" fill-rule="evenodd"></path>
                        <path d="M242.4858,384.466 L261.1218,416.745 C262.9298,419.877 261.8568,423.883 258.7238,425.691 C255.5918,427.499 251.5868,426.426 249.7778,423.294 L231.1418,391.016 C229.3338,387.883 230.4068,383.878 233.5398,382.07 C236.6718,380.261 240.6768,381.334 242.4858,384.466" id="Fill-117" stroke="none" fill="#F7F7F7" fill-rule="evenodd"></path>
                        <path d="M271.8296,366.2853 L291.5386,400.4233 C293.0516,403.0423 292.1536,406.3903 289.5346,407.9023 L287.8706,408.8633 C285.7726,410.0743 283.1286,409.7633 281.3686,408.0983 L266.9846,394.4813 L275.6956,409.5693 C277.2076,412.1883 276.3106,415.5373 273.6916,417.0503 C271.0726,418.5613 267.7246,417.6643 266.2116,415.0453 L246.5026,380.9073 C244.9896,378.2893 245.8876,374.9393 248.5066,373.4283 L249.7996,372.6813 C251.8556,371.4943 254.4426,371.7673 256.2056,373.3583 L270.9476,386.6603 L262.3456,371.7613 C260.8336,369.1413 261.7296,365.7933 264.3496,364.2813 C266.9686,362.7683 270.3166,363.6663 271.8296,366.2853" id="Fill-119" stroke="none" fill="#F7F7F7" fill-rule="evenodd"></path>
                        <path d="M288.2632,358.0363 L306.8992,390.3153 C308.7072,393.4473 307.6342,397.4533 304.5012,399.2623 C301.3692,401.0693 297.3642,399.9973 295.5552,396.8643 L276.9192,364.5863 C275.1112,361.4533 276.1842,357.4483 279.3172,355.6403 C282.4492,353.8313 286.4542,354.9043 288.2632,358.0363" id="Fill-121" stroke="none" fill="#F7F7F7" fill-rule="evenodd"></path>
                        <path d="M324.4302,329.5432 C327.5632,327.7342 331.5682,328.8082 333.3762,331.9392 L346.9332,355.4212 C348.8412,358.7272 350.0752,361.1102 350.6312,362.5732 C351.1882,364.0352 351.3442,365.7772 351.0982,367.8002 C350.8532,369.8222 350.0732,371.6962 348.7592,373.4252 C347.4472,375.1532 345.6132,376.6962 343.2602,378.0552 C340.6562,379.5592 338.1072,380.4552 335.6162,380.7442 C333.1242,381.0332 330.9862,380.7722 329.1992,379.9582 C327.4122,379.1462 325.9862,378.0232 324.9192,376.5912 C323.8532,375.1592 321.8992,371.9822 319.0582,367.0612 L307.4292,346.9202 C305.6212,343.7882 306.6942,339.7822 309.8262,337.9742 C312.9592,336.1652 316.9642,337.2382 318.7732,340.3712 L334.3832,367.4092 C335.4832,369.3142 336.2882,370.4712 336.8012,370.8812 C337.3132,371.2922 337.8842,371.3152 338.5132,370.9522 C339.2312,370.5382 339.5252,369.9792 339.3952,369.2752 C339.2642,368.5732 338.5722,367.1352 337.3172,364.9612 L322.0332,338.4892 C320.2242,335.3562 321.2972,331.3522 324.4302,329.5432" id="Fill-123" stroke="none" fill="#F7F7F7" fill-rule="evenodd"></path>
                        <path d="M387.9116,155.1057 L406.2326,186.8377 C407.5206,189.0697 406.7566,191.9227 404.5246,193.2107 L402.6876,194.2717 C400.4576,195.5597 397.6056,194.7957 396.3166,192.5657 L381.6346,167.1617 L393.1366,195.1157 C394.0256,197.2767 393.1786,199.7617 391.1546,200.9307 C389.1466,202.0897 386.5926,201.5987 385.1576,199.7777 L366.8806,176.5777 L381.1506,201.3217 C382.4376,203.5527 381.6736,206.4047 379.4426,207.6927 L377.6056,208.7527 C375.3746,210.0417 372.5206,209.2767 371.2326,207.0447 L352.9126,175.3127 C350.4096,170.9777 351.8946,165.4347 356.2296,162.9317 L356.2956,162.8937 C360.2226,160.6267 365.2126,161.6057 367.9906,165.1887 C368.5636,165.9277 369.1526,166.6937 369.7596,167.4857 L377.7746,177.6517 L371.7016,163.1357 C369.9406,158.9287 371.5816,154.0687 375.5306,151.7887 C379.8656,149.2857 385.4096,150.7707 387.9116,155.1057" id="Fill-125" stroke="none" fill="#F7F7F7" fill-rule="evenodd"></path>
                        <path d="M402.5513,143.7502 L421.1883,176.0282 C422.9963,179.1612 421.9233,183.1662 418.7903,184.9752 C415.6573,186.7832 411.6533,185.7102 409.8443,182.5782 L391.2083,150.2992 C389.4003,147.1672 390.4733,143.1612 393.6053,141.3532 C396.7383,139.5452 400.7423,140.6182 402.5513,143.7502" id="Fill-127" stroke="none" fill="#F7F7F7" fill-rule="evenodd"></path>
                        <path d="M431.895,125.5695 L451.605,159.7075 C453.117,162.3255 452.219,165.6745 449.601,167.1865 L447.937,168.1475 C445.839,169.3585 443.194,169.0475 441.435,167.3825 L427.05,153.7645 L435.762,168.8535 C437.274,171.4725 436.376,174.8215 433.757,176.3335 C431.139,177.8455 427.79,176.9485 426.278,174.3295 L406.569,140.1915 C405.056,137.5725 405.954,134.2235 408.573,132.7125 L409.866,131.9655 C411.921,130.7785 414.509,131.0515 416.272,132.6415 L431.014,145.9445 L422.412,131.0455 C420.899,128.4255 421.796,125.0775 424.416,123.5645 C427.035,122.0525 430.383,122.9505 431.895,125.5695" id="Fill-129" stroke="none" fill="#F7F7F7" fill-rule="evenodd"></path>
                        <path d="M448.3286,117.3205 L466.9656,149.5985 C468.7726,152.7315 467.7006,156.7365 464.5676,158.5455 C461.4346,160.3535 457.4306,159.2805 455.6216,156.1485 L436.9856,123.8695 C435.1776,120.7375 436.2506,116.7315 439.3826,114.9245 C442.5156,113.1155 446.5196,114.1885 448.3286,117.3205" id="Fill-131" stroke="none" fill="#F7F7F7" fill-rule="evenodd"></path>
                        <path d="M484.4966,88.8264 C487.6286,87.0174 491.6346,88.0914 493.4426,91.2234 L506.9996,114.7054 C508.9076,118.0104 510.1406,120.3944 510.6976,121.8564 C511.2546,123.3194 511.4096,125.0614 511.1646,127.0844 C510.9196,129.1054 510.1396,130.9804 508.8256,132.7094 C507.5126,134.4374 505.6796,135.9804 503.3256,137.3394 C500.7216,138.8434 498.1736,139.7394 495.6826,140.0284 C493.1896,140.3174 491.0516,140.0554 489.2656,139.2424 C487.4776,138.4304 486.0526,137.3074 484.9856,135.8754 C483.9196,134.4434 481.9656,131.2664 479.1236,126.3454 L467.4956,106.2044 C465.6866,103.0714 466.7606,99.0664 469.8926,97.2584 C473.0246,95.4494 477.0306,96.5224 478.8396,99.6554 L494.4496,126.6934 C495.5486,128.5974 496.3546,129.7554 496.8666,130.1654 C497.3796,130.5754 497.9496,130.5994 498.5786,130.2364 C499.2976,129.8214 499.5916,129.2634 499.4606,128.5594 C499.3306,127.8574 498.6386,126.4184 497.3836,124.2454 L482.0996,97.7724 C480.2906,94.6404 481.3636,90.6354 484.4966,88.8264" id="Fill-133" stroke="none" fill="#F7F7F7" fill-rule="evenodd"></path>
                        <path d="M36.2153,133.9289 L54.5363,165.6609 C55.8243,167.8929 55.0603,170.7459 52.8283,172.0339 L50.9913,173.0949 C48.7613,174.3829 45.9093,173.6189 44.6203,171.3889 L29.9383,145.9849 L41.4403,173.9389 C42.3293,176.0999 41.4823,178.5849 39.4583,179.7539 C37.4503,180.9129 34.8963,180.4219 33.4613,178.6009 L15.1843,155.4009 L29.4543,180.1449 C30.7413,182.3759 29.9773,185.2279 27.7463,186.5159 L25.9083,187.5759 C23.6783,188.8649 20.8243,188.0999 19.5363,185.8679 L1.2153,154.1359 C-1.2867,149.8009 0.1983,144.2579 4.5333,141.7549 L4.5993,141.7169 C8.5263,139.4499 13.5163,140.4289 16.2943,144.0119 C16.8673,144.7509 17.4563,145.5169 18.0623,146.3089 L26.0783,156.4749 L20.0053,141.9589 C18.2443,137.7519 19.8853,132.8919 23.8343,130.6119 C28.1693,128.1089 33.7123,129.5939 36.2153,133.9289" id="Fill-135" stroke="none" fill="#F7F7F7" fill-rule="evenodd"></path>
                        <path d="M50.855,122.5734 L69.492,154.8514 C71.299,157.9844 70.226,161.9894 67.094,163.7984 C63.961,165.6064 59.957,164.5334 58.148,161.4014 L39.512,129.1224 C37.704,125.9904 38.777,121.9844 41.909,120.1764 C45.042,118.3684 49.046,119.4404 50.855,122.5734" id="Fill-137" stroke="none" fill="#F7F7F7" fill-rule="evenodd"></path>
                        <path d="M80.1987,104.3928 L99.9087,138.5308 C101.4207,141.1488 100.5227,144.4978 97.9037,146.0098 L96.2407,146.9708 C94.1417,148.1818 91.4977,147.8708 89.7387,146.2058 L75.3537,132.5878 L84.0657,147.6768 C85.5777,150.2958 84.6797,153.6448 82.0607,155.1568 C79.4417,156.6688 76.0937,155.7718 74.5817,153.1528 L54.8717,119.0148 C53.3597,116.3958 54.2577,113.0468 56.8767,111.5358 L58.1697,110.7888 C60.2247,109.6018 62.8117,109.8748 64.5757,111.4648 L79.3167,124.7678 L70.7157,109.8688 C69.2027,107.2488 70.0997,103.9008 72.7197,102.3878 C75.3387,100.8758 78.6867,101.7738 80.1987,104.3928" id="Fill-139" stroke="none" fill="#F7F7F7" fill-rule="evenodd"></path>
                        <path d="M96.6323,96.1437 L115.2683,128.4217 C117.0763,131.5547 116.0033,135.5597 112.8713,137.3687 C109.7383,139.1767 105.7343,138.1037 103.9253,134.9717 L85.2893,102.6927 C83.4813,99.5607 84.5543,95.5547 87.6863,93.7477 C90.8193,91.9387 94.8233,93.0117 96.6323,96.1437" id="Fill-141" stroke="none" fill="#F7F7F7" fill-rule="evenodd"></path>
                        <path d="M132.8003,67.6501 C135.9323,65.8411 139.9383,66.9151 141.7453,70.0471 L155.3033,93.5281 C157.2113,96.8331 158.4443,99.2181 159.0003,100.6801 C159.5583,102.1431 159.7133,103.8851 159.4683,105.9071 C159.2223,107.9291 158.4433,109.8041 157.1293,111.5321 C155.8163,113.2601 153.9833,114.8041 151.6293,116.1621 C149.0253,117.6661 146.4773,118.5631 143.9863,118.8521 C141.4933,119.1411 139.3553,118.8791 137.5683,118.0661 C135.7813,117.2531 134.3553,116.1311 133.2893,114.6981 C132.2233,113.2671 130.2693,110.0891 127.4273,105.1681 L115.7993,85.0271 C113.9903,81.8951 115.0643,77.8901 118.1963,76.0811 C121.3283,74.2731 125.3343,75.3461 127.1423,78.4791 L142.7533,105.5171 C143.8523,107.4201 144.6583,108.5781 145.1703,108.9881 C145.6833,109.3991 146.2533,109.4231 146.8823,109.0601 C147.6013,108.6451 147.8953,108.0861 147.7643,107.3831 C147.6343,106.6811 146.9413,105.2411 145.6863,103.0681 L130.4033,76.5961 C128.5943,73.4631 129.6673,69.4581 132.8003,67.6501" id="Fill-143" stroke="none" fill="#F7F7F7" fill-rule="evenodd"></path>
                        <path d="M464.1685,26.5231 L460.0005,42.0781 C459.4155,44.2611 461.4135,46.2581 463.5965,45.6731 L479.1505,41.5051 L494.7055,37.3381 C496.8895,36.7531 497.6195,34.0241 496.0225,32.4261 L484.6355,21.0391 L473.2485,9.6521 C471.6495,8.0541 468.9215,8.7851 468.3365,10.9681 L464.1685,26.5231 Z" id="Stroke-145" stroke="#F7F7F7" stroke-width="6.372" fill="none" stroke-linecap="round"></path>
                        <path d="M38.0845,15.5104 C42.9235,23.8914 40.0525,34.6074 31.6715,39.4464 C23.2905,44.2844 12.5735,41.4134 7.7355,33.0324 C2.8965,24.6524 5.7685,13.9354 14.1485,9.0964 C22.5295,4.2584 33.2465,7.1294 38.0845,15.5104 Z" id="Stroke-147" stroke="#F7F7F7" stroke-width="6.372" fill="none"></path>
                        <path d="M578.8843,385.7043 L597.2043,417.4363 C598.4923,419.6683 597.7283,422.5213 595.4973,423.8093 L593.6593,424.8703 C591.4293,426.1583 588.5773,425.3943 587.2883,423.1643 L572.6063,397.7603 L584.1083,425.7143 C584.9973,427.8753 584.1503,430.3603 582.1263,431.5293 C580.1183,432.6883 577.5643,432.1973 576.1293,430.3763 L557.8523,407.1763 L572.1233,431.9203 C573.4093,434.1513 572.6453,437.0033 570.4143,438.2913 L568.5773,439.3513 C566.3463,440.6403 563.4923,439.8753 562.2043,437.6443 L543.8843,405.9123 C541.3813,401.5763 542.8663,396.0333 547.2013,393.5303 L547.2673,393.4923 C551.1943,391.2253 556.1843,392.2053 558.9623,395.7873 C559.5353,396.5263 560.1243,397.2923 560.7313,398.0843 L568.7473,408.2503 L562.6733,393.7353 C560.9123,389.5273 562.5533,384.6673 566.5023,382.3873 C570.8373,379.8843 576.3813,381.3693 578.8843,385.7043" id="Fill-149" stroke="none" fill="#F7F7F7" fill-rule="evenodd"></path>
                        <path d="M593.5229,374.3488 L612.1599,406.6268 C613.9679,409.7598 612.8949,413.7648 609.7619,415.5738 C606.6299,417.3818 602.6249,416.3088 600.8159,413.1768 L582.1799,380.8978 C580.3719,377.7658 581.4449,373.7598 584.5779,371.9528 C587.7099,370.1438 591.7149,371.2168 593.5229,374.3488" id="Fill-151" stroke="none" fill="#F7F7F7" fill-rule="evenodd"></path>
                        <path d="M622.8677,356.1682 L642.5767,390.3062 C644.0887,392.9252 643.1917,396.2732 640.5727,397.7852 L638.9087,398.7462 C636.8107,399.9572 634.1667,399.6462 632.4067,397.9812 L618.0217,384.3642 L626.7337,399.4522 C628.2457,402.0712 627.3477,405.4202 624.7297,406.9332 C622.1107,408.4442 618.7617,407.5472 617.2497,404.9282 L597.5407,370.7902 C596.0277,368.1712 596.9257,364.8222 599.5447,363.3112 L600.8377,362.5642 C602.8937,361.3772 605.4807,361.6502 607.2437,363.2412 L621.9857,376.5432 L613.3837,361.6442 C611.8707,359.0242 612.7677,355.6762 615.3877,354.1632 C618.0067,352.6512 621.3547,353.5492 622.8677,356.1682" id="Fill-153" stroke="none" fill="#F7F7F7" fill-rule="evenodd"></path>
                        <path d="M639.3003,347.9191 L657.9373,380.1981 C659.7453,383.3301 658.6723,387.3361 655.5393,389.1441 C652.4073,390.9521 648.4023,389.8791 646.5933,386.7471 L627.9573,354.4691 C626.1493,351.3361 627.2223,347.3311 630.3553,345.5231 C633.4873,343.7141 637.4923,344.7871 639.3003,347.9191" id="Fill-155" stroke="none" fill="#F7F7F7" fill-rule="evenodd"></path>
                        <path d="M675.4683,319.426 C678.6003,317.617 682.6063,318.691 684.4143,321.822 L697.9713,345.304 C699.8793,348.61 701.1133,350.993 701.6693,352.455 C702.2263,353.918 702.3823,355.66 702.1363,357.683 C701.8913,359.705 701.1113,361.579 699.7973,363.308 C698.4843,365.036 696.6513,366.579 694.2983,367.938 C691.6943,369.442 689.1453,370.338 686.6543,370.627 C684.1613,370.916 682.0233,370.655 680.2373,369.841 C678.4493,369.029 677.0243,367.906 675.9573,366.474 C674.8913,365.042 672.9373,361.865 670.0953,356.944 L658.4673,336.803 C656.6583,333.671 657.7323,329.665 660.8643,327.857 C663.9963,326.048 668.0023,327.121 669.8113,330.254 L685.4213,357.292 C686.5203,359.196 687.3263,360.354 687.8393,360.764 C688.3513,361.175 688.9223,361.198 689.5503,360.835 C690.2693,360.42 690.5633,359.862 690.4333,359.158 C690.3023,358.456 689.6103,357.018 688.3553,354.844 L673.0713,328.371 C671.2623,325.239 672.3353,321.234 675.4683,319.426" id="Fill-157" stroke="none" fill="#F7F7F7" fill-rule="evenodd"></path>
                    </g>
                </g>
            </g>
        </g>
    </g>
</svg>