<?xml version="1.0" encoding="UTF-8"?>
<svg width="56px" height="56px" viewBox="0 0 56 56" version="1.1" xmlns="http://www.w3.org/2000/svg" xmlns:xlink="http://www.w3.org/1999/xlink">
    <!-- Generator: Sketch 51.2 (57519) - http://www.bohemiancoding.com/sketch -->
    <title>删除</title>
    <desc>Created with Sketch.</desc>
    <defs></defs>
    <g id="Page-1" stroke="none" stroke-width="1" fill="none" fill-rule="evenodd">
        <g id="足记游戏切图" transform="translate(-557.000000, -534.000000)">
            <g id="删除" transform="translate(557.000000, 534.000000)">
                <path d="M10,1.5 C5.30557963,1.5 1.5,5.30557963 1.5,10 L1.5,46 C1.5,50.6944204 5.30557963,54.5 10,54.5 L46,54.5 C50.6944204,54.5 54.5,50.6944204 54.5,46 L54.5,10 C54.5,5.30557963 50.6944204,1.5 46,1.5 L10,1.5 Z" id="Rectangle-4" stroke="#030303" stroke-width="3" fill-opacity="0.1" fill="#FFFFFF"></path>
                <g id="Group-6" transform="translate(14.000000, 13.000000)" stroke="#FFFFFF" stroke-linecap="round" stroke-width="4">
                    <path d="M3.26086957,7.6097561 L20.2173913,7.6097561 C25.2599912,7.6097561 29.3478261,11.5845939 29.3478261,16.4878049 C29.3478261,21.3910158 25.2599912,25.3658537 20.2173913,25.3658537 L3.26086957,25.3658537" id="Rectangle-13"></path>
                    <polyline id="Rectangle-14" transform="translate(7.918784, 7.699891) rotate(45.000000) translate(-7.918784, -7.699891) " points="13.1361754 12.7730616 2.7013928 12.7730616 2.7013928 2.62672015"></polyline>
                </g>
            </g>
        </g>
    </g>
</svg>