<svg width="28" height="23" viewBox="0 0 28 23" xmlns="http://www.w3.org/2000/svg"><g fill="none" fill-rule="evenodd"><path d="M14.098 21.224L26.194 8.277a.415.415 0 0 0 .001-.557l-5.927-6.406a.358.358 0 0 0-.262-.117H7.594c-.099 0-.194.043-.263.12L1.474 7.72a.415.415 0 0 0 .003.555l12.1 12.949a.352.352 0 0 0 .52 0" fill="#00AEEF"/><path d="M14.098 21.224L26.194 8.277a.415.415 0 0 0 .001-.557l-5.927-6.406a.358.358 0 0 0-.262-.117H7.594c-.099 0-.194.043-.263.12L1.474 7.72a.415.415 0 0 0 .003.555l12.1 12.949a.352.352 0 0 0 .52 0z" stroke="#00AEEF" stroke-width="1.844"/><path d="M26.67 13.838h-.032" fill="#FFF200"/><path fill="#0194FF" d="M13.837 21.42l-6.293-6.735-.032-.032L1.22 7.917l6.325-6.77.11.12 1.481 6.616.011.034 1.263 3.635.017.048z"/><path fill="#FFF200" d="M11.145 5.004l-2.01 2.88-1.48-6.616"/><path fill="#07DBFC" d="M13.837 1.147l-2.692 3.857-2.01 2.88L7.47 1.267l-.026-.12zM13.837 1.147h6.294l.03-.031.029.031-1.844 6.736"/><path fill="#0194FF" d="M26.454 7.917l-6.294 6.736-6.323 6.768 3.323-9.979 1.175-3.525z"/><path fill="#32F4FE" d="M26.485 7.883l-.031.034h-8.12l.012-.034 1.814-6.767.03.031h.001zM1.115 7.883l.031.034h8.119l-.011-.034-1.815-6.767-.03.031z"/><path d="M9.146 7.917H1.234" fill="#FFF200"/><path fill="#00CCFE" d="M13.837 1.147l-2.692 3.857-2.01 2.88.011.033 1.263 3.636.017.047 3.411 9.82 3.323-9.978 1.175-3.525z"/><path fill="#32F4FE" d="M15.404 7.917h2.93l-4.497-6.77-2.692 3.857-2.01 2.88.01.033z"/><path fill="#0194FF" d="M13.837 21.42l-6.293-6.735-.032-.032L1.22 7.917l6.325-6.77.11.12 1.481 6.616.011.034 1.263 3.635.017.048z"/><path fill="#FFF200" d="M11.145 5.004l-2.01 2.88-1.48-6.616"/><path fill="#07DBFC" d="M13.837 1.147l-2.692 3.857-2.01 2.88L7.47 1.267l-.026-.12zM13.837 1.147h6.294l.03-.031.029.031-1.844 6.736"/><path fill="#0194FF" d="M26.454 7.917l-6.294 6.736-6.323 6.768 3.323-9.979 1.175-3.525z"/><path fill="#32F4FE" d="M26.485 7.883l-.031.034h-8.12l.012-.034 1.814-6.767.03.031h.001zM1.115 7.883l.031.034h8.119l-.011-.034-1.815-6.767-.03.031z"/><path d="M9.146 7.917H1.234" fill="#FFF200"/><path fill="#00CCFE" d="M13.837 1.147l-2.692 3.857-2.01 2.88.011.033 1.263 3.636.017.047 3.411 9.82 3.323-9.978 1.175-3.525z"/><path fill="#32F4FE" d="M15.404 7.917h2.93l-4.497-6.77-2.692 3.857-2.01 2.88.01.033z"/></g></svg>