<?xml version="1.0" encoding="UTF-8"?>
<svg width="28px" height="23px" viewBox="0 0 28 23" version="1.1" xmlns="http://www.w3.org/2000/svg" xmlns:xlink="http://www.w3.org/1999/xlink">
    <!-- Generator: Sketch 51.2 (57519) - http://www.bohemiancoding.com/sketch -->
    <title>钻石</title>
    <desc>Created with Sketch.</desc>
    <defs></defs>
    <g id="Page-1" stroke="none" stroke-width="1" fill="none" fill-rule="evenodd">
        <g id="足记游戏切图" transform="translate(-1403.000000, -55.000000)">
            <g id="钻石" transform="translate(1404.000000, 56.000000)">
                <g>
                    <path d="M13.097878,20.2235329 L25.1941475,7.27655921 C25.3376085,7.12280921 25.3381617,6.87392763 25.1952539,6.71958553 L19.2683603,0.314388158 C19.199027,0.239585526 19.1046156,0.197348684 19.0063319,0.197348684 L6.59437447,0.197348684 C6.49516879,0.197348684 6.40038865,0.240177632 6.33105532,0.316164474 L0.474048227,6.71958553 C0.332615603,6.874125 0.333906383,7.12182237 0.476814184,7.27498026 L12.5764028,20.2235329 C12.7202326,20.3776776 12.9538638,20.3776776 13.097878,20.2235329" id="Fill-1" fill="#00AEEF"></path>
                    <path d="M13.097878,20.2235329 L25.1941475,7.27655921 C25.3376085,7.12280921 25.3381617,6.87392763 25.1952539,6.71958553 L19.2683603,0.314388158 C19.199027,0.239585526 19.1046156,0.197348684 19.0063319,0.197348684 L6.59437447,0.197348684 C6.49516879,0.197348684 6.40038865,0.240177632 6.33105532,0.316164474 L0.474048227,6.71958553 C0.332615603,6.874125 0.333906383,7.12182237 0.476814184,7.27498026 L12.5764028,20.2235329 C12.7202326,20.3776776 12.9538638,20.3776776 13.097878,20.2235329 Z" id="Stroke-3" stroke="#00AEEF" stroke-width="1.84397163"></path>
                    <path d="M25.6692837,12.8384013 L25.6379362,12.8384013" id="Fill-5" fill="#FFF200"></path>
                    <polygon id="Fill-7" fill="#0194FF" points="12.837122 20.4209013 6.54364681 13.6847171 6.51229929 13.6531382 0.218639716 6.91695395 6.54364681 0.147217105 6.65428511 0.267809211 8.13499433 6.88340132 8.14605816 6.91695395 9.40917872 10.5524803 9.42577447 10.5998487"></polygon>
                    <polyline id="Fill-9" fill="#FFF200" points="10.1448128 4.00385526 8.13506809 6.88346053 6.65417447 0.267671053"></polyline>
                    <polygon id="Fill-11" fill="#07DBFC" points="12.837122 0.147256579 10.144739 4.00383553 8.13499433 6.88344079 6.46988794 0.267651316 6.44407234 0.147256579"></polygon>
                    <polyline id="Fill-13" fill="#07DBFC" points="12.837122 0.147256579 19.1305972 0.147256579 19.1601007 0.115677632 19.1896043 0.147256579 17.3456326 6.88344079"></polyline>
                    <polygon id="Fill-15" fill="#0194FF" points="25.4535574 6.91695395 19.1600823 13.6531382 12.8371035 20.4209013 16.1599404 10.4419539 17.3345504 6.91695395"></polygon>
                    <polygon id="Fill-17" fill="#32F4FE" points="25.4848865 6.88342105 25.453539 6.91697368 17.3345319 6.91697368 17.3455957 6.88342105 19.1600638 0.115657895 19.1895674 0.147236842 19.1914113 0.147236842"></polygon>
                    <polygon id="Fill-19" fill="#32F4FE" points="0.114621277 6.88342105 0.145968794 6.91697368 8.26497589 6.91697368 8.25391206 6.88342105 6.43944397 0.115657895 6.40994043 0.147236842 6.40809645 0.147236842"></polygon>
                    <path d="M8.1459844,6.91695395 L0.233502128,6.91695395" id="Fill-21" fill="#FFF200"></path>
                    <polygon id="Fill-23" fill="#00CCFE" points="12.837122 0.147256579 10.144739 4.00383553 8.13499433 6.88344079 8.14605816 6.91699342 9.40917872 10.5525197 9.42577447 10.5998882 12.837122 20.4209408 16.1599589 10.4419934 17.3345688 6.91699342"></polygon>
                    <polygon id="Fill-25" fill="#32F4FE" points="14.4037787 6.91695395 17.3345872 6.91695395 12.8371404 0.147217105 10.1447574 4.00379605 8.13501277 6.88340132 8.1458922 6.91695395"></polygon>
                    <polygon id="Fill-27" fill="#0194FF" points="12.837122 20.4209013 6.54364681 13.6847171 6.51229929 13.6531382 0.218639716 6.91695395 6.54364681 0.147217105 6.65428511 0.267809211 8.13499433 6.88340132 8.14605816 6.91695395 9.40917872 10.5524803 9.42577447 10.5998487"></polygon>
                    <polyline id="Fill-29" fill="#FFF200" points="10.1448128 4.00385526 8.13506809 6.88346053 6.65417447 0.267671053"></polyline>
                    <polygon id="Fill-31" fill="#07DBFC" points="12.837122 0.147256579 10.144739 4.00383553 8.13499433 6.88344079 6.46988794 0.267651316 6.44407234 0.147256579"></polygon>
                    <polyline id="Fill-33" fill="#07DBFC" points="12.837122 0.147256579 19.1305972 0.147256579 19.1601007 0.115677632 19.1896043 0.147256579 17.3456326 6.88344079"></polyline>
                    <polygon id="Fill-35" fill="#0194FF" points="25.4535574 6.91695395 19.1600823 13.6531382 12.8371035 20.4209013 16.1599404 10.4419539 17.3345504 6.91695395"></polygon>
                    <polygon id="Fill-37" fill="#32F4FE" points="25.4848865 6.88342105 25.453539 6.91697368 17.3345319 6.91697368 17.3455957 6.88342105 19.1600638 0.115657895 19.1895674 0.147236842 19.1914113 0.147236842"></polygon>
                    <polygon id="Fill-39" fill="#32F4FE" points="0.114621277 6.88342105 0.145968794 6.91697368 8.26497589 6.91697368 8.25391206 6.88342105 6.43944397 0.115657895 6.40994043 0.147236842 6.40809645 0.147236842"></polygon>
                    <path d="M8.1459844,6.91695395 L0.233502128,6.91695395" id="Fill-41" fill="#FFF200"></path>
                    <polygon id="Fill-43" fill="#00CCFE" points="12.837122 0.147256579 10.144739 4.00383553 8.13499433 6.88344079 8.14605816 6.91699342 9.40917872 10.5525197 9.42577447 10.5998882 12.837122 20.4209408 16.1599589 10.4419934 17.3345688 6.91699342"></polygon>
                    <polygon id="Fill-45" fill="#32F4FE" points="14.4037787 6.91695395 17.3345872 6.91695395 12.8371404 0.147217105 10.1447574 4.00379605 8.13501277 6.88340132 8.1458922 6.91695395"></polygon>
                </g>
            </g>
        </g>
    </g>
</svg>