<?xml version="1.0" encoding="UTF-8"?>
<svg width="110px" height="110px" viewBox="0 0 110 110" version="1.1" xmlns="http://www.w3.org/2000/svg" xmlns:xlink="http://www.w3.org/1999/xlink">
    <!-- Generator: Sketch 51.2 (57519) - http://www.bohemiancoding.com/sketch -->
    <title>好友</title>
    <desc>Created with Sketch.</desc>
    <defs></defs>
    <g id="Page-1" stroke="none" stroke-width="1" fill="none" fill-rule="evenodd">
        <g id="足记游戏切图" transform="translate(-455.000000, -72.000000)">
            <g id="好友" transform="translate(455.000000, 72.000000)">
                <rect id="Rectangle" fill="#FFCF25" x="0" y="0" width="110" height="110"></rect>
                <g id="Group-7" transform="translate(19.000000, 28.000000)">
                    <path d="M15.7884107,22.6681855 L27.2927777,22.6681829 C28.8592043,22.6681829 30.129044,23.9380226 30.129044,25.5044492 C30.129044,25.7498977 30.0971831,25.9943079 30.03426,26.2315538 C29.5913737,27.9014167 29.0967752,29.0605969 28.5504646,29.7090946 C28.1000464,30.2437634 33.4949762,31.5153283 38.1086936,37.6548576 C38.7595543,38.5209657 39.7822815,40.6806383 41.1768753,44.1338753 L41.1768781,44.1338742 C42.0567406,46.3125543 41.0038409,48.791993 38.8251608,49.6718556 C38.3101205,49.8798552 37.7593336,49.9849853 37.2038907,49.9813116 L5.10531381,49.7690134 C2.75572601,49.7534732 0.863606605,47.8361581 0.879146841,45.4865703 C0.884220395,44.7194803 1.0966026,43.9680333 1.4938119,43.3117731 C3.88055379,39.368452 5.38888378,36.9688225 6.01880186,36.1128846 C7.86617492,33.6026588 14.1464751,31.4770211 13.8564318,30.125545 C13.5307798,28.6081474 13.2480091,27.2546815 13.00812,26.0651473 L13.0081134,26.0651486 C12.6984514,24.5296328 13.6922022,23.0338206 15.2277179,22.7241586 C15.4122942,22.6869357 15.6001185,22.6681855 15.7884107,22.6681855 Z" id="Rectangle-34-Copy" fill="#333333" transform="translate(21.182744, 36.324814) scale(-1, 1) translate(-21.182744, -36.324814) "></path>
                    <path d="M46.078218,22.6681855 L57.5825851,22.6681829 C59.1490117,22.6681829 60.4188513,23.9380226 60.4188513,25.5044492 C60.4188513,25.7498977 60.3869905,25.9943079 60.3240674,26.2315538 C59.881181,27.9014167 59.3865826,29.0605969 58.840272,29.7090946 C58.3898537,30.2437634 63.7847836,31.5153283 68.398501,37.6548576 C69.0493616,38.5209657 70.0720889,40.6806383 71.4666827,44.1338753 L71.4666855,44.1338742 C72.346548,46.3125543 71.2936483,48.791993 69.1149682,49.6718556 C68.5999279,49.8798552 68.049141,49.9849853 67.4936981,49.9813116 L35.3951212,49.7690134 C33.0455334,49.7534732 31.153414,47.8361581 31.1689542,45.4865703 C31.1740278,44.7194803 31.38641,43.9680333 31.7836193,43.3117731 C34.1703612,39.368452 35.6786911,36.9688225 36.3086092,36.1128846 C38.1559823,33.6026588 44.4362825,31.4770211 44.1462392,30.125545 C43.8205871,28.6081474 43.5378165,27.2546815 43.2979273,26.0651473 L43.2979208,26.0651486 C42.9882588,24.5296328 43.9820095,23.0338206 45.5175253,22.7241586 C45.7021016,22.6869357 45.8899258,22.6681855 46.078218,22.6681855 Z" id="Rectangle-34-Copy-3" fill="#333333"></path>
                    <ellipse id="Oval-12" stroke="#333333" stroke-width="6" fill="#FFFFFF" cx="20.5410723" cy="16.2927544" rx="16.2911953" ry="16.2927544"></ellipse>
                    <ellipse id="Oval-12-Copy-2" stroke="#333333" stroke-width="6" fill="#FFFFFF" cx="53.1234629" cy="16.2927544" rx="16.2911953" ry="16.2927544"></ellipse>
                    <path d="M15.5828824,18.4178963 C15.5828824,21.5477188 18.1198621,24.0849413 21.2493851,24.0849413 C24.3789082,24.0849413 26.9158879,21.5477188 26.9158879,18.4178963 L15.5828824,18.4178963 Z" id="Oval-14" fill="#FA4B7F"></path>
                    <path d="M46.7486473,18.4178963 C46.7486473,21.5477188 49.285627,24.0849413 52.41515,24.0849413 C55.5446731,24.0849413 58.0816527,21.5477188 58.0816527,18.4178963 L46.7486473,18.4178963 Z" id="Oval-14-Copy" fill="#FA4B7F"></path>
                    <rect id="Rectangle-35" fill="#333333" x="14.1662568" y="11.33409" width="3.72413793" height="4.9382716" rx="1.86206897"></rect>
                    <rect id="Rectangle-35-Copy" fill="#333333" x="25.4992622" y="11.33409" width="3.72413793" height="4.9382716" rx="1.86206897"></rect>
                    <rect id="Rectangle-35-Copy-3" fill="#333333" x="44.0906423" y="11.33409" width="3.72413793" height="4.9382716" rx="1.86206897"></rect>
                    <rect id="Rectangle-35-Copy-2" fill="#333333" x="55.4236477" y="11.33409" width="3.72413793" height="4.9382716" rx="1.86206897"></rect>
                </g>
            </g>
        </g>
    </g>
</svg>