<?xml version="1.0" encoding="UTF-8"?>
<svg width="366px" height="124px" viewBox="0 0 366 124" version="1.1" xmlns="http://www.w3.org/2000/svg" xmlns:xlink="http://www.w3.org/1999/xlink">
    <!-- Generator: Sketch 51.2 (57519) - http://www.bohemiancoding.com/sketch -->
    <title>排行榜</title>
    <desc>Created with Sketch.</desc>
    <defs>
        <linearGradient x1="50%" y1="0%" x2="50%" y2="88.9731506%" id="linearGradient-1">
            <stop stop-color="#FFA200" offset="0%"></stop>
            <stop stop-color="#FFDA00" offset="100%"></stop>
        </linearGradient>
        <linearGradient x1="59.2210036%" y1="0%" x2="59.2210054%" y2="100%" id="linearGradient-2">
            <stop stop-color="#FFBC1A" offset="0%"></stop>
            <stop stop-color="#FFD800" offset="100%"></stop>
        </linearGradient>
        <linearGradient x1="45.3010112%" y1="133.528646%" x2="45.3010112%" y2="0%" id="linearGradient-3">
            <stop stop-color="#FFBC1A" offset="0%"></stop>
            <stop stop-color="#FFD800" offset="100%"></stop>
        </linearGradient>
    </defs>
    <g id="Page-1" stroke="none" stroke-width="1" fill="none" fill-rule="evenodd">
        <g id="足记游戏切图" transform="translate(-93.000000, -749.000000)">
            <g id="排行榜" transform="translate(93.000000, 749.000000)">
                <rect id="Rectangle-12-Copy-5" fill="#9F41FF" x="0" y="0" width="366" height="124"></rect>
                <polygon id="Rectangle-12" fill="#FFFFFF" opacity="0.115290179" points="331.767578 0 348.558594 0 297.791016 124 281 124"></polygon>
                <polygon id="Rectangle-12-Copy-3" fill="#FFFFFF" opacity="0.115290179" points="361.976562 0 358.767578 0 308 124 311.208984 124"></polygon>
                <rect id="Rectangle-16-Copy" fill="#302E73" opacity="0.5" x="34" y="39" width="154" height="60"></rect>
                <rect id="Rectangle-16" stroke="#333333" stroke-width="6" fill="#FFFFFF" x="30" y="35" width="148" height="54"></rect>
                <path d="M64.56,74.04 L59.4,74.04 L59.4,70.08 L53.56,70.08 L53.56,66.68 L54.8,67.36 L59.4,67.36 L59.4,62.92 L53.56,62.92 L53.56,59.52 L54.8,60.2 L59.4,60.2 L59.4,56.16 L53.56,56.16 L53.56,52.76 L54.8,53.44 L59.4,53.44 L59.4,51.04 L58.68,50.28 L64.56,50.28 L64.56,74.04 Z M67.88,50.28 L73.72,50.28 L73,51.04 L73,53.44 L77.32,53.44 L78.6,52.76 L78.6,56.16 L73,56.16 L73,60.2 L77.32,60.2 L78.6,59.52 L78.6,62.92 L73,62.92 L73,67.36 L77.32,67.36 L78.6,66.68 L78.6,70.08 L73,70.08 L73,74.04 L67.88,74.04 L67.88,50.28 Z M52.36,57.44 C52.226666,57.0933316 52.0133348,56.8733338 51.72,56.78 C51.4266652,56.6866662 51.1600012,56.64 50.92,56.64 L49.84,56.64 L49.84,63.6 L51.2,63.32 L52.36,62.2 L52.36,66.84 L49.84,67.36 L49.84,73.96 L43.72,73.96 L44.72,72.92 L44.72,68.36 L42.28,68.84 L41,69.72 L41,65.48 L44.72,64.72 L44.72,56.64 L41,56.64 L41,53.2 L42.24,53.88 L44.72,53.88 L44.72,51.08 L44,50.32 L49.84,50.32 L49.84,53.88 L52.36,53.88 L52.36,57.44 Z M121.72,62.12 C121.586666,61.7999984 121.373335,61.5866672 121.08,61.48 C120.786665,61.3733328 120.520001,61.32 120.28,61.32 L115.2,61.32 L115.2,73.6 L102.28,73.6 L101.04,74.28 L101.04,70.92 L110.08,70.92 L110.08,61.32 L96.6,61.32 L96.6,57.92 L97.84,58.56 L121.72,58.56 L121.72,62.12 Z M89.16,73.6 L89.16,62.04 L86.52,62.04 L90.56,56.92 L85.88,56.92 L90.72,50.76 L90,50 L95.96,50 L92.24,55.16 L96.6,55.16 L92.52,60.8 L94.28,60.8 L94.28,73.6 L89.16,73.6 Z M119.44,54.36 C119.306666,54.0133316 119.100001,53.7866672 118.82,53.68 C118.539999,53.5733328 118.280001,53.52 118.04,53.52 L98.96,53.52 L98.96,50.12 L100.2,50.8 L119.44,50.8 L119.44,54.36 Z M137.76,73.84 L133.2,73.84 L133.2,55.68 L129.16,55.68 L129.16,52.6 L130.4,53.28 L133.2,53.28 L133.2,51.08 L132.48,50.28 L137.76,50.28 L137.76,53.28 L142.6,53.28 L142.6,56.52 C142.493333,56.1999984 142.293335,55.9800006 142,55.86 C141.706665,55.7399994 141.440001,55.68 141.2,55.68 L137.76,55.68 L137.76,58.4 L142.28,58.4 L142.32,59.2 L142.68,73.84 L140.04,73.84 L139.68,60.72 L137.76,60.72 L137.76,73.84 Z M150.24,74.04 L145.2,74.04 L148.08,65.4 L144.08,65.4 L144.08,62.4 L145.28,63.08 L153.08,63.08 L153.08,62.4 L152.4,61.28 L157.48,61.28 L157.48,63.08 L166.6,63.08 L166.6,66.2 C166.493333,65.8799984 166.293335,65.6666672 166,65.56 C165.706665,65.4533328 165.453334,65.4 165.24,65.4 L153.08,65.4 L152.52,67.12 L166.6,67.08 L166.6,74.04 L161.16,74.04 L162.12,72.96 L162.12,69.56 L151.72,69.56 L150.24,74.04 Z M144.4,58.2 L143.72,57.48 L147.44,57.48 L146.44,54.92 L151.48,54.92 L151.12,55.8 L151.8,57.48 L159.32,57.48 L160.04,55.8 L159.72,54.92 L164.76,54.92 L163.72,57.48 L166.6,57.48 L166.6,62.2 L162.44,62.2 L162.44,59.8 L148.68,59.8 L148.68,62.2 L144.4,62.2 L144.4,58.2 Z M166.64,54.8 C166.533333,54.4533316 166.340001,54.2266672 166.06,54.12 C165.779999,54.0133328 165.520001,53.96 165.28,53.96 L144.04,53.96 L144.04,51.2 L145.24,51.88 L153.2,51.88 L153.2,51.08 L152.52,50.28 L157.8,50.28 L157.8,51.88 L166.64,51.88 L166.64,54.8 Z M131.68,73.84 L129.12,73.84 L129.52,59.2 L128.96,58.4 L132.04,58.4 L131.68,73.84 Z" id="排行榜-copy" fill="#333333"></path>
                <g id="top榜单-copy" transform="translate(248.000000, 2.000000)">
                    <g id="Group-6">
                        <g id="top榜单" transform="translate(0.064748, 21.582734)">
                            <rect id="Rectangle-38" fill="#FFBC1A" x="28.0702193" y="37.8279691" width="6.60475749" height="27.9598033"></rect>
                            <path d="M18.1630831,36.1832748 L11.1772819,36.1832748 C5.00423956,36.1832748 0,32.1333238 0,27.1374561 L0,27.1374561 C-6.11817341e-16,22.1415884 4.04995098,18.0916374 9.0458187,18.0916374 L18.1630831,18.0916374" id="Rectangle-41" stroke="#FFBC1A" stroke-width="4.95356812"></path>
                            <path d="M44.5821131,36.1832748 L44.5821131,18.0916374 L53.6993774,18.0916374 C58.6952452,18.0916374 62.7451961,22.1415884 62.7451961,27.1374561 C62.7451961,32.1333238 57.7409566,36.1832748 51.5679142,36.1832748 L44.5821131,36.1832748 Z" id="Rectangle-41-Copy" stroke="#FFBC1A" stroke-width="4.95356812"></path>
                            <path d="M9.90713623,4.93408293 L52.8380599,4.93408293 L52.8380599,29.5200617 C52.8380599,41.375109 43.2276453,50.9855236 31.3725981,50.9855236 L31.3725981,50.9855236 C19.5175509,50.9855236 9.90713623,41.375109 9.90713623,29.5200617 L9.90713623,4.93408293 Z" id="Rectangle-37" stroke="#FFCF00" stroke-width="3" fill="url(#linearGradient-1)"></path>
                            <rect id="Rectangle-39" fill="#FFA900" x="21.4654618" y="62.4983838" width="19.8142725" height="13.1575545" rx="3.30237874"></rect>
                            <rect id="Rectangle-40" fill="url(#linearGradient-2)" x="9.90713623" y="67.4324667" width="42.9309237" height="8.22347155" rx="4.11173577"></rect>
                            <text id="1" font-family="Arial-Black, Arial Black" font-size="28" font-weight="700" letter-spacing="7.777777" fill="#FFFFFF">
                                <tspan x="21" y="37">1</tspan>
                            </text>
                            <rect id="Rectangle-36" stroke="#FFD100" stroke-width="3" fill="url(#linearGradient-3)" x="4.80237874" y="1.5" width="53.1404387" height="6.86816586" rx="3.43408293"></rect>
                        </g>
                    </g>
                </g>
                <g id="ox" transform="translate(221.000000, 26.000000)">
                    <circle id="Oval-3" fill="#FFFFFF" opacity="0.464285714" cx="111" cy="43" r="6"></circle>
                    <circle id="Oval-3-Copy-2" fill="#FFFFFF" opacity="0.464285714" cx="18" cy="11" r="4"></circle>
                    <path d="M103,4.41421356 L106.87868,0.535533906 C107.592725,-0.178511302 108.750421,-0.178511302 109.464466,0.535533906 C110.178511,1.24957911 110.178511,2.40727514 109.464466,3.12132034 L105.585786,7 L109.464466,10.8786797 C110.178511,11.5927249 110.178511,12.7504209 109.464466,13.4644661 C108.750421,14.1785113 107.592725,14.1785113 106.87868,13.4644661 L103,9.58578644 L99.1213203,13.4644661 C98.4072751,14.1785113 97.2495791,14.1785113 96.5355339,13.4644661 C95.8214887,12.7504209 95.8214887,11.5927249 96.5355339,10.8786797 L100.414214,7 L96.5355339,3.12132034 C95.8214887,2.40727514 95.8214887,1.24957911 96.5355339,0.535533906 C97.2495791,-0.178511302 98.4072751,-0.178511302 99.1213203,0.535533906 L103,4.41421356 Z" id="Combined-Shape" fill="#FFEBB2"></path>
                    <path d="M5,28.1530097 L7.77048547,25.3825242 C8.28051776,24.8724919 9.10744349,24.8724919 9.61747578,25.3825242 C10.1275081,25.8925565 10.1275081,26.7194822 9.61747578,27.2295145 L6.84699031,30 L9.61747578,32.7704855 C10.1275081,33.2805178 10.1275081,34.1074435 9.61747578,34.6174758 C9.10744349,35.1275081 8.28051776,35.1275081 7.77048547,34.6174758 L5,31.8469903 L2.22951453,34.6174758 C1.71948224,35.1275081 0.89255651,35.1275081 0.382524219,34.6174758 C-0.127508073,34.1074435 -0.127508073,33.2805178 0.382524219,32.7704855 L3.15300969,30 L0.382524219,27.2295145 C-0.127508073,26.7194822 -0.127508073,25.8925565 0.382524219,25.3825242 C0.89255651,24.8724919 1.71948224,24.8724919 2.22951453,25.3825242 L5,28.1530097 Z" id="Combined-Shape-Copy" fill="#FFEBB2"></path>
                </g>
            </g>
        </g>
    </g>
</svg>