<svg width="534" height="297" viewBox="0 0 534 297" xmlns="http://www.w3.org/2000/svg" xmlns:xlink="http://www.w3.org/1999/xlink"><defs><path id="a" d="M0 .062h95.375v100.95H0z"/><path id="c" d="M.914 1.286h95.223v100.298H.914z"/><path id="f" d="M326.2 13.974h30.465L344.4 74.064h-18.2z"/><filter x="-9.8%" y="-5%" width="129.5%" filterUnits="objectBoundingBox" id="e"><feOffset dx="3" dy="6" in="SourceAlpha" result="shadowOffsetOuter1"/><feComposite in="shadowOffsetOuter1" in2="SourceAlpha" operator="out" result="shadowOffsetOuter1"/><feColorMatrix values="0 0 0 0 0.450980392 0 0 0 0 0.266666667 0 0 0 0 0.662745098 0 0 0 1 0" in="shadowOffsetOuter1"/></filter><ellipse id="h" cx="332.5" cy="92.929" rx="10.5" ry="10.481"/><filter x="-27.6%" y="-27.7%" width="169.5%" height="184%" filterUnits="objectBoundingBox" id="g"><feMorphology radius="2.8" operator="dilate" in="SourceAlpha" result="shadowSpreadOuter1"/><feOffset dx="3" dy="6" in="shadowSpreadOuter1" result="shadowOffsetOuter1"/><feComposite in="shadowOffsetOuter1" in2="SourceAlpha" operator="out" result="shadowOffsetOuter1"/><feColorMatrix values="0 0 0 0 0.450980392 0 0 0 0 0.266666667 0 0 0 0 0.662745098 0 0 0 1 0" in="shadowOffsetOuter1"/></filter></defs><g fill="none" fill-rule="evenodd"><g opacity=".38" stroke="#3B2734" stroke-linecap="round" stroke-width="6"><path d="M455.639 161.17c-5.033 24.46-14.992 43.715-29.875 57.767M512.696 135.778c-9.378 40.102-21.37 69.745-35.973 88.932"/><path d="M496.57 104.343c0 79.456-65.106 165.074-106.416 177.704-37.285 11.399-42.527-37.223-24.125-46.118 18.343-8.829 25.62-5.32 29.563 7.578 3.944 12.898-14.949 31.62-24.567 22.264-6.412-6.237-5.123-13.392 3.868-21.465"/></g><g opacity=".481" stroke="#3B2734" stroke-linecap="round" stroke-width="6"><path d="M144.322 211.547c-15.496 26.593-30.573 45.147-45.231 55.662M182.232 228c-15.496 26.593-30.574 45.147-45.232 55.662"/><path d="M176.42 199.003c-36.413 62.986-72.701 94.479-108.863 94.479-29.197 0-22.305-35.871-7.18-38.206 15.07-2.3 19.513 1.795 19.513 11.868s-17.628 19.318-22.468 10.536c-3.227-5.854-.737-10.683 7.47-14.486"/></g><path d="M187.968 123.38a5.18 5.18 0 0 1 2.712 1.036l.257-1.058h-3.141l.172.021zm-39.001 7.853a5.361 5.361 0 0 1 3.494 1.26v-7.801l-6.385 7.304.071-.04c.907-.48 1.856-.723 2.82-.723zm21.38 25.422c.187.294.387.521.602.68l9.27 6.182.197.065a2.158 2.158 0 0 0 1.096-.35l4.427-4.247.17-.12c.323-.228.66-.421 1.005-.579l-15.99-1.513a6.3 6.3 0 0 1-.777-.118zm-.691 23.719c0 .086.007.158.017.218l3.088-.125-3.105-2.07v1.977zM158 199.938c-1.585 0-2.985-.636-4.049-1.84a5.915 5.915 0 0 1-1.49-3.973v-44.288l-1.712 1.19c-.137.097-.445.38-.813 1.078-.272.516-.415.974-.415 1.326l-1.055 39.762c.001 1.451-.553 2.847-1.6 3.961-1.102 1.166-2.5 1.778-4.046 1.778l-6.118-.227c-1.51 0-2.926-.676-3.993-1.956-.94-1.132-1.438-2.54-1.438-4.078l.89-29.221c-.46.128-.938.192-1.425.192-.466 0-.94-.06-1.412-.18-1.536-.384-2.764-1.446-3.465-2.995l-3.075-5.761c-.777-1.29-.985-2.79-.603-4.343.358-1.452 1.097-2.647 2.2-3.557l.097-.081 7.833-5.347a5.825 5.825 0 0 1-1.442-1.127l-4.3-5.014c-.999-1.19-1.517-2.602-1.517-4.109a6.29 6.29 0 0 1 1.497-4.087l14.8-16.818c1.158-1.232 2.556-1.845 4.107-1.845 1.599 0 3.04.678 4.057 1.91l1.893 2.207v-1.993c0-1.463.495-2.834 1.435-3.964 1.35-1.621 2.922-1.961 4-1.961h50.072c1.645 0 3.072.78 4.017 2.195.883 1.33 1.082 2.886.57 4.406l-10.191 42.898c-.353 1.499-1.154 2.773-2.317 3.682a5.93 5.93 0 0 1-4.24 1.252l-1.972-.187c.45.335.857.744 1.211 1.23l3.825 5.405c.927 1.405 1.256 2.923 1.002 4.466-.295 1.793-1.155 2.9-1.89 3.54l-.663.704 6.508 4.326c1.242.878 2.061 2.112 2.432 3.615.38 1.549.175 3.041-.592 4.328l-2.972 5.762c-.703 1.558-1.935 2.627-3.48 3.016-.468.116-.94.176-1.402.176a5.365 5.365 0 0 1-2.76-.76l-10.274-6.85.158 5.076c.11 1.551-.386 2.996-1.438 4.181-1.026 1.153-2.301 1.84-3.694 1.989l-.178.014-20.512.897h-.061z" fill="#7344A9"/><path d="M183.768 114.995a5.18 5.18 0 0 1 2.712 1.037l.257-1.058h-3.141l.172.02zm-39.001 7.853a5.361 5.361 0 0 1 3.494 1.26v-7.801l-6.385 7.304.071-.039c.907-.48 1.856-.724 2.82-.724zm21.38 25.423c.187.293.387.52.602.68l9.27 6.181.197.066a2.158 2.158 0 0 0 1.096-.35l4.427-4.248.17-.119c.323-.229.66-.422 1.005-.58l-15.99-1.513a6.3 6.3 0 0 1-.777-.117zm-.691 23.718c0 .087.007.158.017.218l3.088-.124-3.105-2.071v1.977zM153.8 191.553c-1.585 0-2.985-.635-4.049-1.839a5.915 5.915 0 0 1-1.49-3.974v-44.288l-1.712 1.191c-.137.097-.445.379-.813 1.078-.272.515-.415.974-.415 1.326l-1.055 39.76c.001 1.453-.553 2.849-1.6 3.963-1.102 1.165-2.5 1.777-4.046 1.777l-6.118-.226c-1.51 0-2.926-.677-3.993-1.957-.94-1.132-1.438-2.54-1.438-4.077l.89-29.222c-.46.128-.938.193-1.425.193-.466 0-.94-.06-1.412-.18-1.536-.385-2.764-1.447-3.465-2.995l-3.075-5.762c-.777-1.29-.985-2.79-.603-4.343.358-1.452 1.097-2.647 2.2-3.557l.097-.08 7.833-5.347a5.825 5.825 0 0 1-1.442-1.128l-4.3-5.014c-.999-1.19-1.517-2.602-1.517-4.108a6.29 6.29 0 0 1 1.497-4.088l14.8-16.818c1.158-1.231 2.556-1.845 4.107-1.845 1.599 0 3.04.678 4.057 1.91l1.893 2.207v-1.993c0-1.463.495-2.834 1.435-3.964 1.35-1.621 2.922-1.96 4-1.96h50.072c1.645 0 3.072.78 4.017 2.195.883 1.33 1.082 2.885.57 4.406L197.11 145.69c-.353 1.5-1.154 2.774-2.317 3.682a5.93 5.93 0 0 1-4.24 1.252l-1.972-.187c.45.335.857.745 1.211 1.23l3.825 5.405c.927 1.406 1.256 2.923 1.002 4.466-.295 1.793-1.155 2.9-1.89 3.54l-.663.704 6.508 4.327c1.242.877 2.061 2.111 2.432 3.615.38 1.548.175 3.04-.592 4.328l-2.972 5.761c-.703 1.558-1.935 2.628-3.48 3.016-.468.116-.94.176-1.402.176a5.365 5.365 0 0 1-2.76-.76l-10.274-6.849.158 5.076c.11 1.55-.386 2.996-1.438 4.18-1.026 1.154-2.301 1.84-3.694 1.99l-.178.013-20.512.897h-.061z" fill="#FFF"/><g transform="translate(115 93.335)"><mask id="b" fill="#fff"><use xlink:href="#a"/></mask><path d="M87.714.062H37.64c-2.37 0-4.554 1.053-6.147 2.963a9.135 9.135 0 0 0-1.22 1.895 7.972 7.972 0 0 0-4.016-1.057c-2.31 0-4.47.944-6.083 2.656l-.066.068-.062.071L5.29 23.428l-.042.049-.042.048a9.048 9.048 0 0 0-2.152 5.884c0 2.171.745 4.206 2.152 5.881l3.45 4.025-4.85 3.31-.21.145-.2.163C1.846 44.214.762 45.957.265 47.971c-.549 2.233-.235 4.488.88 6.385l3.005 5.631c1.065 2.294 2.939 3.875 5.3 4.468.206.053.416.096.625.134l-.8 26.192-.002.085v.086c0 2.196.72 4.223 2.081 5.86 1.57 1.883 3.74 2.934 6.127 2.97l5.932.22.105.005h.105c2.303 0 4.46-.94 6.074-2.648a8.85 8.85 0 0 0 1.327-1.818 8.703 8.703 0 0 0 1.624 2.682c1.595 1.8 3.778 2.79 6.153 2.79h.124l.121-.005 20.452-.895.179-.007.178-.02c2.094-.226 3.988-1.23 5.48-2.906 1.443-1.627 2.197-3.656 2.164-5.774l5.614 3.745.131.087.135.08a8.25 8.25 0 0 0 4.181 1.148c.692 0 1.393-.088 2.084-.26 2.373-.595 4.253-2.193 5.32-4.508l2.906-5.635c1.095-1.889 1.399-4.126.857-6.336-.536-2.17-1.735-3.961-3.468-5.187l-.066-.046-.067-.045-3.89-2.588a9.11 9.11 0 0 0 1.146-3.198c.37-2.253-.105-4.458-1.372-6.382l-.052-.079-.053-.075-1.798-2.544a8.89 8.89 0 0 0 2.413-1.344c1.67-1.304 2.816-3.119 3.319-5.249l10.163-42.778c.722-2.286.392-4.704-.931-6.696C92.6 1.316 90.288.062 87.714.062M26.258 9.453c.771 0 1.404.3 1.897.895l4.217 4.919c.631.598.947 1.341.947 2.235 0 .895-.316 1.641-.947 2.236L17.612 36.62c-.563.597-1.212.895-1.95.895-.737 0-1.388-.298-1.95-.895L9.496 31.7a3.464 3.464 0 0 1-.843-2.291c0-.857.28-1.621.843-2.292l14.758-16.77c.562-.595 1.228-.894 2.004-.894m61.456-3.8c.701 0 1.265.318 1.687.95.421.634.491 1.323.21 2.068L79.386 51.71c-.211.895-.65 1.604-1.318 2.125a3.086 3.086 0 0 1-1.952.685c-.104 0-.209-.005-.314-.014L52.19 52.27c-.843-.073-1.494-.428-1.95-1.062-.458-.633-.65-1.434-.58-2.404l.421-6.82c0-.818.317-1.545.95-2.18.512-.512 1.047-.768 1.605-.768.132 0 .263.014.398.042l14.23 1.341c.092.009.181.013.271.013.666 0 1.28-.247 1.837-.74a4.762 4.762 0 0 0 1.37-2.067l3.796-15.652c.211-.819.106-1.545-.317-2.18-.421-.633-1.019-.95-1.792-.95H50.397c-.775 0-1.423.15-1.95.447-.527.3-.79.671-.79 1.118 0 .523.263.934.79 1.23.527.299 1.175.486 1.95.559l18.026 2.236c.843.075 1.492.447 1.95 1.118.457.67.65 1.453.58 2.347l-.633 6.932c-.07.82-.405 1.49-1.001 2.012-.522.457-1.086.685-1.688.685-.087 0-.174-.004-.262-.014l-16.972-1.9a2.423 2.423 0 0 0-.472-.048c-.57 0-1.061.22-1.479.662-.526.56-.79 1.286-.79 2.18v14.645c0 .746.228 1.603.685 2.572.457.97 1.036 1.714 1.74 2.235l9.382 6.26c.505.359 1.09.538 1.753.538a4.968 4.968 0 0 0 2.885-.984l4.427-4.248a3.014 3.014 0 0 1 1.782-.575c.108 0 .217.006.326.016.773.075 1.406.447 1.897 1.118l3.796 5.366c.491.745.668 1.547.528 2.403-.142.858-.493 1.51-1.055 1.957l-1.054 1.118c-.564.596-.827 1.23-.79 1.9.034.67.367 1.23 1 1.677l7.063 4.695c.633.448 1.054 1.1 1.266 1.957.21.858.105 1.62-.317 2.292l-3.057 5.925c-.353.82-.896 1.325-1.634 1.509a2.964 2.964 0 0 1-.72.092c-.469 0-.914-.124-1.335-.371L50.08 73.065c-.41-.305-.778-.456-1.104-.456a.98.98 0 0 0-.635.232c-.457.373-.684 1.006-.684 1.9v3.913c0 .895.263 1.659.79 2.292.426.513.933.77 1.52.77.138 0 .283-.015.43-.043l8.327-.336c.844 0 1.545.3 2.108.895.563.598.844 1.341.844 2.236l.212 6.82c.068.818-.177 1.545-.74 2.18-.562.63-1.195.986-1.896 1.061l-20.452.894c-.772 0-1.422-.299-1.95-.894-.526-.598-.79-1.305-.79-2.124V46.01c0-.894-.229-1.49-.685-1.789a1.093 1.093 0 0 0-.608-.178c-.333 0-.711.134-1.131.402l-3.69 2.571c-.632.447-1.196 1.138-1.686 2.069-.493.933-.738 1.808-.738 2.627l-1.054 39.687c0 .819-.282 1.526-.844 2.124-.563.595-1.231.894-2.002.894l-6.01-.223c-.773 0-1.422-.319-1.95-.95-.526-.635-.79-1.398-.79-2.292l.949-31.08c0-.894-.23-1.49-.685-1.788a1.069 1.069 0 0 0-.592-.177c-.316 0-.664.132-1.043.4l-.631.448a2.582 2.582 0 0 1-1.335.373 2.93 2.93 0 0 1-.722-.094c-.738-.186-1.282-.687-1.634-1.509L6.018 51.6c-.423-.67-.528-1.434-.318-2.292.212-.857.633-1.545 1.266-2.068L28.26 32.707c.501-.266 1.004-.399 1.506-.399.2 0 .402.021.602.063.702.151 1.3.597 1.792 1.342l2.53 4.919c.308.722.59 1.083.846 1.083a.274.274 0 0 0 .103-.021c.28-.112.422-.615.422-1.51V22.087c0-.894-.054-1.657-.159-2.292-.105-.633-.263-.95-.474-.95-.142 0-.247-.296-.317-.894-.071-.596-.105-1.342-.105-2.236V8.782c0-.818.264-1.545.791-2.18.527-.631 1.141-.95 1.844-.95h50.073" fill="#231F20" mask="url(#b)"/></g><path d="M293.52 167.02l.3-5.036h-2.755c-.071 0-.275.048-.592.233a.849.849 0 0 0-.206.148l-.13.365-.158.195-.423.597a.837.837 0 0 0 .002.178l3.962 3.32zm-22.847 2.813l4.375-7.85h-4.375v7.85zm-12.167 9.862a5.274 5.274 0 0 1-1.248-.976 5.438 5.438 0 0 1-.544-.668l-.052 1.518 1.844.126zm31.802 2.522l-7.643-6.273-2.91 5.347 10.553.926zm-49.883 17.18c-.82 0-1.636-.2-2.424-.592-1.292-.645-2.194-1.733-2.548-3.072l-1.482-4.603-.024-.106c-.287-1.206-.149-2.46.4-3.624a5.684 5.684 0 0 1 2.485-2.62l.184-.096 4.307-1.522c.11-.04.244-.214.297-.285.18-.252.247-.414.27-.49l1.255-40.032-6.076-.739a5.186 5.186 0 0 1-3.357-1.782c-.927-1.062-1.343-2.424-1.2-3.936l.421-4.79c.143-1.397.746-2.593 1.75-3.503.88-.802 1.956-1.228 3.108-1.228.291 0 .587.028.88.082l.832.081-4.01-4.899-.055-.08c-.812-1.147-1.166-2.463-1.025-3.806.14-1.356.714-2.52 1.662-3.36l3.508-3.272.086-.068c1.01-.804 2.168-1.228 3.348-1.228l.308.01c1.315.085 2.52.675 3.498 1.708l.077.08 6.365 7.896.068.1c.681 1.017 1.009 2.24.945 3.539-.075 1.467-.699 2.739-1.762 3.605l-1.013.94 2.149.21.158.034c1.287.275 2.397.914 3.21 1.847.909 1.047 1.325 2.373 1.21 3.845l-.192 5.65c.081-.102.168-.2.259-.297.853-.902 1.911-1.439 3.087-1.573l-3.417-16.008c-.397-2.074.29-3.384.933-4.13.877-1.02 2.156-1.582 3.597-1.582l14.745-.11c.022-.041.042-.08.06-.121v-2.548l.011-.125c.163-1.776.938-2.88 1.56-3.493.66-.652 1.831-1.43 3.652-1.43h.528c1.458 0 2.755.61 3.754 1.763.926 1.076 1.36 2.371 1.26 3.76v2.074l12.25-.106c1.457 0 2.75.577 3.665 1.627.901 1.042 1.296 2.35 1.146 3.791l-1.577 16.108c-.052.43-.146.841-.285 1.236.803.297 1.52.816 2.099 1.528a5.592 5.592 0 0 1 1.254 3.547v2.012c0 .628-.09 1.223-.273 1.774.752.325 1.287.79 1.648 1.207.623.725 1.319 1.979 1.144 3.878l-.94 20.94c.003 1.366-.615 2.703-1.737 3.642-.208.174-.427.33-.652.47l.452.376c1.207.868 1.911 2.176 1.99 3.706a5.912 5.912 0 0 1-.381 2.468l2.322.215c1.53.163 2.77.86 3.628 2.018.809 1.1 1.155 2.363 1.003 3.661l-.298 4.493c-.03 2.03-.959 3.23-1.74 3.882-.927.768-2.03 1.172-3.199 1.172-.2 0-.403-.012-.609-.036l-53.235-4.34h-1.613l-.017.008c-.602.318-1.286.571-2.087.771l-10.198 3.68-.119.03c-.42.11-.852.168-1.283.168z" fill="#7344A9"/><path d="M287.92 157.238l.3-5.036h-2.755c-.071 0-.275.048-.592.233a.849.849 0 0 0-.206.148l-.13.365-.158.195-.423.597a.837.837 0 0 0 .002.178l3.962 3.32zm-22.847 2.813l4.375-7.85h-4.375v7.85zm-12.167 9.862a5.274 5.274 0 0 1-1.248-.976 5.438 5.438 0 0 1-.544-.668l-.052 1.518 1.844.126zm31.802 2.522l-7.643-6.273-2.91 5.347 10.553.926zm-49.883 17.18c-.82 0-1.636-.2-2.424-.592-1.292-.645-2.194-1.733-2.548-3.072l-1.482-4.603-.024-.106c-.287-1.206-.149-2.46.4-3.624a5.684 5.684 0 0 1 2.485-2.62l.184-.097 4.307-1.521c.11-.04.244-.214.297-.285.18-.252.247-.414.27-.49l1.255-40.032-6.076-.74a5.186 5.186 0 0 1-3.357-1.78c-.927-1.063-1.343-2.425-1.2-3.937l.421-4.79c.143-1.397.746-2.593 1.75-3.503.88-.802 1.956-1.228 3.108-1.228.291 0 .587.028.88.082l.832.081-4.01-4.899-.055-.08c-.812-1.147-1.166-2.463-1.025-3.806.14-1.356.714-2.52 1.662-3.36l3.508-3.273.086-.067c1.01-.805 2.168-1.228 3.348-1.228l.308.01c1.315.085 2.52.675 3.498 1.707l.077.082 6.365 7.895.068.1c.681 1.017 1.009 2.24.945 3.539-.075 1.467-.699 2.739-1.762 3.605l-1.013.94 2.149.21.158.034c1.287.275 2.397.914 3.21 1.847.909 1.047 1.325 2.373 1.21 3.845l-.192 5.65c.081-.102.168-.2.259-.297.853-.902 1.911-1.439 3.087-1.573l-3.417-16.008c-.397-2.074.29-3.384.933-4.13.877-1.02 2.156-1.583 3.597-1.583l14.745-.11c.022-.04.042-.08.06-.12v-2.548l.011-.125c.163-1.777.938-2.88 1.56-3.493.66-.652 1.831-1.43 3.652-1.43h.528c1.458 0 2.755.61 3.754 1.763.926 1.076 1.36 2.371 1.26 3.76v2.074l12.25-.106c1.457 0 2.75.577 3.665 1.627.901 1.042 1.296 2.35 1.146 3.79l-1.577 16.11c-.052.43-.146.84-.285 1.235.803.297 1.52.816 2.099 1.528a5.592 5.592 0 0 1 1.254 3.547v2.012c0 .628-.09 1.223-.273 1.774.752.325 1.287.79 1.648 1.207.623.725 1.319 1.979 1.144 3.878l-.94 20.94c.003 1.366-.615 2.703-1.737 3.642-.208.174-.427.33-.652.47l.452.376c1.207.867 1.911 2.175 1.99 3.706a5.912 5.912 0 0 1-.381 2.468l2.322.215c1.53.163 2.77.86 3.628 2.018.809 1.1 1.155 2.363 1.003 3.66l-.298 4.494c-.03 2.03-.959 3.23-1.74 3.882-.927.768-2.03 1.172-3.199 1.172-.2 0-.403-.012-.609-.036l-53.235-4.34h-1.613l-.017.008c-.602.318-1.286.571-2.087.771l-10.198 3.68-.119.03c-.42.11-.852.168-1.283.168z" fill="#FFF"/><path d="M277.453 95.298h-.526c-2.165 0-4.163.795-5.624 2.238-.952.937-2.14 2.607-2.379 5.224l-.022.253v.02l-12.047.09c-2.228 0-4.26.909-5.681 2.559a7.013 7.013 0 0 0-1.326 2.307l-.079-.098-6.218-7.713-.14-.174-.153-.162c-1.471-1.552-3.318-2.444-5.34-2.577a7.922 7.922 0 0 0-.5-.015c-1.822 0-3.583.636-5.094 1.836l-.17.137-.162.151-3.444 3.209c-1.44 1.308-2.311 3.074-2.521 5.111-.213 2.013.313 3.989 1.524 5.7l.114.158.122.15.841 1.027a7.702 7.702 0 0 0-1.44 1.037 8.083 8.083 0 0 0-2.637 5.232l-.004.042-.004.042-.422 4.807c-.21 2.223.457 4.368 1.882 6.002a7.946 7.946 0 0 0 5.156 2.72l3.507.427-1.134 36.15-2.854 1.01-.392.138-.369.195a8.456 8.456 0 0 0-3.705 3.902c-.82 1.738-1.025 3.625-.59 5.454l.05.212.068.209 1.428 4.434c.574 2.092 1.98 3.783 3.983 4.78a8.17 8.17 0 0 0 3.673.888c.674 0 1.347-.088 2.001-.26l.238-.063.232-.084 9.952-3.591c.698-.18 1.334-.399 1.923-.66h.858l53.149 4.336c.27.027.541.04.809.04a7.723 7.723 0 0 0 4.981-1.809c1.73-1.446 2.698-3.535 2.757-5.915l.3-4.466c.184-1.951-.348-3.836-1.542-5.46-1.224-1.652-2.992-2.727-5.03-3.073l-.005-.112a7.694 7.694 0 0 0-1.299-3.938c.79-1.192 1.222-2.59 1.252-4.09l.94-20.878c.163-2.181-.478-4.23-1.812-5.784a7.47 7.47 0 0 0-.719-.724c.007-.148.01-.297.01-.447v-2.012a8.348 8.348 0 0 0-3.04-6.473l1.538-15.69c.224-2.162-.417-4.257-1.809-5.866-1.47-1.685-3.514-2.603-5.766-2.603l-9.471.082a7.919 7.919 0 0 0-1.94-4.835c-1.53-1.768-3.614-2.737-5.878-2.737m13.493 80.492c.702 0 1.108-.112 1.213-.335.105-.224-.09-.56-.58-1.007l-13.493-11.067c-.37-.336-.769-.503-1.197-.503-.143 0-.289.02-.437.056-.6.15-1.072.522-1.424 1.118l-4.322 7.937c-.352.598-.42 1.1-.21 1.51.21.41.667.614 1.37.614l19.08 1.677m-1.295-13.762c.126 0 .241-.034.346-.1.351-.224.528-.671.528-1.342l.526-8.832c0-.595-.228-1.136-.684-1.62-.458-.484-.968-.728-1.53-.728h-3.372c-.633 0-1.302.207-2.003.615-.703.411-1.16.914-1.37 1.51l-.634.894c-.28.598-.368 1.25-.263 1.956.107.71.403 1.25.896 1.621l6.535 5.478c.394.366.735.548 1.025.548m-57.46-42.639c.15 0 .302.019.46.056l14.97 1.454c.7.15 1.265.466 1.686.95.422.486.597 1.101.527 1.845l-1.58 46.283c0 .598.21 1.137.632 1.62.421.487.948.803 1.58.95l8.182.56c.639.075 1.421.112 2.345.112l.214-.447c.07-.297.195-.578.373-.839.178-.26.337-.503.48-.727l10.965-19.676c.281-.595.298-1.098.053-1.509-.246-.408-.65-.615-1.212-.615h-7.273c-.633 0-1.178.244-1.634.727-.458.485-.686 1.026-.686 1.621v13.527c0 .671-.214 1.25-.64 1.733-.427.485-1.032.727-1.813.727h-4.477c-.64 0-1.192-.242-1.654-.727a2.422 2.422 0 0 1-.693-1.733v-23.225c0-.753.231-1.356.693-1.807a2.277 2.277 0 0 1 1.654-.68h43.193c.772 0 1.352.224 1.74.672.385.448.543 1.046.474 1.794l-.949 21.07c0 .673-.246 1.213-.738 1.624a2.552 2.552 0 0 1-1.687.617l-1.898-.112a3.103 3.103 0 0 0-.343-.021c-.417 0-.654.119-.71.359-.071.298.14.672.633 1.12l3.9 3.25c.562.374.86.915.895 1.625.035.708-.123 1.325-.473 1.849l-.738.895c-.353.599-.458 1.084-.316 1.458.14.375.526.6 1.159.672l4.85.45c.7.074 1.245.373 1.633.896.385.524.543 1.083.475 1.68l-.318 4.708c0 .818-.246 1.433-.736 1.844-.419.347-.885.52-1.403.52-.093 0-.188-.006-.284-.017l-53.445-4.36c-.705 0-1.266-.018-1.687-.056a3.99 3.99 0 0 0-.35-.018c-.19 0-.283.025-.283.074-.072 0-.317.112-.738.336-.421.223-.95.41-1.582.559l-10.224 3.689c-.188.05-.377.074-.569.074-.383 0-.772-.1-1.171-.298-.598-.299-.966-.746-1.106-1.341l-1.476-4.584c-.141-.595-.071-1.19.21-1.789a2.842 2.842 0 0 1 1.266-1.341l4.11-1.453c.633-.224 1.176-.652 1.634-1.286.456-.632.72-1.247.79-1.845l1.266-40.358c0-.744-.194-1.36-.58-1.844a2.223 2.223 0 0 0-1.528-.839l-6.432-.782a2.394 2.394 0 0 1-1.58-.839c-.422-.483-.598-1.098-.527-1.844l.422-4.808c.068-.67.35-1.23.843-1.676.37-.336.778-.504 1.226-.504m5.226-16.55c.046 0 .091.002.136.005.596.039 1.141.317 1.634.838l6.22 7.714c.35.523.51 1.138.475 1.845-.037.71-.301 1.25-.791 1.62l-3.373 3.131c-.493.457-.998.685-1.516.685-.074 0-.149-.004-.224-.014-.598-.074-1.143-.372-1.634-.895l-6.219-7.602c-.423-.595-.599-1.23-.528-1.9.07-.67.317-1.19.738-1.565l3.48-3.242c.517-.414 1.052-.62 1.602-.62m30.338 18.842l3.9-.112c.562 0 1.088-.241 1.581-.726.492-.484.738-1.062.738-1.733.069-.67-.123-1.21-.58-1.621a2.367 2.367 0 0 0-1.633-.615h-4.955c-.703 0-1.212.224-1.529.67-.316.448-.44 1.007-.368 1.678l.105.223c.07.671.385 1.212.948 1.621.563.411 1.16.615 1.793.615m13.703-.335l4.007-.112c.772 0 1.37-.24 1.79-.727a2.949 2.949 0 0 0 .74-1.62 1.958 1.958 0 0 0-.475-1.566c-.386-.447-.896-.67-1.528-.67h-4.427c-.633 0-1.16.243-1.582.726-.422.485-.633 1.026-.633 1.621-.141.671.017 1.23.475 1.677.456.447 1.002.67 1.633.67m-4.005-20.458c.633 0 1.176.266 1.634.796.456.53.65 1.133.58 1.815v2.496c0 .68.193 1.267.58 1.759.385.492.93.736 1.634.736l12.86-.111c.632 0 1.142.223 1.528.666.386.446.545 1.002.475 1.669l-1.58 16.125c-.072.594-.336 1.15-.792 1.668-.458.519-1.037.777-1.739.777l-11.386.447c-.631 0-1.176.056-1.634.168-.458.112-.684.243-.684.391 0 .076.226.168.684.28.458.112 1.003.168 1.634.168l14.759.111c.633 0 1.16.262 1.582.783.421.523.631 1.118.631 1.789v2.012c0 .746-.228 1.342-.684 1.789a2.256 2.256 0 0 1-1.634.67l-39.53-.335c-.705 0-1.266-.26-1.688-.782-.42-.52-.632-1.08-.632-1.677v-2.124c0-.744.228-1.36.684-1.845.458-.484 1.003-.727 1.635-.727l14.97.224c.251.03.488.045.708.045.329 0 .62-.034.872-.101.421-.112.633-.204.633-.28 0-.074-.212-.148-.633-.223a9.514 9.514 0 0 0-1.58-.112l-9.91.335c-.633 0-1.212-.222-1.74-.668-.527-.442-.861-1.036-1.001-1.778l-3.584-16.795c-.142-.74-.037-1.315.316-1.723.352-.408.843-.612 1.476-.612l15.18-.113c.633 0 1.16-.264 1.582-.794.42-.528.701-1.095.843-1.7v-2.837c.068-.755.316-1.342.738-1.758.421-.415.982-.624 1.687-.624h.526" fill="#231F20"/><path d="M362.344 192.9c-1.29 0-2.46-.52-3.384-1.502l-2.379-2.412a5.393 5.393 0 0 1-1.486-3.493c-.077-1.417.394-2.696 1.33-3.625l5.91-7.045c.958-1.013 2.172-1.548 3.514-1.548 1.168 0 2.3.388 3.274 1.126l.187.141 2.48 2.63c.98 1.046 1.498 2.306 1.498 3.65 0 1.318-.462 2.519-1.337 3.475l-5.865 6.886c-1.001 1.07-2.156 1.624-3.429 1.706l-.313.01zm6.361-47.012l8.335-1.087-4.412-.62c-1.3-.168-2.467-.894-3.262-2.04l-.66 3.747zm20.326-2.63c1.14 0 2.206.45 3.077 1.301 1 .98 1.526 2.21 1.526 3.562v4.424l1.405-3.028c.108-.229.163-.553.163-.949 0-.394-.055-.72-.158-.939l-7.083-17.37c-.1-.187-.248-.359-.454-.523l-15.863-.06a.554.554 0 0 0-.106.16l-.195 1.104a4.425 4.425 0 0 1 2.138-.543c.315 0 .637.034.959.098l8.632 1.103c1.36.182 2.538.926 3.334 2.1.72 1.07 1.023 2.326.889 3.64l-.314 3.434c-.118 1.12-.53 2.096-1.205 2.889l2.345-.306c.302-.065.607-.097.91-.097zm-35.77 14.939l.464-2.906a4.014 4.014 0 0 1-.464-.092v2.998zm-8.283 40.455c-1.373 0-2.632-.584-3.546-1.642-.82-.95-1.257-2.161-1.257-3.5v-41.368a4.871 4.871 0 0 1-.963.1c-.994-.001-1.953-.304-2.85-.901l-2.935-2.035-.135-.123c-.994-.901-1.597-2.047-1.743-3.313-.141-1.19.133-2.413.791-3.529l7.047-11.766c.103-.155.31-.527.527-1.281.216-.75.26-1.24.26-1.52v-16.433c0-1.34.436-2.55 1.26-3.504.912-1.056 2.17-1.639 3.544-1.639h3.268c1.298 0 2.503.507 3.487 1.467 1 .981 1.526 2.25 1.526 3.676v24.26c0 .41.079.818.24 1.247.196.518.382.763.476.862l2.46 2.552 3.401-19.86.02-.083c.27-1.157.874-2.164 1.792-2.997 1-.913 2.2-1.398 3.465-1.398h16.876l-.12-.297a5.415 5.415 0 0 1 0-3.652 5.15 5.15 0 0 1 2.484-2.879l2.887-1.474a4.749 4.749 0 0 1 2.222-.562c.61 0 1.21.125 1.782.366 1.16.492 2.075 1.395 2.649 2.61l.067.153 2.068 5.155c.087.158.23.312.437.466.08.06.137.095.172.114h4.844c.203 0 .404.013.602.037a5.568 5.568 0 0 1 .057-1.253c.23-1.46 1.026-2.65 2.253-3.376l2.51-1.81a4.712 4.712 0 0 1 3.767-.867c1.288.257 2.376.992 3.145 2.125l.095.153 4.073 6.932.054.118c.52 1.11.686 2.291.493 3.516-.225 1.44-.977 2.627-2.12 3.355l-2.578 1.787a4.433 4.433 0 0 1-2.834 1.005c-.295 0-.6-.028-.917-.088-1.428-.267-2.59-1.111-3.27-2.377l-.423-.734v.197c0 1.433-.513 2.688-1.481 3.627-.822.799-1.827 1.271-2.93 1.379l1.432 3.524a4.432 4.432 0 0 1 1.355-.61c.425-.112.85-.168 1.27-.168.877 0 1.713.236 2.483.701l2.887 1.638c1.207.642 2.085 1.797 2.402 3.218.265 1.2.184 2.338-.242 3.388l-.04.099-3.122 6.293c-.082.27-.175.7-.227 1.338-.024.277.007.389.007.39l.158.232.05.148 2.506 6.005a4.78 4.78 0 0 1 1.62-.286c.525 0 1.046.09 1.547.267.802.283 1.932.928 2.797 2.386l.076.129 1.589 3.49.04.115a5.678 5.678 0 0 1 .101 3.504c-.376 1.271-1.15 2.289-2.238 2.947l-3.343 1.902a4.377 4.377 0 0 1 1.996 2.206l3.377 5.86c.616 1.147.806 2.35.593 3.556-.236 1.34-.98 2.465-2.1 3.18l-2.78 1.968a4.613 4.613 0 0 1-2.678.84c-.315 0-.643-.029-.984-.093-1.45-.271-2.61-1.16-3.283-2.507l-3.285-5.772c-.742-1.16-.948-2.558-.58-3.954.286-1.102.853-2.056 1.653-2.78a4.76 4.76 0 0 1-2.694-2.85l-2.13-5.338a4.883 4.883 0 0 1-1.565 1.057 4.31 4.31 0 0 1-1.696.35c-.863 0-1.7-.255-2.49-.757 0 0-2.802-1.591-2.805-1.594v1.554c0 .425-.05.841-.142 1.243l.097-.037a5.018 5.018 0 0 1 1.869-.368c.65 0 1.29.132 1.9.392 1.232.52 2.138 1.484 2.62 2.787l1.515 3.64c.581 1.173.657 2.48.219 3.79-.437 1.317-1.305 2.35-2.506 2.984l-3.023 1.49a4.544 4.544 0 0 1-2.124.528c-.688 0-1.36-.16-1.996-.477-1.15-.567-2-1.52-2.464-2.758l-1.551-3.62c-.555-1.17-.629-2.522-.171-3.817l.038-.105-13.796 2.336a5.25 5.25 0 0 1-.775.062 5.053 5.053 0 0 1-2.858-.901 5.04 5.04 0 0 1-2.091-3.068l-2.138-9.558-.795 4.507c-.213 1.854-1.16 2.931-1.925 3.511-.833.632-1.802.969-2.8.969-.366 0-.737-.046-1.102-.136l-3.328-.682-.122-.038c-1.111-.335-2.073-1.07-2.782-2.126a4.652 4.652 0 0 1-.142-.224l-.002 27.96c0 1.425-.528 2.696-1.524 3.672-.986.962-2.191 1.47-3.49 1.47h-3.267zm36.62 2.253c-1.07.002-2.107-.356-3-1.033-1.117-.85-1.787-2.06-1.935-3.506l-1.677-12.549c-.15-1.267.137-2.494.826-3.588.79-1.257 1.988-2.05 3.37-2.235l3.046-.54a5.11 5.11 0 0 1 .743-.06c1.12 0 2.198.403 3.117 1.166 1.057.883 1.69 2.082 1.837 3.476l.553 3.788 15.503-2.546a4.56 4.56 0 0 1 .997-.112c1.053 0 2.066.379 2.932 1.096 1.044.874 1.677 2.022 1.832 3.327l.52 3.625a5.123 5.123 0 0 1-.996 3.734c-.84 1.132-1.98 1.823-3.3 2.002l-23.636 3.9c-.31.043-.522.055-.732.055z" fill="#7344A9"/><path d="M359.544 183.117c-1.29 0-2.46-.52-3.384-1.5l-2.379-2.413a5.393 5.393 0 0 1-1.486-3.493c-.077-1.417.394-2.696 1.33-3.625l5.91-7.045c.958-1.013 2.172-1.548 3.514-1.548 1.168 0 2.3.388 3.274 1.126l.187.141 2.48 2.63c.98 1.046 1.498 2.306 1.498 3.65 0 1.318-.462 2.519-1.337 3.475l-5.865 6.886c-1.001 1.07-2.156 1.624-3.429 1.706l-.313.01zm6.361-47.011l8.335-1.087-4.412-.62c-1.3-.168-2.467-.894-3.262-2.04l-.66 3.747zm20.326-2.63c1.14 0 2.206.45 3.077 1.301 1 .98 1.526 2.21 1.526 3.562v4.424l1.405-3.028c.108-.229.163-.553.163-.949 0-.394-.055-.72-.158-.939l-7.083-17.37c-.1-.187-.248-.36-.454-.523l-15.863-.06a.554.554 0 0 0-.106.16l-.195 1.104a4.425 4.425 0 0 1 2.138-.543c.315 0 .637.034.959.098l8.632 1.103c1.36.181 2.538.926 3.334 2.1.72 1.07 1.023 2.326.889 3.64l-.314 3.434c-.118 1.12-.53 2.096-1.205 2.888l2.345-.306c.302-.064.607-.096.91-.096zm-35.77 14.939l.464-2.906a4.014 4.014 0 0 1-.464-.092v2.998zm-8.283 40.455c-1.373 0-2.632-.584-3.546-1.642-.82-.95-1.257-2.161-1.257-3.5V142.36a4.871 4.871 0 0 1-.963.1c-.994-.001-1.953-.304-2.85-.901l-2.935-2.035-.135-.123c-.994-.901-1.597-2.047-1.743-3.313-.141-1.19.133-2.414.791-3.529l7.047-11.766c.103-.155.31-.527.527-1.282.216-.749.26-1.24.26-1.519V101.56c0-1.34.436-2.55 1.26-3.504.912-1.056 2.17-1.639 3.544-1.639h3.268c1.298 0 2.503.507 3.487 1.467 1 .981 1.526 2.25 1.526 3.676v24.26c0 .41.079.818.24 1.247.196.518.382.763.476.862l2.46 2.552 3.401-19.86.02-.083c.27-1.157.874-2.165 1.792-2.997 1-.913 2.2-1.398 3.465-1.398h16.876l-.12-.297a5.415 5.415 0 0 1 0-3.652 5.15 5.15 0 0 1 2.484-2.879l2.887-1.474a4.749 4.749 0 0 1 2.222-.562c.61 0 1.21.125 1.782.366 1.16.492 2.075 1.395 2.649 2.61l.067.153 2.068 5.155c.087.158.23.312.437.466.08.06.137.095.172.114h4.844c.203 0 .404.013.602.037a5.568 5.568 0 0 1 .057-1.253c.23-1.46 1.026-2.65 2.253-3.376l2.51-1.81a4.712 4.712 0 0 1 3.767-.867c1.288.257 2.376.992 3.145 2.125l.095.153 4.073 6.932.054.118c.52 1.11.686 2.291.493 3.516-.225 1.44-.977 2.627-2.12 3.355l-2.578 1.787a4.433 4.433 0 0 1-2.834 1.005c-.295 0-.6-.028-.917-.088-1.428-.267-2.59-1.111-3.27-2.377l-.423-.734v.197c0 1.433-.513 2.687-1.481 3.627-.822.799-1.827 1.271-2.93 1.379l1.432 3.524a4.432 4.432 0 0 1 1.355-.61c.425-.112.85-.168 1.27-.168.877 0 1.713.236 2.483.701l2.887 1.638c1.207.641 2.085 1.797 2.402 3.218.265 1.2.184 2.338-.242 3.388l-.04.099-3.122 6.293c-.082.27-.175.7-.227 1.338-.024.277.007.389.007.39l.158.232.05.148 2.506 6.005a4.78 4.78 0 0 1 1.62-.286c.525 0 1.046.09 1.547.267.802.283 1.932.927 2.797 2.386l.076.129 1.589 3.49.04.115a5.678 5.678 0 0 1 .101 3.504c-.376 1.271-1.15 2.289-2.238 2.947l-3.343 1.902a4.377 4.377 0 0 1 1.996 2.206l3.377 5.86c.616 1.147.806 2.35.593 3.556-.236 1.34-.98 2.465-2.1 3.18l-2.78 1.968a4.613 4.613 0 0 1-2.678.84c-.315 0-.643-.029-.984-.093-1.45-.271-2.61-1.16-3.283-2.507l-3.285-5.772c-.742-1.16-.948-2.558-.58-3.954.286-1.102.853-2.056 1.653-2.78a4.76 4.76 0 0 1-2.694-2.85l-2.13-5.338a4.883 4.883 0 0 1-1.565 1.057 4.31 4.31 0 0 1-1.696.35c-.863 0-1.7-.255-2.49-.757 0 0-2.802-1.591-2.805-1.594v1.554c0 .425-.05.841-.142 1.243l.097-.037a5.018 5.018 0 0 1 1.869-.368c.65 0 1.29.132 1.9.391 1.232.522 2.138 1.485 2.62 2.788l1.515 3.64c.581 1.173.657 2.48.219 3.79-.437 1.317-1.305 2.35-2.506 2.984l-3.023 1.49a4.544 4.544 0 0 1-2.124.528c-.688 0-1.36-.16-1.996-.477-1.15-.567-2-1.52-2.464-2.758l-1.551-3.62c-.555-1.17-.629-2.522-.171-3.817l.038-.105-13.796 2.336a5.25 5.25 0 0 1-.775.062 5.053 5.053 0 0 1-2.858-.901 5.04 5.04 0 0 1-2.091-3.068l-2.138-9.558-.795 4.506c-.213 1.855-1.16 2.932-1.925 3.512-.833.632-1.802.969-2.8.969-.366 0-.737-.046-1.102-.136l-3.328-.682-.122-.038c-1.111-.335-2.073-1.07-2.782-2.126a4.652 4.652 0 0 1-.142-.224l-.002 27.96c0 1.425-.528 2.695-1.524 3.672-.986.962-2.191 1.47-3.49 1.47h-3.267zm36.62 2.253c-1.07.001-2.107-.356-3-1.033-1.117-.85-1.787-2.06-1.935-3.506l-1.677-12.549c-.15-1.267.137-2.494.826-3.588.79-1.257 1.988-2.05 3.37-2.235l3.046-.54a5.11 5.11 0 0 1 .743-.06c1.12 0 2.198.403 3.117 1.166 1.057.883 1.69 2.082 1.837 3.475l.553 3.789 15.503-2.546a4.56 4.56 0 0 1 .997-.112c1.053 0 2.066.379 2.932 1.096 1.044.874 1.677 2.022 1.832 3.327l.52 3.625a5.123 5.123 0 0 1-.996 3.734c-.84 1.132-1.98 1.823-3.3 2.002l-23.636 3.9c-.31.042-.522.055-.732.055z" fill="#FFF"/><g transform="translate(325 92.335)"><mask id="d" fill="#fff"><use xlink:href="#c"/></mask><path d="M74.646 78.58c.209-.21.406-.433.59-.665.08.178.166.354.259.526l-.849.14zm-27.982-4.687l.028-.004.096-.015 3.082-.523a7.304 7.304 0 0 0-2.627 1.42 8.177 8.177 0 0 0-.579-.878zm8.322-1.408l2.152-.365c.045.227.1.45.165.672a7.439 7.439 0 0 0-2.317-.307zM28.26 75.832v-7.208l2.965.608c.566.134 1.14.202 1.712.202a7.21 7.21 0 0 0 1.524-.162 7.886 7.886 0 0 0-1.963 1.518l-.114.12-.105.127-4.019 4.795zm8.183-7.298a7.701 7.701 0 0 0 1.366-.946l.047.204c.044.193.096.385.154.57a7.577 7.577 0 0 0-1.567.172zm43.133-40.93l.1-.122c.234.119.475.226.721.321a7.25 7.25 0 0 0-.821-.198zM20.446 1.287h-3.268c-2.201 0-4.213.927-5.668 2.613-1.264 1.463-1.934 3.306-1.934 5.324v16.434c0 .001-.005.233-.154.753-.111.388-.195.546-.196.548l-.084.123-.04.07-6.958 11.626c-.988 1.673-1.388 3.5-1.174 5.31.222 1.935 1.137 3.686 2.639 5.048l.27.245.301.208 2.74 1.9.045.031.043.03c.805.535 1.672.919 2.568 1.143v38.7c0 2.02.67 3.864 1.941 5.331 1.448 1.679 3.46 2.607 5.66 2.607h3.268c2.018 0 3.951-.805 5.446-2.266 1.529-1.496 2.369-3.509 2.369-5.672v-1.067l.916.929c1.439 1.5 3.341 2.322 5.367 2.322.172 0 .346-.005.521-.018 1.94-.124 3.787-1.005 5.17-2.476l.095-.1.09-.105 4.467-5.246 1.204 9.01c.25 2.158 1.315 4.049 3.01 5.337 1.39 1.05 3.012 1.606 4.697 1.606.332 0 .667-.021.997-.065l.097-.012.096-.016 23.662-3.903c2.013-.301 3.81-1.397 5.068-3.095 1.237-1.671 1.768-3.622 1.536-5.641l-.01-.076-.01-.072-.018-.132a7.396 7.396 0 0 0 4.778-1.342l2.729-1.928c1.754-1.143 2.917-2.914 3.287-5.014a8.088 8.088 0 0 0-.839-5.28l-.042-.078-.043-.076-3.301-5.73c-.035-.074-.07-.15-.107-.222l.272-.154.066-.038.064-.039c1.695-1.025 2.897-2.595 3.47-4.54a8.475 8.475 0 0 0-.142-5.23l-.081-.23-.103-.222-1.474-3.242-.126-.274-.152-.258c-1.022-1.726-2.497-2.97-4.265-3.597a7.452 7.452 0 0 0-2.362-.428l-1.63-3.905c.01-.06.019-.111.029-.155l2.943-5.93.095-.192.08-.197c.631-1.562.763-3.3.38-5.03-.494-2.21-1.84-4.006-3.8-5.079l-2.858-1.624a7.83 7.83 0 0 0-1.145-.55 7.885 7.885 0 0 0 2.261.335c1.636 0 3.22-.55 4.504-1.554l2.462-1.708c1.803-1.166 2.982-3.02 3.33-5.247a8.818 8.818 0 0 0-.722-5.133l-.109-.236-.133-.223-4.005-6.82-.091-.155-.101-.148c-1.173-1.732-2.919-2.904-4.914-3.302a7.678 7.678 0 0 0-1.48-.147c-1.618 0-3.178.524-4.515 1.518l-2.384 1.718a7.458 7.458 0 0 0-3.199 4.126h-1.487L68.76 7.033l-.063-.156-.071-.151c-.872-1.845-2.285-3.224-4.084-3.987a7.326 7.326 0 0 0-2.878-.59 7.564 7.564 0 0 0-3.526.882l-2.82 1.44-.038.019-.04.02a7.902 7.902 0 0 0-3.81 4.418 8.307 8.307 0 0 0-.451 2.084H37.312c-1.975 0-3.827.738-5.357 2.134a8.611 8.611 0 0 0-2.625 4.42l-.038.165-.03.166-1.002 5.863V9.223c0-2.16-.839-4.173-2.362-5.665-1.502-1.468-3.435-2.272-5.453-2.272zM55.17 78.072c.467 0 .91.173 1.327.52.49.41.771.95.843 1.62l.633 4.36c.068.671.35 1.214.842 1.622.36.302.74.451 1.137.451.146 0 .294-.02.445-.06l16.34-2.683c.148-.04.295-.059.44-.059.398 0 .78.151 1.14.45.492.411.773.914.845 1.51l.526 3.689c.069.598-.088 1.157-.475 1.677-.386.522-.86.818-1.422.894l-23.719 3.913a2.046 2.046 0 0 1-.276.018c-.46 0-.896-.154-1.306-.465-.491-.374-.773-.895-.843-1.566l-1.687-12.632c-.07-.596.07-1.174.422-1.733.351-.56.808-.875 1.37-.95l3.163-.56c.085-.01.17-.016.255-.016zm-17.12-4.12c.56 0 1.088.187 1.58.56l2.32 2.459c.491.522.737 1.1.737 1.732 0 .635-.211 1.174-.632 1.621l-5.904 6.932c-.42.447-.913.69-1.476.726a2.113 2.113 0 0 1-.133.005c-.507 0-.955-.207-1.342-.62l-2.424-2.459c-.423-.447-.65-1.006-.686-1.677-.036-.67.158-1.19.58-1.565l5.904-7.043c.421-.447.912-.67 1.475-.67zm47-3.528c.155 0 .318.02.489.063.596.15 1 .522 1.212 1.117l3.479 6.037c.28.523.368 1.082.263 1.677-.105.598-.406 1.046-.896 1.342l-2.846 2.012c-.307.217-.66.326-1.06.326-.15 0-.306-.016-.469-.046-.598-.112-1.037-.464-1.317-1.062l-3.373-5.926c-.353-.52-.44-1.117-.264-1.788.175-.671.51-1.19 1-1.565l2.742-1.79a1.527 1.527 0 0 1 1.04-.397zM67.659 66.74c.271 0 .54.056.803.168.527.224.896.635 1.108 1.23l1.58 3.8c.28.524.317 1.102.105 1.734-.21.634-.597 1.1-1.159 1.397l-2.951 1.453c-.301.161-.596.24-.886.24-.252 0-.503-.06-.748-.184-.528-.26-.897-.687-1.107-1.285l-1.58-3.69c-.282-.595-.317-1.19-.107-1.788a2.363 2.363 0 0 1 1.16-1.342l2.952-1.565c.28-.112.557-.168.83-.168zm-16.222-7.658l2.003-.335c.562-.073 1.055-.391 1.476-.95.421-.56.633-1.135.633-1.733v-.67c0-.672-.212-1.211-.633-1.622-.31-.3-.657-.45-1.042-.45-.14 0-.284.02-.434.059l-3.162.335a1.795 1.795 0 0 0-1.318.839c-.316.486-.404 1.062-.263 1.733l.21.782c.14.67.475 1.174 1.003 1.51.526.335 1.036.502 1.527.502zm9.793-15.148c.402 0 .774.168 1.119.503.456.448.684.97.684 1.565v17.105c0 .67-.228 1.269-.684 1.789-.458.522-.896.821-1.32.894l-15.178 2.571a2.223 2.223 0 0 1-1.582-.391 2.25 2.25 0 0 1-.948-1.397l-3.9-17.44a2.159 2.159 0 0 1 .263-1.677c.316-.521.791-.82 1.422-.895l19.714-2.57c.14-.037.277-.057.41-.057zM45.682 31.076c.155 0 .317.02.485.059l8.749 1.118c.563.075 1.018.374 1.37.894.352.523.492 1.118.422 1.789l-.316 3.465c-.07.671-.353 1.213-.843 1.621-.416.348-.857.522-1.323.522-.086 0-.171-.007-.26-.018l-8.748-1.23c-.563-.073-1.019-.372-1.37-.895-.352-.52-.493-1.118-.422-1.788l.317-3.578a2.33 2.33 0 0 1 .79-1.509c.334-.3.717-.45 1.149-.45zM81.94 9.24c.126 0 .255.014.384.039.563.112 1.018.43 1.37.95l4.007 6.82a3.22 3.22 0 0 1 .263 1.9c-.105.67-.406 1.157-.896 1.453l-2.74 1.9c-.324.289-.7.431-1.13.431-.128 0-.261-.012-.4-.039-.597-.112-1.037-.427-1.317-.95l-4.005-6.931c-.353-.52-.475-1.118-.37-1.789.106-.67.438-1.154 1.002-1.453l2.635-1.9c.378-.287.777-.431 1.197-.431zM20.445 6.875c.563 0 1.071.224 1.529.671.456.447.686 1.006.686 1.677v24.26c0 .746.14 1.492.421 2.235.28.747.633 1.342 1.055 1.789l4.743 4.919c.368.335.697.504.987.504.096 0 .19-.02.278-.057.35-.148.597-.559.738-1.23l3.9-22.806c.14-.595.457-1.118.95-1.565.49-.447 1.018-.67 1.58-.67h18.975c.562 0 .966-.224 1.212-.671.245-.448.228-.967-.053-1.565l-.738-1.79a2.618 2.618 0 0 1 0-1.788 2.363 2.363 0 0 1 1.16-1.341l2.847-1.454c.32-.169.637-.254.948-.254.232 0 .46.047.686.142.526.224.93.635 1.212 1.23l2.107 5.255c.281.598.721 1.117 1.319 1.565.596.447 1.176.67 1.739.67h4.954c.562 0 1.054.224 1.476.671.423.447.633 1.006.633 1.677v3.578c0 .67-.21 1.213-.633 1.62-.422.411-.914.615-1.476.615H72.1c-.565 0-.968.224-1.213.671-.248.447-.23.97.053 1.565l3.268 8.05c.21.598.508.894.896.894.385 0 .72-.296 1.001-.894l.421-.783c.212-.595.597-.967 1.16-1.118a1.971 1.971 0 0 1 1.582.224l2.95 1.677c.564.299.914.765 1.055 1.397.14.634.105 1.213-.105 1.733l-3.163 6.372c-.211.598-.352 1.325-.421 2.18-.071.858.069 1.548.421 2.068l2.847 6.82c.211.522.58.894 1.106 1.118.226.096.449.144.669.144.291 0 .578-.086.86-.256l.21-.112a2.163 2.163 0 0 1 1.019-.274c.208 0 .414.035.616.106.527.188.964.579 1.317 1.174l1.476 3.242c.211.598.228 1.194.053 1.79-.177.597-.511 1.044-1.001 1.34l-7.275 4.137c-.24.17-.51.256-.809.256-.224 0-.463-.048-.72-.144-.596-.224-1-.632-1.21-1.23l-3.48-8.72c-.352-.595-.704-.911-1.054-.95l-.06-.003c-.329 0-.624.28-.889.841l-.738 1.677c-.281.598-.686 1.006-1.212 1.23a1.536 1.536 0 0 1-.6.127c-.338 0-.684-.117-1.034-.35l-2.951-1.678c-.493-.223-.81-.65-.95-1.285-.14-.632-.104-1.21.107-1.733l3.478-7.49c.28-.596.421-1.303.421-2.124 0-.82-.141-1.526-.421-2.124l-7.063-17.329a4.396 4.396 0 0 0-1.264-1.565c-.565-.447-1.16-.67-1.792-.67H43.53c-.563 0-1.089.243-1.58.726-.493.485-.81 1.026-.95 1.621l-6.113 34.657c-.072.746-.353 1.305-.843 1.676-.352.267-.721.402-1.108.402-.155 0-.313-.023-.474-.066l-3.268-.67c-.493-.15-.914-.484-1.265-1.007-.352-.52-.458-1.118-.315-1.789L29.3 49.804c.212-.595.212-.95 0-1.062a.253.253 0 0 0-.122-.029c-.204 0-.478.215-.826.644l-.211.224c-.421.523-.914.802-1.476.838a1.575 1.575 0 0 1-.114.005c-.521 0-1.01-.244-1.466-.731l-.95-1.006c-.298-.316-.56-.473-.789-.473a.471.471 0 0 0-.265.081c-.281.188-.421.579-.421 1.174v41.923c0 .67-.23 1.23-.686 1.677-.458.447-.966.67-1.529.67h-3.267c-.563 0-1.038-.223-1.423-.67-.388-.447-.58-1.006-.58-1.677V45.221c0-.67-.124-1.043-.369-1.118a.282.282 0 0 0-.083-.013c-.23 0-.5.266-.813.796l-.843 1.341c-.283.598-.704.95-1.265 1.062-.13.027-.26.04-.391.04-.433 0-.864-.143-1.296-.431l-2.74-1.9c-.493-.448-.774-.968-.844-1.566-.07-.595.07-1.19.421-1.789l6.958-11.626c.351-.521.65-1.21.896-2.068.245-.856.37-1.621.37-2.292V9.223c0-.67.191-1.23.58-1.677.384-.447.859-.67 1.422-.67h3.267z" fill="#231F20" mask="url(#d)"/></g><g transform="translate(115 92)"><use fill="#000" filter="url(#e)" xlink:href="#f"/><path stroke="#231F20" stroke-width="5.6" d="M329 16.774v54.49h13.114l11.122-54.49H329z" stroke-linejoin="square" fill="#FFF"/></g><g transform="translate(115 92)"><use fill="#000" filter="url(#g)" xlink:href="#h"/><use stroke="#231F20" stroke-width="5.6" fill="#FFF" xlink:href="#h"/></g><path d="M488.57 76.43l-12.034-15.624h21.842l-16.143-17.548 44.076-15.055v17.545l-24.192 5.63 19.147 20.893h-26.173l5.67 8.453-43.463 21.07 31.27-25.364z" stroke="#231F20" stroke-width="4" fill="#FFCF25" fill-rule="nonzero"/><path d="M69.742 99.43l12.033-15.624H59.933l16.143-17.548L32 51.203v17.545l24.193 5.63-19.148 20.893h26.173l-5.67 8.453 43.463 21.07-31.27-25.364z" stroke="#231F20" stroke-width="4" fill="#FFF" fill-rule="nonzero"/><path d="M46.753 190.112l-9.969-12.22-3.944 17.086-10.719-15.775L2.465 210.98l13.64 3.15 8.74-17.909 12.777 18.729 4.728-20.479 5.543 5.951 24.23-30.233-25.37 19.923z" stroke="#231F20" stroke-width="3.2" fill="#FFCF25" fill-rule="nonzero"/><path d="M487.077 215.972l10.39-11.864 3.346 17.212 11.262-15.39 18.535 32.443-13.742 2.671-8.11-18.202-13.422 18.271-4.01-20.63-5.748 5.753-23.16-31.06 24.66 20.796z" stroke="#231F20" stroke-width="3.2" fill="#EB5A6B" fill-rule="nonzero"/><g stroke="#231F20" stroke-linecap="square" stroke-width="4"><path d="M117.595 63.5v57M117.315 47v4M136.06 28.5v40M208.075 22v30M352.763 2v30M257.73 5v20M257.73 5v20M276.144 15v20M302.451 5v20M328.758 25v20M328.758 13v4M208.404 8v4M234.382 32v3M234.382 13v10M135.73 77v4M430.65 52.5v57M405.378 19v40M405.378 69v4M431.685 121v4"/></g><path d="M144.172 226.734v-3.047h11.484v-4.57h3.164v4.57h11.602v3.047h-10.078c2.5 5.079 6.21 9.102 11.133 12.07a13.567 13.567 0 0 0-1.641 3.165c-5.156-3.594-8.828-7.813-11.016-12.656v9.96h5.977v2.813h-5.977v4.922h-3.164v-4.922h-6.094v-2.813h6.094v-9.843c-2.11 4.843-5.781 9.14-11.015 12.89a89.196 89.196 0 0 0-1.641-3.164c5-3.203 8.75-7.343 11.25-12.422h-10.078zm52.718 19.922c-.157-1.172-.352-2.148-.586-2.93h4.218c1.875.157 2.813-.78 2.813-2.812.078-1.328.117-3.867.117-7.617h-18.164c.156 5.547-.977 10.117-3.398 13.71-1.094-1.093-1.875-1.913-2.344-2.46 1.094-1.797 1.836-3.594 2.226-5.39.313-1.641.47-4.259.47-7.852v-10.899h23.085v8.086h-20.04v2.227h21.33c0 .781-.04 1.992-.118 3.633-.078 3.75-.156 6.21-.234 7.382-.079 3.125-1.602 4.727-4.57 4.805h-1.993c-1.172.078-2.11.117-2.812.117zm-9.61-3.398v-7.852h12.89v7.852h-12.89zm-1.992-20.156v2.93h16.992v-2.93h-16.992zm4.922 14.648v3.164h7.031v-3.164h-7.031zm52.483 9.14c-3.672-1.015-6.719-2.148-9.14-3.398-2.657 1.485-5.82 2.695-9.493 3.633-.078-.078-.156-.234-.234-.469a90.72 90.72 0 0 1-1.406-2.344c3.593-.859 6.406-1.835 8.437-2.93-1.797-1.64-3.437-3.866-4.922-6.679l1.055-.586h-2.11v-2.812h17.11v3.164c-1.797 2.969-3.711 5.312-5.742 7.031 2.031 1.172 4.726 1.992 8.086 2.46-.235.392-.586 1.017-1.055 1.876-.312.469-.508.82-.586 1.055zm-16.992-16.288a58.36 58.36 0 0 0-2.11-2.227c2.813-1.172 4.102-3.008 3.868-5.508v-2.578h12.773v4.805c-.078 1.094.43 1.601 1.524 1.523h2.578l-.469 2.696h-3.398c-2.266.078-3.36-.938-3.282-3.047v-3.164h-6.797v.703c.235 2.89-1.328 5.156-4.687 6.797zm-6.211 16.406l-3.164-1.29c1.094-2.734 2.266-6.21 3.516-10.429.703.39 1.718.781 3.046 1.172-.625 1.797-1.601 4.844-2.93 9.14-.234.626-.39 1.094-.468 1.407zm18.984-12.89h-9.492c1.485 2.5 3.008 4.374 4.57 5.624 1.954-1.406 3.594-3.281 4.922-5.625zm-17.93-.704c-1.093-1.172-2.656-2.539-4.687-4.101l2.11-2.227c1.171.781 2.812 2.031 4.921 3.75l-2.343 2.578zm1.407-7.5a92.769 92.769 0 0 1-2.344-2.11l-2.46-2.109 2.109-2.11c.703.548 1.796 1.407 3.28 2.58.704.546 1.25.976 1.641 1.288l-2.226 2.461zm31.155-.703v-2.813h8.672c.234-.39.508-.976.82-1.757.313-.704.547-1.25.703-1.641l3.516.352c-.156.312-.39.82-.703 1.523a21.173 21.173 0 0 0-.703 1.523h15.117v2.813h-16.524c-.156.234-.351.586-.585 1.055-.47.78-.82 1.328-1.055 1.64h15.234v15.117c.156 2.422-1.172 3.633-3.984 3.633-1.25.078-2.813.117-4.688.117-.078-.468-.234-1.093-.468-1.875a8.108 8.108 0 0 0-.235-.937h3.985c1.562.156 2.265-.469 2.109-1.875v-1.055H260.84v5.977h-3.164v-13.125a45.223 45.223 0 0 1-3.984 3.75c-.234-.547-.625-1.445-1.172-2.696-.156-.234-.234-.39-.234-.468 3.515-2.89 6.172-5.977 7.968-9.258h-7.148zm7.734 10.547v2.695h13.477v-2.695H260.84zm0-5.156v2.695h13.477v-2.695H260.84zm36.195-1.055V226.5h5.625c.078-2.422.117-4.844.117-7.266h3.164c0 .938-.04 2.266-.117 3.985v3.281h10.664v3.047h-10.899c-.156 7.11-2.617 12.969-7.383 17.578l-2.46-2.46c4.375-3.985 6.601-9.024 6.68-15.118h-5.391zm-7.618 6.445a118.347 118.347 0 0 0-.703-4.219c2.657-3.828 4.727-8.046 6.211-12.656l3.164 1.055a48.784 48.784 0 0 1-2.812 6.562v20.274h-3.047v-14.883c-.938 1.25-1.875 2.54-2.813 3.867zm20.743 10.196c-2.5.078-3.711-1.094-3.633-3.516v-12.774h3.164v12.07c-.078 1.016.351 1.485 1.289 1.407h1.172c.937 0 1.484-.547 1.64-1.64 0-.157.04-.43.118-.82.156-1.563.273-2.813.351-3.75.235.077.625.233 1.172.468.86.234 1.445.43 1.758.586a92.425 92.425 0 0 1-.703 4.922c-.469 2.03-1.797 3.047-3.985 3.047h-2.343zm2.343-20.508a132.747 132.747 0 0 0-4.453-3.633l1.992-2.11a77.535 77.535 0 0 1 4.57 3.516l-2.109 2.227zm26.468 7.03c-.313-.155-.742-.312-1.29-.468-.624-.234-1.093-.39-1.405-.469 1.25-3.28 2.07-6.796 2.46-10.546l2.813.351c-.078.39-.156.977-.234 1.758a72.205 72.205 0 0 1-.352 1.992h3.047v-6.094h3.047v6.094h6.094v2.813h-6.094V234h5.39v2.93h-5.39v6.21h6.562v2.696h-16.757v-2.695h7.148v-6.211h-5.742V234h5.742v-5.86h-3.75a36.8 36.8 0 0 1-1.289 4.57zm-11.719 14.415c-.39-.313-.937-.86-1.64-1.64l-.586-.587c1.406-2.265 2.07-6.093 1.992-11.484v-13.008h8.555v23.203c.078 1.875-.782 2.891-2.579 3.047h-1.171c-.782.078-1.368.117-1.758.117a48.536 48.536 0 0 0-.586-2.93c.625.079 1.289.118 1.992.118 1.016.078 1.484-.313 1.406-1.172v-4.922h-3.164c-.156 3.516-.976 6.602-2.46 9.258zm2.461-16.758v4.922h3.164v-4.922h-3.164zm0-7.383v4.922h3.164v-4.922h-3.164zm34.788 1.758v-2.578h7.5v-3.047h3.164v3.047h6.563v2.578h-6.563v3.047h3.399a43.302 43.302 0 0 0 7.617-7.031l2.578 1.758c-2.422 2.5-4.336 4.257-5.742 5.273h6.914v2.695H379.5a55.365 55.365 0 0 1-4.453 2.813h11.133v13.828h-3.047v-1.406h-13.36v1.406h-3.164v-9.727a161.718 161.718 0 0 0-4.101 1.758c-.078-.312-.234-.86-.469-1.64-.234-.704-.43-1.211-.586-1.524 4.922-1.484 9.258-3.32 13.008-5.508h-12.539v-2.695h10.078v-3.047h-7.5zm5.274 15.938v2.695h13.359v-2.695h-13.36zm13.359-4.922h-12.89l-.47.234v2.461h13.36v-2.695z" fill="#FFF"/></g></svg>