<svg width="554" height="362" viewBox="0 0 554 362" xmlns="http://www.w3.org/2000/svg"><defs><linearGradient x1="50%" y1="41.537%" x2="50%" y2="0%" id="a"><stop stop-color="#FFF" stop-opacity="0" offset="0%"/><stop stop-color="#FFF" stop-opacity=".183" offset="100%"/></linearGradient><filter x="0%" y="0%" width="100%" height="100%" filterUnits="objectBoundingBox" id="b"><feGaussianBlur in="SourceGraphic"/></filter><filter x="0%" y="0%" width="100%" height="100%" filterUnits="objectBoundingBox" id="c"><feGaussianBlur in="SourceGraphic"/></filter><filter x="0%" y="0%" width="100%" height="100%" filterUnits="objectBoundingBox" id="d"><feGaussianBlur in="SourceGraphic"/></filter><filter x="0%" y="0%" width="100%" height="100%" filterUnits="objectBoundingBox" id="e"><feGaussianBlur in="SourceGraphic"/></filter><filter x="-37.3%" y="-223.7%" width="174.6%" height="547.5%" filterUnits="objectBoundingBox" id="f"><feGaussianBlur stdDeviation="3" in="SourceGraphic"/></filter><filter x="-83.3%" y="-83.3%" width="266.7%" height="266.7%" filterUnits="objectBoundingBox" id="g"><feGaussianBlur stdDeviation="5" in="SourceGraphic"/></filter></defs><g fill="none" fill-rule="evenodd"><g transform="translate(-786 -297)" fill="url(#a)"><path filter="url(#b)" transform="rotate(-144 648.401 304.378)" d="M648.401 50.895l61.483 506.966H586.919z"/><path filter="url(#c)" transform="rotate(-108 739.517 431.543)" d="M739.517 178.06L801 685.026H678.035z"/><path filter="url(#d)" transform="rotate(-72 739.517 585.918)" d="M739.517 332.435L801 839.401H678.035z"/><path filter="url(#e)" transform="rotate(-36 648.401 714.875)" d="M648.401 461.393l61.483 506.965H586.919z"/></g><g><path d="M457.536 228.256c-1.304-1.677-2.692-2.516-4.162-2.516-1.47 0-3.021.839-4.652 2.516-1.122 1.656-2.42 2.484-3.892 2.484-1.473 0-3.113-.828-4.922-2.484-1.344-1.677-2.75-2.516-4.22-2.516-1.47 0-3.002.839-4.593 2.516-1.86 1.656-3.522 2.484-4.987 2.484-1.465 0-2.74-.828-3.827-2.484-1.697-1.677-3.279-2.516-4.745-2.516" stroke="#43FFEA" stroke-width="5.141" stroke-linecap="round"/><path d="M476 60.13c1.522-2.087 3.14-3.13 4.857-3.13 1.716 0 3.526 1.043 5.429 3.13 1.31 2.06 2.824 3.09 4.542 3.09 1.719 0 3.633-1.03 5.743-3.09 1.569-2.087 3.21-3.13 4.927-3.13 1.715 0 3.502 1.043 5.36 3.13 2.17 2.06 4.11 3.09 5.819 3.09 1.71 0 3.198-1.03 4.466-3.09" stroke="#FFC710" stroke-width="6" stroke-linecap="round"/><path d="M10.136 328.313c1.11-1.677 2.29-2.516 3.541-2.516 1.252 0 2.571.839 3.959 2.516.955 1.656 2.06 2.484 3.312 2.484 1.253 0 2.649-.828 4.188-2.484 1.144-1.677 2.34-2.516 3.592-2.516 1.251 0 2.554.839 3.908 2.516 1.582 1.656 2.997 2.484 4.244 2.484 1.246 0 2.332-.828 3.256-2.484" stroke="#FFC710" stroke-width="4.375" stroke-linecap="round" filter="url(#f)" transform="rotate(-15 25.136 328.297)"/><circle fill="#FFDE10" cx="10" cy="172" r="10"/><circle fill="#FFDE10" filter="url(#g)" cx="517" cy="313" r="9"/><circle fill="#FF589F" cx="431.5" cy="355.5" r="6.5"/><circle fill="#FF589F" cx="398" cy="126" r="12"/><path d="M528.516 175.177c7.732 0 14-6.268 14-14s-6.268-14-14-14" stroke="#FF589F" stroke-width="4" stroke-linecap="round"/><path fill="#FF589F" d="M78.633 113L67 137.98l28.574-14.364z"/><path fill="#FFF" d="M136.941 293.07l11.633-24.979L120 282.454z"/><path d="M115.213 65.109c12.15 0 22-9.85 22-22s-9.85-22-22-22" stroke="#43FFEA" stroke-width="6" stroke-linecap="round"/><path d="M429.538.173c1.313 4.455 3.194 7.673 5.641 9.654 2.448 1.98 5.721 2.934 9.821 2.859l-3.474 6.795-16.167-6.795c-.479-4.211-.479-7.032 0-8.464.478-1.43 1.87-2.78 4.18-4.05zM105.538 158c1.313 4.455 3.194 7.673 5.641 9.654 2.448 1.98 5.721 2.934 9.821 2.859l-3.474 6.795-16.167-6.795c-.479-4.211-.479-7.032 0-8.464.478-1.43 1.87-2.78 4.18-4.049z" fill="#61EEFF"/></g></g></svg>