<svg width="94" height="94" viewBox="0 0 94 94" xmlns="http://www.w3.org/2000/svg"><defs><linearGradient x1="50%" y1="0%" x2="50%" y2="100%" id="a"><stop stop-color="#281B4B" offset="0%"/><stop stop-color="#352B56" offset="100%"/></linearGradient></defs><g fill="none" fill-rule="evenodd"><g transform="rotate(-126 46.51 45.49)"><circle stroke="#7F5BF9" stroke-width="3.6" fill="url(#a)" cx="45" cy="45" r="45"/><path d="M22.51 77.13A38.524 38.524 0 0 0 45 84.332a38.524 38.524 0 0 0 22.481-7.196l-14.54-14.54a19.477 19.477 0 0 1-7.491 1.486c-2.905 0-5.659-.633-8.128-1.765L22.51 77.13zM21.82 12.283a38.524 38.524 0 0 1 22.491-7.202 38.524 38.524 0 0 1 22.481 7.196l-14.54 14.54a19.477 19.477 0 0 0-7.491-1.486c-2.905 0-5.659.632-8.128 1.765L21.821 12.283z" fill="#FFFEFF" opacity=".1"/><circle fill="#EB5A6B" cx="44.55" cy="44.55" r="15.75"/><circle fill="#FFF" cx="45" cy="45" r="6.3"/></g><g transform="translate(59 7)"><ellipse fill="#FFF" cx="7.5" cy="25.5" rx="7.5" ry="6.5"/><path d="M13.645 25.007V1.323c0-3.166 2.351 4.911 7.297 1.338" stroke="#FFF" stroke-width="4" stroke-linecap="round"/></g></g></svg>