<?xml version="1.0" encoding="UTF-8"?>
<svg width="162px" height="59px" viewBox="0 0 162 59" version="1.1" xmlns="http://www.w3.org/2000/svg" xmlns:xlink="http://www.w3.org/1999/xlink">
    <!-- Generator: Sketch 51.2 (57519) - http://www.bohemiancoding.com/sketch -->
    <title>昨日之星</title>
    <desc>Created with Sketch.</desc>
    <defs></defs>
    <g id="Page-1" stroke="none" stroke-width="1" fill="none" fill-rule="evenodd">
        <g id="足记游戏切图" transform="translate(-1211.000000, -57.000000)">
            <g id="昨日之星" transform="translate(1211.000000, 57.000000)">
                <rect id="Rectangle-27" stroke="#333333" stroke-width="4" fill="#FFFFFF" x="24" y="15" width="126" height="36" rx="5"></rect>
                <rect id="Rectangle-27-Copy" fill="#FF5E72" x="28" y="19" width="118" height="28" rx="3"></rect>
                <path d="M54.01,27.972 C53.416,29.578 52.734,31.052 51.964,32.416 L50.666,31.602 L50.666,41.106 L48.664,41.106 L48.664,39.786 L46.046,39.786 L46.046,41.634 L44,41.634 L44,24.672 L50.666,24.672 L50.666,30.392 C51.854,28.06 52.712,25.596 53.24,23 L55.33,23.44 C55.132,24.298 54.912,25.134 54.67,25.948 L63.47,25.948 L63.47,27.972 L56.87,27.972 L56.87,31.338 L62.678,31.338 L62.678,33.318 L56.87,33.318 L56.87,36.596 L63.162,36.596 L63.162,38.554 L56.87,38.554 L56.87,43.416 L54.78,43.416 L54.78,27.972 L54.01,27.972 Z M46.046,37.85 L48.664,37.85 L48.664,33.098 L46.046,33.098 L46.046,37.85 Z M46.046,31.14 L48.664,31.14 L48.664,26.586 L46.046,26.586 L46.046,31.14 Z M82.676,23.902 L82.676,43.35 L80.586,43.35 L80.586,41.81 L70.664,41.81 L70.664,43.372 L68.574,43.372 L68.574,23.902 L82.676,23.902 Z M70.664,39.764 L80.586,39.764 L80.586,33.648 L70.664,33.648 L70.664,39.764 Z M70.664,31.602 L80.586,31.602 L80.586,25.926 L70.664,25.926 L70.664,31.602 Z M96.822,23.066 C97.46,24.166 98.076,25.42 98.67,26.828 L105.49,26.828 L105.49,28.412 C102.982,33.164 99.352,36.838 94.578,39.39 C95.502,40.27 96.624,40.754 97.944,40.864 C98.978,40.908 100.452,40.93 102.366,40.93 C103.532,40.93 105.138,40.886 107.206,40.798 L106.7,42.866 L102.696,42.866 C100.738,42.866 99.33,42.844 98.494,42.822 C96.096,42.778 94.292,42.074 93.06,40.666 C92.598,40.182 92.224,39.94 91.916,39.94 C91.432,39.94 90.596,41.084 89.408,43.394 L87.736,42.228 C89.232,39.236 90.64,37.762 91.96,37.762 C92.246,37.762 92.51,37.828 92.752,37.96 C92.818,37.982 92.884,38.004 92.928,38.048 C97.262,35.76 100.584,32.702 102.916,28.874 L89.122,28.874 L89.122,26.828 L96.382,26.828 C95.81,25.618 95.15,24.496 94.402,23.462 L96.822,23.066 Z M113.52,35.804 C112.838,37.212 112.09,38.444 111.254,39.456 L109.89,37.828 C111.078,36.464 112.09,34.594 112.926,32.196 L114.818,32.614 L114.334,33.956 L119.218,33.956 L119.218,32.46 L121.33,32.46 L121.33,33.956 L128.414,33.956 L128.414,35.804 L121.33,35.804 L121.33,37.564 L127.6,37.564 L127.6,39.324 L121.33,39.324 L121.33,41.084 L129.404,41.084 L129.404,42.976 L110.682,42.976 L110.682,41.084 L119.218,41.084 L119.218,39.324 L113.3,39.324 L113.3,37.564 L119.218,37.564 L119.218,35.804 L113.52,35.804 Z M112.574,23.77 L127.116,23.77 L127.116,31.866 L112.574,31.866 L112.574,23.77 Z M125.048,30.106 L125.048,28.654 L114.642,28.654 L114.642,30.106 L125.048,30.106 Z M114.642,26.982 L125.048,26.982 L125.048,25.552 L114.642,25.552 L114.642,26.982 Z" fill="#333333"></path>
                <path d="M14.0053278,15.213622 C13.4686368,16.086323 12.9295985,16.7701562 12.3806821,17.2673933 C11.8469131,17.7509092 11.1426256,18.2040921 10.2653734,18.633455 C11.1744413,19.1853593 11.8778531,19.6858708 12.3806821,20.1413596 C12.9015166,20.6131586 13.4378525,21.2447286 13.9950999,22.0381103 C14.4702219,21.2783643 14.9845959,20.6457559 15.5414155,20.1413596 C16.0779073,19.6553774 16.8056824,19.151978 17.7286348,18.6252436 C16.7968046,18.19519 16.0693046,17.7455828 15.5414155,17.2673933 C14.9955236,16.7728959 14.4864722,16.088871 14.0053278,15.213622 Z" id="Rectangle-Copy-4" stroke="#333333" stroke-width="2" fill="#43D2F6"></path>
                <path d="M7.92934872,46.2689867 C7.14131907,47.6279193 6.35480028,48.6662642 5.5587757,49.3873449 C4.77495548,50.0973702 3.69311146,50.7615473 2.30952431,51.3897787 C3.74164538,52.2291019 4.82224211,52.9776745 5.5587757,53.6448651 C6.31132807,54.3265663 7.09464678,55.2753502 7.91643724,56.4941235 C8.59724335,55.3285928 9.34014058,54.3783141 10.149819,53.6448651 C10.9411525,52.9280339 12.065666,52.1758916 13.5292301,51.3795163 C12.0475296,50.747615 10.9234584,50.0881479 10.149819,49.3873449 C9.36041649,48.6722629 8.62465263,47.6336445 7.92934872,46.2689867 Z" id="Rectangle-Copy-3" stroke="#333333" stroke-width="2" fill="#FFCB2B"></path>
                <path d="M152.427151,2.29722629 C151.44226,4.04488832 150.462654,5.36399205 149.475167,6.25850949 C148.498407,7.14330981 147.11868,7.97091182 145.331479,8.75331843 C147.1798,9.81889689 148.558061,10.7614778 149.475167,11.5922399 C150.407303,12.4366173 151.383473,13.6355432 152.412769,15.1924477 C153.25272,13.7041676 154.172855,12.5034684 155.17879,11.5922399 C156.167371,10.6967308 157.605802,9.75023449 159.501169,8.74197751 C157.579693,7.95311674 156.141812,7.13086587 155.17879,6.25850949 C154.2011,5.37286677 153.289158,4.05344019 152.427151,2.29722629 Z" id="Rectangle-Copy-2" stroke="#333333" stroke-width="2" fill="#F25A5A"></path>
            </g>
        </g>
    </g>
</svg>