<?xml version="1.0" encoding="UTF-8"?>
<svg width="398px" height="91px" viewBox="0 0 398 91" version="1.1" xmlns="http://www.w3.org/2000/svg" xmlns:xlink="http://www.w3.org/1999/xlink">
    <!-- Generator: Sketch 51.2 (57519) - http://www.bohemiancoding.com/sketch -->
    <title>优胜者</title>
    <desc>Created with Sketch.</desc>
    <defs></defs>
    <g id="Page-1" stroke="none" stroke-width="1" fill="none" fill-rule="evenodd">
        <g id="足记游戏切图" transform="translate(-91.000000, -1103.000000)">
            <g id="优胜者" transform="translate(91.000000, 1103.000000)">
                <path d="M8.99047565,27.0277228 C7.60950169,27.0277228 6.25766042,27.4248697 5.09612531,28.1718136 C1.75153905,30.3226039 0.783776215,34.7774869 2.93456652,38.1220731 L14.5384469,56.1666862 C15.3011742,57.3527651 15.3011742,58.8749576 14.5384469,60.0610366 L2.93456652,78.1056497 C2.18762257,79.2671848 1.79047565,80.619026 1.79047565,82 C1.79047565,85.9764502 5.01402545,89.2 8.99047565,89.2 L75.4357863,89.2 C79.4122365,89.2 82.6357863,85.9764502 82.6357863,82 L82.6357863,34.2277228 C82.6357863,30.2512726 79.4122365,27.0277228 75.4357863,27.0277228 L8.99047565,27.0277228 Z" id="Rectangle-3-Copy" stroke="#333333" stroke-width="3.6" fill="#FFC700"></path>
                <path d="M30,78 L70,78" id="Line-3" stroke="#E19000" stroke-width="3" stroke-linecap="square"></path>
                <path d="M30,38 L70,38" id="Line-3-Copy" stroke="#E19000" stroke-width="3" stroke-linecap="square"></path>
                <path d="M52,53 L82,53 L82,82.3550558 C82,84.5641948 80.209139,86.3550558 78,86.3550558 C77.0514241,86.3550558 76.1337186,86.0179495 75.4107006,85.4039127 L56.4863281,69.3320312 L52,53 Z" id="Rectangle-4" fill="#E19000"></path>
                <path d="M322.437712,27.0277228 C321.056738,27.0277228 319.704897,27.4248697 318.543361,28.1718136 C315.198775,30.3226039 314.231012,34.7774869 316.381803,38.1220731 L327.985683,56.1666862 C328.74841,57.3527651 328.74841,58.8749576 327.985683,60.0610366 L316.381803,78.1056497 C315.634859,79.2671848 315.237712,80.619026 315.237712,82 C315.237712,85.9764502 318.461262,89.2 322.437712,89.2 L388.883023,89.2 C392.859473,89.2 396.083023,85.9764502 396.083023,82 L396.083023,34.2277228 C396.083023,30.2512726 392.859473,27.0277228 388.883023,27.0277228 L322.437712,27.0277228 Z" id="Rectangle-3-Copy-2" stroke="#333333" stroke-width="3.6" fill="#FFC700" transform="translate(355.665129, 58.113861) scale(-1, 1) translate(-355.665129, -58.113861) "></path>
                <path d="M327,78 L367,78" id="Line-3-Copy-3" stroke="#E19000" stroke-width="3" stroke-linecap="square"></path>
                <path d="M327,38 L367,38" id="Line-3-Copy-2" stroke="#E19000" stroke-width="3" stroke-linecap="square"></path>
                <path d="M317,53 L347,53 L347,82.3550558 C347,84.5641948 345.209139,86.3550558 343,86.3550558 C342.051424,86.3550558 341.133719,86.0179495 340.410701,85.4039127 L321.486328,69.3320312 L317,53 Z" id="Rectangle-4-Copy" fill="#E19000" transform="translate(332.000000, 72.000000) scale(-1, 1) translate(-332.000000, -72.000000) "></path>
                <path d="M47.5617452,18.9188119 C46.7081871,18.9188119 45.8614288,19.0705862 45.0610089,19.3670478 C41.3321126,20.7481664 39.4288627,24.8906519 40.8099812,28.6195482 L54.499471,65.5799443 C55.5456003,68.4043997 58.2392697,70.2792079 61.2512351,70.2792079 L335.748065,70.2792079 C338.76003,70.2792079 341.4537,68.4043997 342.499829,65.5799443 L356.189319,28.6195482 C356.485781,27.8191283 356.637555,26.97237 356.637555,26.1188119 C356.637555,22.1423617 353.414005,18.9188119 349.437555,18.9188119 L47.5617452,18.9188119 Z" id="Rectangle-3" stroke="#333333" stroke-width="3.6" fill="#FFDC25"></path>
                <path d="M80.5,60.5 L330.5,60.5" id="Line-3" stroke="#E19000" stroke-width="3" stroke-linecap="square"></path>
                <g id="text" transform="translate(72.276382, 0.000000)">
                    <g id="Group-3" transform="translate(0.000000, 2.702970)" fill="#FF576B">
                        <path d="M17.7141146,31.8441363 L20.1568198,28.2926026 L20.080123,31.3934565 L17.7141146,31.8441363 Z M25.519356,0.900990099 C22.903637,0.900990099 20.7980411,2.93081666 20.7249116,5.52178378 L20.6312701,8.83825705 L4.33854223,10.3855911 C1.70677038,10.6347905 -0.230270777,12.9606519 0.022115341,15.5692927 L0.269150516,18.1293308 C0.50637563,20.5815593 2.55846205,22.4302302 5.04308298,22.4302302 C5.19201754,22.4302302 5.34362758,22.4231607 5.49612944,22.4081381 L9.73585948,22.0104794 L2.26951116,32.9178147 C1.54624211,33.9738194 1.28404593,35.2463271 1.5310811,36.4993938 C1.7790081,37.7524604 2.50673627,38.8323246 3.5787084,39.5410407 L5.70927531,40.9478687 C6.49943114,41.4701271 7.41890141,41.7449534 8.36780187,41.7449534 C8.87079046,41.7449534 9.36307716,41.6671891 9.82950097,41.5196135 C10.5063952,43.3735866 12.29361,44.6513964 14.33767,44.6513964 C14.6391064,44.6513964 14.9432183,44.6231185 15.2401956,44.5665626 L19.7537155,43.7111546 L19.7135835,45.5465702 C19.6859369,46.8155432 20.1594953,48.0200071 21.0459681,48.9363894 C21.9324409,49.8527717 23.1257011,50.3732628 24.4072518,50.3997733 L26.9837306,50.4545619 L27.022079,50.4554455 L27.0862903,50.4554455 C29.7091439,50.4554455 31.8156316,48.4203169 31.8807347,45.8213966 L31.9922127,41.3967812 L34.9173945,40.840059 C36.1784333,40.5988128 37.2682419,39.8865619 37.98616,38.8314409 C38.7049699,37.7772036 38.9653825,36.5082306 38.7183473,35.2595824 L38.5569272,34.4404056 L42.9830484,36.5223696 C43.622486,36.8228228 44.3332695,36.9810026 45.0387021,36.9810026 C46.8776427,36.9810026 48.5774587,35.9179284 49.3693982,34.2733889 L50.5029061,31.9174823 C51.0567287,30.7669232 51.1227236,29.4723233 50.6901891,28.2731615 C50.2576546,27.073116 49.3783164,26.1134331 48.2144864,25.57085 L35.3276334,19.5644368 L46.936503,18.4509925 C49.5664912,18.1982583 51.5008569,15.8732807 51.2493626,13.2672909 L51.0014356,10.7090201 C50.7651023,8.2576754 48.7130159,6.40900445 46.228395,6.40900445 C46.0741095,6.40900445 45.9189321,6.41695762 45.762863,6.4310966 L32.8501471,7.67709375 L32.8929546,5.78777325 C32.921493,4.50731235 32.4434755,3.29666263 31.5445171,2.37674559 C30.6464506,1.45682854 29.4407049,0.942523337 28.1493442,0.929268049 L25.5710818,0.900990099 L25.5523535,0.900990099 L25.519356,0.900990099 Z M25.519356,4.43573379 L25.5327333,4.43573379 L28.1109958,4.46401174 C28.7950246,4.47019754 29.3417125,5.03045441 29.3265515,5.7091252 L29.2248836,10.2088539 C29.2088308,10.8981289 29.7715716,11.4548511 30.4520331,11.4548511 C30.4921651,11.4548511 30.5322972,11.4522 30.5724293,11.4486653 L46.1079988,9.94993394 C46.1481308,9.9463992 46.1882629,9.94374814 46.228395,9.94374814 C46.8544552,9.94374814 47.3895495,10.4156364 47.4501935,11.0457045 L47.6981205,13.6039752 C47.7623318,14.2729255 47.2682614,14.8676461 46.5922591,14.9321552 L30.1140319,16.513953 C29.495998,16.5731599 29.020656,17.0786283 29.0037113,17.69279 L28.9484182,19.6916875 C28.9350409,20.1759474 29.2123981,20.6213251 29.6538508,20.827224 L46.6966024,28.769793 C47.3128526,29.0569909 47.5759406,29.7869155 47.2834225,30.3957751 L46.1490227,32.7516818 C45.9385523,33.18999 45.4979913,33.4462589 45.0387021,33.4462589 C44.862121,33.4462589 44.6828644,33.4091441 44.5125261,33.3287287 L30.5207035,26.749687 C30.3485815,26.6692716 30.1684331,26.6312731 29.9945275,26.6312731 C29.3604408,26.6312731 28.7852145,27.1261372 28.7655944,27.8154122 L28.6487655,31.8573916 C28.6282535,32.5563872 29.1990207,33.1104583 29.8750231,33.1104583 C29.9517199,33.1104583 30.0293086,33.1033888 30.1077891,33.0883661 L33.2889244,32.486576 C33.3674049,32.4715533 33.4449935,32.4644839 33.5207985,32.4644839 C34.0978085,32.4644839 34.611499,32.8683283 34.7265442,33.44891 L35.2170473,35.9382532 C35.3481454,36.600134 34.9111517,37.2408063 34.2431758,37.368057 L29.4701351,38.2773699 C28.9029352,38.3860632 28.4882372,38.8712068 28.4730762,39.4438353 L28.3143316,45.733028 C28.2982787,46.3949087 27.7515908,46.9207019 27.0862903,46.9207019 L27.0595356,46.9207019 L24.4830568,46.8659133 C23.8043789,46.8508907 23.2657174,46.2950522 23.2808784,45.6225672 L23.3816545,40.9231255 C23.3977073,40.2276647 22.8278319,39.678012 22.1553968,39.678012 C22.0795918,39.678012 22.0011113,39.6859652 21.921739,39.7009879 L14.5695441,41.0954443 C14.4919555,41.1095832 14.4143668,41.1166527 14.33767,41.1166527 C13.7570927,41.1166527 13.2389431,40.7066225 13.1301406,40.119855 L12.6672841,37.6375812 C12.5442124,36.9792352 12.9803142,36.3465161 13.6438311,36.2192653 L22.6030924,34.5128678 C23.1711841,34.4032908 23.5849903,33.9190309 23.6001513,33.3455187 L24.0032556,17.0954183 L23.3611425,17.1484395 L23.4681614,17.2014606 L9.38448093,37.6791145 C9.14725582,38.023752 8.76109614,38.2102097 8.36780187,38.2102097 C8.13325223,38.2102097 7.89691894,38.144817 7.68734036,38.0060783 L5.55677345,36.5992503 C4.98868173,36.2236838 4.83796352,35.4619465 5.22144773,34.9016896 L15.4747452,19.9249806 C16.0348105,19.1066875 15.4292622,18.0224048 14.4643089,18.0224048 C14.4241769,18.0224048 14.383153,18.0241722 14.3421291,18.027707 L5.15991189,18.8893007 C5.12067164,18.8928355 5.0814314,18.8954865 5.04308298,18.8954865 C4.41613089,18.8954865 3.88103665,18.4227146 3.82039264,17.7935302 L3.57335746,15.2326084 C3.50825433,14.5627745 4.0032165,13.9680538 4.67921889,13.9035448 L23.0284923,12.1617998 C23.6465261,12.1025928 24.1236518,11.5971245 24.1405965,10.9829628 L24.2913147,5.61987292 C24.3091512,4.95975954 24.8549473,4.43573379 25.519356,4.43573379 Z" id="Fill-3-Copy"></path>
                        <path d="M71.6274723,26.108456 L72.6307719,26.0045295 C73.1368376,25.9516855 73.6234732,25.8222177 74.0756645,25.6205298 L72.5477523,27.3996109 C72.2386372,27.7589501 71.9886955,28.15528 71.8023432,28.578032 L71.6274723,26.108456 Z M77.6861298,0.900990099 C75.2520686,0.900990099 73.2216234,2.72234643 72.9646162,5.13731696 L72.6917117,7.69496627 C72.4161576,10.2816798 74.3017602,12.6191458 76.8947949,12.9036226 L77.5880961,12.9802464 L75.2918119,14.5056764 C75.0904455,14.6404286 74.9014436,14.787511 74.7265728,14.9451623 C73.9290556,14.3471444 72.9381207,13.9957318 71.8685821,13.9957318 C71.7166741,13.9957318 71.5621165,14.0027777 71.4075589,14.0177502 L70.772548,14.0794015 L70.3035762,7.13570067 C70.1375371,4.65731734 68.0558672,2.7161813 65.5661653,2.7161813 C65.4487015,2.7161813 65.3303545,2.72058496 65.2111244,2.72939229 L62.657833,2.91874994 C60.0665646,3.11163052 58.0988257,5.37071126 58.2701639,7.95654404 L58.7585659,15.2886482 L57.9213053,15.3696757 C55.3185555,15.6215654 53.4029246,17.9387745 53.6519831,20.5360568 L53.8966257,23.0840181 C54.13067,25.5271721 56.1637647,27.369666 58.6234384,27.369666 C58.7788791,27.369666 58.9360863,27.3617394 59.0941766,27.3458862 L59.5984759,27.2965651 L60.3067913,37.9199694 L55.8776124,39.9033807 C54.7135729,40.4247747 53.8250876,41.3671593 53.376429,42.5587914 C52.9277704,43.7495427 52.9736961,45.0424591 53.5053742,46.1997426 L54.5563658,48.4834838 C55.3282706,50.1621614 57.0231049,51.2454633 58.8751464,51.2454633 C59.5507839,51.2454633 60.2061081,51.1054267 60.8243384,50.827115 L72.9946446,45.3621652 C73.2543013,46.2120728 73.7497688,46.9721456 74.44307,47.5657598 L76.3622336,49.209208 C77.2233402,49.9472625 78.3220239,50.3541612 79.4569182,50.3541612 C80.817025,50.3541612 82.1135423,49.7719966 83.0143923,48.7565111 L85.9607015,45.4370276 C86.0004449,45.5964403 86.0499033,45.755853 86.1081936,45.9126235 L86.9719497,48.2544932 C87.6555359,50.1093174 89.4475207,51.3564356 91.4293906,51.3564356 C91.9690174,51.3564356 92.5015787,51.2648394 93.0111771,51.0851698 L98.5505211,49.1343457 C99.5096614,48.7961441 100.319543,48.1743465 100.893614,47.3358884 L102.05677,45.6343118 C102.572551,44.8786427 102.856937,43.9979095 102.8799,43.0828276 L103.440723,20.4999468 C103.473401,19.2087918 102.966452,17.9449397 102.051471,17.0325 L100.288632,15.2745565 C99.5891481,14.576135 98.7086115,14.1234382 97.7521208,13.9578603 C99.1731674,12.81643 99.8284916,10.9325416 99.3904312,9.14289171 L98.6821159,6.25056377 C98.2087281,4.31647358 96.5562866,2.87471328 94.5700008,2.66421803 L78.1904291,0.927412096 C78.0208574,0.909797431 77.853052,0.900990099 77.6861298,0.900990099 Z M65.5661653,6.23911423 C66.200293,6.23911423 66.7355038,6.72968265 66.7796631,7.37173717 L67.4076085,16.6890141 C67.4508847,17.3319493 67.9878619,17.821637 68.6211064,17.821637 C68.6599666,17.821637 68.69971,17.8198755 68.7394534,17.8154719 L71.749352,17.5239492 C71.7899786,17.5204262 71.8297219,17.5186648 71.8685821,17.5186648 C72.4841629,17.5186648 73.0114251,17.9810497 73.0776641,18.6037281 L73.3505686,21.1649004 C73.4221067,21.8333769 72.9354711,22.430514 72.2660159,22.5000919 L69.0344376,22.8347706 C68.3808797,22.902587 67.8995433,23.4750636 67.9463521,24.127687 L68.7986268,36.1664295 C68.8463189,36.8296217 69.4027262,37.2955296 70.0130079,37.2955296 C70.1808133,37.2955296 70.3521514,37.2603002 70.5190736,37.1845572 L73.2596004,35.9374389 C73.4238731,35.8625766 73.5952112,35.8273473 73.7638998,35.8273473 C74.2311053,35.8273473 74.6771143,36.0977324 74.8784808,36.55131 L75.9056264,38.8693998 C76.1758814,39.4806287 75.9020936,40.1931419 75.2918119,40.4679307 L59.3732635,47.6150809 C59.2116404,47.6881817 59.0420686,47.7225303 58.8751464,47.7225303 C58.41324,47.7225303 57.9725301,47.4600718 57.7676309,47.0144208 L56.7166393,44.7306795 C56.4349029,44.1176892 56.7078074,43.3928457 57.3242714,43.1171762 L63.222189,40.4758573 C63.686745,40.2680042 63.9720141,39.7941697 63.938453,39.2886289 L62.9642986,24.6834296 C62.9219057,24.0396136 62.3849285,23.549926 61.751684,23.549926 C61.7110574,23.549926 61.671314,23.5516874 61.6298043,23.5560911 L58.7453181,23.8405679 C58.7046915,23.8449716 58.6640649,23.8467331 58.6234384,23.8467331 C58.0034416,23.8467331 57.4735299,23.3764215 57.4134732,22.7484587 L57.1688306,20.1996167 C57.1043581,19.5329017 57.5945264,18.9401682 58.2630984,18.8758747 L61.3357032,18.5781869 C61.9901442,18.5156548 62.4758967,17.9440589 62.4326205,17.2896741 L61.7958433,7.72314973 C61.751684,7.05819614 62.2533337,6.48219661 62.9201393,6.43199481 L65.4743139,6.24263717 C65.5052254,6.23999497 65.5361369,6.23911423 65.5661653,6.23911423 Z M77.6861298,4.42392304 C77.7294059,4.42392304 77.772682,4.42656524 77.8168414,4.4309689 L94.196413,6.16689411 C94.7068947,6.22149957 95.1281745,6.58964606 95.2509374,7.08637961 L95.9583696,9.97870755 C96.0793661,10.4727989 95.8779996,10.99067 95.4540702,11.2742661 L89.5508535,15.219951 C88.5519699,15.8884276 89.0271241,17.442041 90.2282573,17.442041 L90.2344396,17.442041 L96.9245753,17.4103346 L96.9298744,17.4103346 C97.2531206,17.4103346 97.5622357,17.5380409 97.790981,17.7652701 L99.5538207,19.5232136 C99.7896314,19.7583694 99.9176934,20.079837 99.9097447,20.4118734 L99.3489215,42.9965158 C99.3427392,43.2299101 99.2694347,43.4562585 99.1369568,43.6500198 L97.9746837,45.3515964 C97.8280748,45.5647339 97.6178765,45.7259081 97.3741171,45.8122199 L91.8347731,47.7639248 C91.701412,47.8114844 91.5636349,47.8335027 91.4293906,47.8335027 C90.93304,47.8335027 90.4676008,47.528769 90.2865476,47.0382006 L89.4227915,44.6963309 C89.1922799,44.0710103 89.5111101,43.3761118 90.1372892,43.1418368 L93.5931969,41.8445167 C94.0559864,41.6710123 94.3677512,41.23593 94.380999,40.7427194 L94.5814822,33.6448903 C94.6026787,32.8909826 93.9888643,32.3942491 93.3538534,32.3942491 C93.0332568,32.3942491 92.7064779,32.520194 92.4538866,32.8055515 L80.3692495,46.4216873 C80.1281397,46.6920724 79.7934121,46.8312283 79.4569182,46.8312283 C79.176065,46.8312283 78.8934454,46.7343476 78.6638169,46.5379441 L76.7446533,44.8936152 C76.2306389,44.4532486 76.1758814,43.679084 76.6236568,43.1717817 L94.8879479,22.4278718 L94.8879479,22.3750278 L88.6067274,22.4234682 C88.2543361,22.4261104 87.9204917,22.5811194 87.6917465,22.8479816 L79.0365215,32.9253312 C78.7962949,33.2062851 78.4545018,33.3498447 78.1118256,33.3498447 C77.8336219,33.3498447 77.5536519,33.2547255 77.3257898,33.0627256 L75.367766,31.4087086 C74.8528684,30.9727457 74.7910454,30.2021041 75.2308721,29.6912788 L79.7059767,24.4843839 C80.3824973,23.6970084 79.8216741,22.4807158 78.7821639,22.4807158 C78.2451867,22.4807158 77.7717989,22.130184 77.6163581,21.6175972 L76.7614338,18.7983702 C76.6068762,18.2866642 76.8055931,17.7335637 77.2516022,17.4367566 L84.8434709,12.3892744 C85.7893634,11.7604309 85.431673,10.297533 84.3020778,10.1724689 L77.2816305,9.40182728 C76.6157081,9.32872642 76.1343716,8.73247002 76.2050265,8.06751643 L76.477931,5.50986712 C76.54417,4.88630799 77.0723154,4.42392304 77.6861298,4.42392304 Z" id="Fill-7-Copy"></path>
                        <path d="M122.698164,24.5347106 C122.790383,24.5347106 122.884376,24.5320656 122.977482,24.525894 L125.007191,24.4077522 L121.518822,37.0312963 L122.143962,24.502971 C122.32574,24.5232491 122.511065,24.5347106 122.698164,24.5347106 M145.679363,0 C144.888406,0 144.103657,0.197490843 143.407579,0.57219445 L141.146436,1.79152407 C140.983278,1.87968963 140.825442,1.97579008 140.675586,2.08070709 C140.189661,1.69366031 139.617725,1.39566073 138.980171,1.22021128 L136.55055,0.548389751 C136.133791,0.433774529 135.70373,0.375585263 135.273669,0.375585263 C133.132233,0.375585263 131.240853,1.81003884 130.675124,3.86341461 L128.376738,12.1906513 L124.541661,12.3969587 L126.762902,10.5472453 C127.743618,9.73083228 128.343929,8.58291676 128.452996,7.31685939 C128.562063,6.04992037 128.166585,4.81736591 127.340159,3.84754481 L125.674893,1.89291446 C124.766889,0.826992904 123.440351,0.216005609 122.035782,0.216005609 L122.034895,0.216005609 C120.917624,0.216005609 119.829615,0.609223983 118.973041,1.32424663 L106.04196,12.0998407 C104.045946,13.7617614 103.766628,16.7435205 105.420367,18.7439969 L107.065238,20.7338935 C107.845554,21.6781466 108.944204,22.2759091 110.145714,22.4275538 L108.964599,45.8231654 C108.833364,48.4266943 110.856865,50.6572828 113.475358,50.7957027 L116.034441,50.930596 C116.11868,50.9350043 116.203805,50.9376493 116.288044,50.9376493 C117.931141,50.9376493 119.38448,50.1133013 120.242828,48.8481256 C120.852007,49.6292724 121.711241,50.2279165 122.740727,50.5091647 L125.222664,51.1862761 C125.63499,51.299128 126.060618,51.3564356 126.487131,51.3564356 C128.632114,51.3564356 130.523494,49.9184554 131.08745,47.8606714 L135.199185,32.8531307 L136.729668,45.489018 C136.91056,46.9763709 137.80083,48.3059074 139.112293,49.0456165 L141.58891,50.4430405 C142.304496,50.8468387 143.118507,51.0601994 143.942273,51.0601994 C144.641011,51.0601994 145.344182,50.9032647 145.976416,50.6061468 L155.577852,46.1035319 C157.953383,44.9891193 158.976661,42.1598866 157.858503,39.7961681 L156.767834,37.4915205 C155.984858,35.836653 154.29033,34.7672049 152.452153,34.7672049 C151.754302,34.7680865 151.07862,34.9162046 150.445499,35.2080326 L147.813706,36.4220723 L146.230905,23.8981553 C146.19987,23.6601083 146.151987,23.4264696 146.088143,23.1998841 L151.551243,22.8719082 C152.826351,22.7952042 153.994165,22.2291813 154.839212,21.2769933 C155.684259,20.3239237 156.104565,19.1019491 156.022987,17.8332468 L155.85983,15.3346349 C155.75697,13.7406017 154.860493,12.3661007 153.570311,11.5858356 C153.769824,10.5542986 153.629722,9.45134747 153.095028,8.45860332 L149.883317,2.50213844 C149.051571,0.95835958 147.440395,0 145.679363,0 M141.500238,23.2748248 C142.107643,23.2748248 142.63347,23.7244691 142.711502,24.3381014 L144.691554,40.0033572 C144.772246,40.6372675 145.31492,41.0683971 145.904591,41.0683971 C146.075729,41.0683971 146.250413,41.0322492 146.41889,40.9537818 L151.937854,38.4075606 C152.104558,38.3308566 152.279242,38.2938271 152.451267,38.2938271 C152.910589,38.2938271 153.350404,38.5521521 153.557897,38.9920982 L154.648566,41.2976275 C154.935865,41.9042065 154.675168,42.6271641 154.064216,42.9145838 L144.462779,47.4171987 C144.297849,47.4947843 144.119618,47.5335772 143.942273,47.5335772 C143.733006,47.5335772 143.525513,47.4797962 143.338415,47.3748792 L140.861797,45.9774551 C140.524843,45.7870175 140.297842,45.4493435 140.251732,45.066705 L137.81147,24.9296923 C137.730779,24.262279 138.208722,23.6574633 138.879972,23.5772327 L141.353929,23.2836414 C141.402698,23.2774698 141.451468,23.2748248 141.500238,23.2748248 M135.273669,3.90220745 C135.381849,3.90220745 135.491803,3.91631394 135.60087,3.94629023 L138.031378,4.61811176 C138.681346,4.79708783 139.06175,5.46626439 138.881745,6.11251791 L136.789966,13.6242232 C136.572718,14.4036067 137.165936,15.1644754 137.96576,15.1644754 C137.989702,15.1644754 138.012757,15.1635938 138.037585,15.1618305 L151.031623,14.4274114 C151.054678,14.4256481 151.07862,14.4247664 151.102561,14.4247664 C151.741888,14.4247664 152.279242,14.9193752 152.320918,15.5621021 L152.483189,18.0607139 C152.526638,18.7325354 152.013226,19.3109015 151.336656,19.3523393 L135.826984,20.2842492 C135.303818,20.3151071 134.858683,20.6748226 134.721241,21.1773663 L127.665586,46.9331698 C127.517503,47.4745063 127.024485,47.8298135 126.487131,47.8298135 C126.379838,47.8298135 126.270771,47.815707 126.162591,47.7857307 L123.680653,47.1086192 C123.029798,46.9296431 122.646734,46.2622299 122.825852,45.6142131 L129.285629,22.2353529 C129.501103,21.4568511 128.907885,20.696864 128.109834,20.696864 C128.085893,20.696864 128.061065,20.6977456 128.036236,20.6995089 L122.770875,21.0054434 C122.746934,21.0072067 122.722106,21.0080884 122.698164,21.0080884 C122.053516,21.0080884 121.513502,20.5055447 121.47892,19.8566462 L121.343251,17.3165966 C121.307782,16.64742 121.823855,16.0752256 122.497765,16.0390777 L130.241516,15.6229363 C130.766456,15.5938417 131.214251,15.2350079 131.353467,14.7307009 L134.095214,4.79532452 C134.244184,4.25663298 134.736315,3.90220745 135.273669,3.90220745 M122.035782,3.7426278 C122.382491,3.7426278 122.727426,3.88898262 122.968615,4.17199405 L124.63388,6.1266244 C125.071921,6.64062958 125.005417,7.41119653 124.485798,7.84320775 L119.613255,11.9023499 C119.351671,12.1192372 119.193835,12.4348698 119.176987,12.7734256 L117.508174,46.2560583 C117.475366,46.9058384 116.935351,47.4110271 116.288044,47.4110271 C116.266762,47.4110271 116.244594,47.4101454 116.222426,47.4092638 L113.663344,47.2743705 C112.990321,47.2382226 112.473361,46.6677914 112.507057,46.0003782 L113.849555,19.3920138 C113.887685,18.6408432 113.274959,18.1136132 112.623218,18.1136132 C112.358087,18.1136132 112.08675,18.2000155 111.849995,18.395743 L111.529001,18.659358 C111.301114,18.8471506 111.025343,18.9388428 110.750459,18.9388428 C110.397543,18.9388428 110.047287,18.7871981 109.805212,18.4944884 L108.160341,16.5054735 C107.734714,15.9905867 107.806538,15.2297179 108.319951,14.802115 L121.251032,4.02652089 C121.479807,3.83520163 121.758238,3.7426278 122.035782,3.7426278 M145.679363,3.52662219 C146.114744,3.52662219 146.536824,3.75937925 146.757619,4.16758577 L149.968442,10.1240507 C150.285003,10.7112332 150.066869,11.4430074 149.479858,11.76393 L147.254183,12.9788513 C147.067085,13.0802417 146.865799,13.1278511 146.667173,13.1278511 C146.233565,13.1278511 145.813259,12.8986207 145.591578,12.4921775 L142.344398,6.54012085 C142.022518,5.95029329 142.243312,5.2123476 142.83653,4.89230663 L145.097673,3.67385867 C145.282998,3.57423159 145.482511,3.52662219 145.679363,3.52662219" id="Fill-11-Copy"></path>
                        <path d="M173.15788,39.8653224 L173.219278,39.5505938 C173.229803,39.4988821 173.238574,39.4462787 173.247345,39.3945669 L173.264888,39.7948874 L173.15788,39.8653224 Z M185.338379,32.4206096 C185.45065,32.4206096 185.563798,32.4170433 185.677823,32.4090191 L189.441524,32.1335201 L189.352059,37.7531638 L185.144537,37.5249187 L184.933152,32.402778 C185.066474,32.4152601 185.201549,32.4206096 185.338379,32.4206096 Z M177.274182,0 C177.152263,0 177.031221,0.00445791184 176.908425,0.0142653179 L167.053158,0.792616725 C165.875192,0.885341291 164.782306,1.41939913 163.974483,2.29493301 L162.308841,4.10484522 C161.479967,5.00445183 161.027376,6.17955739 161.03527,7.41350739 L161.067723,12.4571888 C159.878355,13.3104332 159.142455,14.7601461 159.255603,16.333789 L159.511721,19.8662383 C159.603818,21.1331769 160.233587,22.2458717 161.160697,22.9796439 L161.289633,37.5686062 L158.710914,43.5457744 C158.203065,44.7244463 158.178505,46.0332892 158.643377,47.2306844 C159.107371,48.4280795 160.003782,49.3669157 161.166837,49.8760092 L163.478036,50.8861721 C164.070089,51.1456225 164.697226,51.2775767 165.341906,51.2775767 C167.203144,51.2775767 168.8951,50.1613156 169.65205,48.4316458 L169.744147,48.2212324 L170.944041,50.0864227 C171.818525,51.4451942 173.29471,52.2574257 174.893691,52.2574257 C175.806768,52.2574257 176.695286,51.989951 177.461884,51.4835322 L181.351013,48.915775 C182.04218,49.3731568 182.843863,49.6379567 183.69028,49.6789695 L205.458526,50.7372778 C205.534835,50.7408441 205.610267,50.7426273 205.684822,50.7426273 C208.245998,50.7426273 210.316867,48.7035784 210.398439,46.1010495 L210.480011,43.5243764 C210.561583,40.9316549 208.554743,38.7151812 206.005846,38.583227 L201.32205,38.3389334 L201.457126,31.2276724 L203.883227,31.0368738 C206.440895,30.8353762 208.388968,28.5529253 208.225825,25.9503964 L208.063558,23.370157 C207.905678,20.85322 205.838317,18.8810398 203.356958,18.8810398 C203.241179,18.8810398 203.125399,18.8854977 203.007866,18.8944135 L201.654477,18.9960539 L201.668511,18.3229092 L206.093557,17.4794723 C207.33643,17.2423114 208.413527,16.5263708 209.124868,15.462713 C209.836208,14.3999468 210.095834,13.118743 209.855505,11.8562623 L209.369583,9.30009568 C208.941551,7.0488502 206.994355,5.41457972 204.739291,5.41457972 C204.440195,5.41457972 204.139345,5.44489352 203.844634,5.50195479 L201.912349,5.8808773 L201.919366,5.52602752 C201.941294,4.23858258 201.467652,3.02157264 200.585274,2.09878489 C199.702896,1.17421398 198.519667,0.65887937 197.253113,0.645505634 L194.717373,0.616974999 L194.698953,0.616974999 L194.6665,0.616974999 C192.700008,0.616974999 190.988756,1.8758893 190.287063,3.64033081 C189.62835,3.11608038 188.8407,2.77995382 187.989022,2.66850603 L185.497137,2.3412953 C185.297155,2.31543941 185.093664,2.30206567 184.891928,2.30206567 C183.983236,2.30206567 183.125417,2.56954038 182.397412,3.03316322 C182.364959,3.00195783 182.331628,2.97075245 182.298298,2.94043865 L180.430042,1.23127525 C179.562575,0.43687536 178.441622,0 177.274182,0 Z M194.6665,4.18330447 L194.679657,4.18330447 L197.215397,4.21183511 C197.88639,4.21896776 198.423185,4.77977307 198.410905,5.46183359 L198.353892,8.70006075 C198.341613,9.3999529 198.901212,9.95095081 199.559926,9.95095081 C199.636235,9.95095081 199.713421,9.94381815 199.791484,9.92866125 L204.509487,9.00409033 C204.586673,8.98893343 204.662982,8.98090919 204.739291,8.98090919 C205.306785,8.98090919 205.812881,9.38925392 205.925151,9.97769828 L206.411073,12.5329733 C206.538255,13.2025517 206.105837,13.8480573 205.447124,13.974662 L199.187152,15.1675992 C198.624921,15.2745891 198.213554,15.7676342 198.201274,16.3489459 L198.092512,21.4898098 C198.078478,22.1834609 198.629307,22.7451578 199.3003,22.7451578 C199.330122,22.7451578 199.359944,22.7433746 199.390643,22.7415915 L203.266615,22.4509356 C203.297314,22.4482609 203.327136,22.4473693 203.356958,22.4473693 C203.988481,22.4473693 204.52089,22.9457638 204.562114,23.5984021 L204.724381,26.1768583 C204.766482,26.8482198 204.270912,27.4295315 203.611321,27.4812433 L199.10558,27.8369847 C198.484583,27.8851301 198.002169,28.4049227 197.98989,29.0379461 L197.771488,40.5340092 C197.758331,41.1973465 198.266181,41.7510191 198.917878,41.7848993 L205.826914,42.1442069 C206.484751,42.1789787 206.994355,42.7415671 206.973304,43.4111455 L206.891732,45.9869269 C206.871559,46.652939 206.33301,47.1762978 205.684822,47.1762978 C205.665525,47.1762978 205.646229,47.1762978 205.626055,47.1745147 L183.857809,46.117098 C183.189447,46.0841094 182.673703,45.5045809 182.708788,44.8243035 L182.843863,42.2030514 C182.878071,41.5477383 183.411357,41.0386448 184.049897,41.0386448 C184.071825,41.0386448 184.093753,41.0395364 184.115681,41.040428 L191.549232,41.4434232 C191.57116,41.4443148 191.593088,41.4443148 191.614139,41.4443148 C192.270221,41.4443148 192.811401,40.9102569 192.821927,40.2353291 L192.990333,29.6388727 C193.001735,28.9478963 192.451784,28.3906573 191.783422,28.3906573 C191.7536,28.3906573 191.724655,28.3915489 191.694833,28.3933321 L185.426091,28.8507138 C185.396269,28.8533886 185.367324,28.8542802 185.338379,28.8542802 C184.711242,28.8542802 184.180587,28.3630183 184.1341,27.7166211 L183.944643,25.1363817 C183.895525,24.4605623 184.39548,23.8703347 185.061211,23.8204061 L192.022875,23.2970473 C192.643872,23.250685 193.12804,22.7326756 193.142951,22.1005437 L193.240311,17.8343221 C193.256976,17.1326468 192.696499,16.577191 192.034277,16.577191 C191.959722,16.577191 191.882536,16.5843236 191.80535,16.5985889 L186.161113,17.6925605 C186.085681,17.7059342 186.009372,17.7139585 185.93394,17.7139585 C185.619933,17.7139585 185.315574,17.5900285 185.087524,17.3617834 L183.076299,15.3548315 C182.804393,15.0828989 182.67458,14.6977353 182.724576,14.3143549 L183.695542,6.93472766 C183.776237,6.31775266 184.295489,5.86839514 184.891928,5.86839514 C184.943677,5.86839514 184.996304,5.87196147 185.048931,5.87909413 L187.539939,6.20541328 C188.206546,6.29278835 188.674926,6.91511284 188.582829,7.59182386 L188.188127,10.5072982 C188.086381,11.2597937 188.668786,11.9044078 189.381881,11.9044078 C189.456435,11.9044078 189.53099,11.8972751 189.607299,11.8830098 L192.363195,11.3614341 C192.925426,11.2553358 193.336793,10.7622908 193.34995,10.1809791 L193.457835,5.38426592 C193.472746,4.71647073 194.010418,4.18330447 194.6665,4.18330447 Z M170.787914,14.5952034 C170.823876,14.5952034 170.860715,14.5934202 170.897554,14.5898539 L173.079816,14.3919226 C173.116655,14.3883563 173.153494,14.3865731 173.189456,14.3865731 C173.806068,14.3865731 174.33146,14.8626781 174.391981,15.4983763 L174.634942,18.0830736 C174.698971,18.7597846 174.209541,19.3616027 173.542933,19.4240135 L170.751075,19.6870303 C170.125692,19.7467663 169.649419,20.2817157 169.653804,20.9200887 L169.686258,25.5340274 C169.69152,26.2285701 170.251997,26.7546037 170.893168,26.7546037 C171.008947,26.7546037 171.126481,26.736772 171.244014,26.7011088 L175.275236,25.4689419 C175.803259,25.3066739 176.156737,24.8029299 176.135686,24.2439077 L175.588366,10.0490249 C175.56293,9.384796 175.024381,8.86767823 174.382333,8.86767823 C174.349879,8.86767823 174.318303,8.8694614 174.28585,8.87213614 L170.665118,9.16190041 C170.031841,9.21361219 169.545042,9.75480269 169.551182,10.3994167 L169.580127,13.3781934 C169.587144,14.0584708 170.132709,14.5952034 170.787914,14.5952034 Z M177.274182,3.56632947 C177.571524,3.56632947 177.860095,3.67777727 178.082882,3.88194963 L179.951137,5.59111303 C180.192344,5.81222546 180.336191,6.12249612 180.350225,6.4523816 L181.841321,42.5650338 C181.850092,42.7852547 181.800973,43.0045839 181.698351,43.1971657 L180.844041,44.8171709 C180.748435,44.9990537 180.608097,45.154189 180.437059,45.2665284 L175.55065,48.493165 C175.347159,48.6269023 175.119109,48.6910963 174.893691,48.6910963 C174.498989,48.6910963 174.112181,48.4949482 173.880623,48.1338573 L172.518463,46.0163492 C172.152706,45.4493028 172.310586,44.6861083 172.869309,44.31521 L176.278656,42.0532655 C176.635642,41.8161046 176.844395,41.4059767 176.825976,40.9717761 L176.447062,32.0060238 C176.418994,31.3302044 175.868166,30.8282435 175.241906,30.8282435 C175.129635,30.8282435 175.013856,30.8451836 174.898954,30.8790637 L170.626525,32.1558097 C170.10815,32.3091618 169.753795,32.7950742 169.759058,33.3451806 L169.802037,38.6028418 C169.802914,38.6866505 169.79502,38.7704593 169.778355,38.8533764 L169.619597,39.6638248 C169.602055,39.752983 169.574864,39.8403581 169.538902,39.9232753 L166.447071,46.9810413 C166.247089,47.4393146 165.805023,47.7112472 165.341906,47.7112472 C165.182271,47.7112472 165.020882,47.6791503 164.864755,47.61139 L162.553556,46.6003356 C161.937821,46.3301862 161.65539,45.6026549 161.924665,44.9776557 L164.699857,38.5422142 C164.769149,38.3826209 164.803357,38.2114371 164.80248,38.0375786 L164.65337,21.1028631 C164.648985,20.6704456 164.302524,20.3262948 163.883263,20.3262948 C163.865721,20.3262948 163.848178,20.3271864 163.830636,20.328078 C163.813971,20.3298612 163.796429,20.3307527 163.778886,20.3307527 C163.378922,20.3307527 163.040355,20.0160242 163.011411,19.6041131 L162.755293,16.0716638 C162.723717,15.6437042 163.038601,15.2692396 163.459616,15.2335763 L163.881509,15.197913 C164.283228,15.1640329 164.591095,14.8216653 164.588464,14.4115374 L164.543731,7.38943466 C164.541977,7.07470609 164.658633,6.77156808 164.870018,6.54153983 L166.53566,4.73341079 C166.742659,4.50962362 167.023336,4.37142835 167.325063,4.34824721 L177.18033,3.5698958 C177.211906,3.56722105 177.242605,3.56632947 177.274182,3.56632947 Z" id="Fill-15-Copy"></path>
                        <path d="M238.539783,0.900990099 C236.10002,0.900990099 234.047364,2.72006576 233.76575,5.13127455 L233.73893,5.35443584 L224.477843,5.35443584 C221.826198,5.35443584 219.669837,7.49980708 219.669837,10.1359553 L219.669837,12.7000874 C219.669837,13.6691942 219.961286,14.5733975 220.461933,15.3273448 L218.850921,15.2988939 L218.818736,15.2980048 L218.765096,15.2980048 C216.169774,15.2980048 214.012519,17.3980326 213.957984,19.9790573 L213.902555,22.5965347 C213.875735,23.8768226 214.352244,25.0895397 215.24447,26.0124138 C216.107193,26.9032808 217.256001,27.4198414 218.493315,27.4749649 L215.779984,28.8726124 C214.635647,29.4620783 213.792592,30.4596359 213.405484,31.6812439 C213.018376,32.903741 213.134598,34.2018106 213.731799,35.3362879 L214.949445,37.6479188 C215.781772,39.2287186 217.414241,40.2111618 219.20942,40.2111618 C219.972908,40.2111618 220.736396,40.0271204 221.415846,39.6777085 L222.111388,39.3202948 L222.856996,46.4107779 C222.983946,47.6163823 223.559691,48.7197415 224.477843,49.5172541 L226.280174,51.0793831 C227.156307,51.839554 228.278294,52.2574257 229.440512,52.2574257 L229.461968,52.2574257 L229.497729,52.2574257 L250.42033,52.0022573 C251.662115,51.9862537 252.835061,51.5025894 253.722816,50.6383951 L255.488493,48.9233428 C256.369096,48.0662612 256.881366,46.9211148 256.930537,45.6968396 L257.049441,42.7806284 C259.468642,42.4205474 261.267397,40.2760652 261.135083,37.7981748 L260.998299,35.2411554 C260.888335,33.1784694 259.4749,31.4785317 257.578697,30.9130712 L257.632338,29.859501 C257.662734,29.2602552 257.579591,28.668122 257.392742,28.1106634 L258.638997,28.1311124 L258.668499,28.1311124 L258.716776,28.1311124 C261.339812,28.1311124 263.497067,26.0088575 263.524781,23.400271 L263.552496,20.8379171 C263.568588,19.3131298 262.858741,17.943044 261.743906,17.0539552 C262.045189,15.9550415 261.960258,14.7476589 261.414015,13.6629706 L260.259844,11.3664542 C259.440033,9.73675447 257.791472,8.72408234 255.95785,8.72408234 C255.675342,8.72408234 255.39194,8.74897683 255.113007,8.7987658 C254.53011,6.81076327 252.680396,5.35443584 250.496321,5.35443584 L245.900197,5.35443584 C245.789339,4.51069058 245.451402,3.70962158 244.907842,3.02413412 C244.111276,2.01857471 242.968726,1.38287622 241.689393,1.23439839 L239.099435,0.933886384 C238.914374,0.912548253 238.725738,0.900990099 238.539783,0.900990099" id="Fill-19-Copy"></path>
                    </g>
                    <path d="M13.8136429,34.9970908 L21.8304675,33.4415822 L22.0916047,22.7356531 L13.8136429,34.9970908 Z M24.4462962,49.4986767 C23.6414944,49.4806835 22.8928415,49.1478101 22.3366994,48.5621328 C21.779666,47.9764555 21.4828786,47.2054486 21.5007037,46.3939572 L21.5871553,42.3014133 L14.9116672,43.5915228 C14.7218302,43.6284088 14.5319932,43.6455023 14.34483,43.6455023 C12.8929782,43.6455023 11.6487884,42.5992001 11.3849774,41.1579481 L11.0159985,39.1400154 L10.8680504,39.359532 C10.3065607,40.1899162 9.37609216,40.6865274 8.37967084,40.6865274 C7.78431356,40.6865274 7.20678134,40.5101944 6.71035318,40.1764214 L4.58204002,38.744166 C3.90825243,38.2907384 3.45193068,37.6007008 3.29596133,36.7991056 C3.14088324,35.9975104 3.30576512,35.1842196 3.76030436,34.5085765 L13.3484087,20.2418013 L5.34138793,21.0083099 C5.24602382,21.0173064 5.14976845,21.0218047 5.05529558,21.0218047 C3.49738461,21.0227044 2.20952341,19.8405539 2.05979284,18.2733498 L1.81291564,15.6661412 C1.65427253,13.9990751 2.8699422,12.5119405 4.52143478,12.3509018 L22.3732408,10.6235586 L22.5104938,5.65834654 C22.5559477,4.00117667 23.8776766,2.7029703 25.5202566,2.7029703 L28.1289554,2.73175935 C28.9382135,2.74075593 29.6957789,3.06823141 30.2599423,3.65660769 C30.8232145,4.24498396 31.1244581,5.02048908 31.1066331,5.83917778 L31.018399,9.79227465 L45.9219387,8.32583225 C46.0199765,8.31593602 46.1189057,8.31053807 46.2160523,8.31053807 C47.7748545,8.31053807 49.0627157,9.49268857 49.211555,11.0607923 L49.4584322,13.665302 C49.6170753,15.3314684 48.4022969,16.818603 46.7508043,16.9796417 L30.7697393,18.5423475 L30.7376541,19.7182004 L47.4415257,27.6477853 C48.1723535,27.9941536 48.7240394,28.6077203 48.9958717,29.3751285 C49.267704,30.1425367 49.2258151,30.9702219 48.8782262,31.7061421 L47.7454432,34.1055298 C47.249015,35.1572299 46.1812934,35.8373712 45.026229,35.8373712 C44.5770372,35.8373712 44.1429968,35.7375092 43.735694,35.5422834 L30.5210796,29.2122904 L30.448888,31.7754158 L32.9497451,31.2922995 C33.1413646,31.2563131 33.3294191,31.23832 33.515691,31.23832 C34.9515003,31.23832 36.1939076,32.2720269 36.4701961,33.6943861 L36.9612768,36.2287224 C37.1163549,37.0276187 36.9523642,37.8391101 36.50139,38.5138535 C36.0495245,39.1876973 35.3650419,39.6438239 34.5736089,39.7967657 L30.2430085,40.6379459 L30.0950604,46.5909823 C30.0540628,48.2526504 28.7323339,49.5544554 27.0861889,49.5544554 L24.4462962,49.4986767 Z" id="Fill-1" fill="#FFFFFF"></path>
                    <path d="M17.7141146,31.8441363 L20.1568198,28.2926026 L20.080123,31.3934565 L17.7141146,31.8441363 Z M25.519356,0.900990099 C22.903637,0.900990099 20.7980411,2.93081666 20.7249116,5.52178378 L20.6312701,8.83825705 L4.33854223,10.3855911 C1.70677038,10.6347905 -0.230270777,12.9606519 0.022115341,15.5692927 L0.269150516,18.1293308 C0.50637563,20.5815593 2.55846205,22.4302302 5.04308298,22.4302302 C5.19201754,22.4302302 5.34362758,22.4231607 5.49612944,22.4081381 L9.73585948,22.0104794 L2.26951116,32.9178147 C1.54624211,33.9738194 1.28404593,35.2463271 1.5310811,36.4993938 C1.7790081,37.7524604 2.50673627,38.8323246 3.5787084,39.5410407 L5.70927531,40.9478687 C6.49943114,41.4701271 7.41890141,41.7449534 8.36780187,41.7449534 C8.87079046,41.7449534 9.36307716,41.6671891 9.82950097,41.5196135 C10.5063952,43.3735866 12.29361,44.6513964 14.33767,44.6513964 C14.6391064,44.6513964 14.9432183,44.6231185 15.2401956,44.5665626 L19.7537155,43.7111546 L19.7135835,45.5465702 C19.6859369,46.8155432 20.1594953,48.0200071 21.0459681,48.9363894 C21.9324409,49.8527717 23.1257011,50.3732628 24.4072518,50.3997733 L26.9837306,50.4545619 L27.022079,50.4554455 L27.0862903,50.4554455 C29.7091439,50.4554455 31.8156316,48.4203169 31.8807347,45.8213966 L31.9922127,41.3967812 L34.9173945,40.840059 C36.1784333,40.5988128 37.2682419,39.8865619 37.98616,38.8314409 C38.7049699,37.7772036 38.9653825,36.5082306 38.7183473,35.2595824 L38.5569272,34.4404056 L42.9830484,36.5223696 C43.622486,36.8228228 44.3332695,36.9810026 45.0387021,36.9810026 C46.8776427,36.9810026 48.5774587,35.9179284 49.3693982,34.2733889 L50.5029061,31.9174823 C51.0567287,30.7669232 51.1227236,29.4723233 50.6901891,28.2731615 C50.2576546,27.073116 49.3783164,26.1134331 48.2144864,25.57085 L35.3276334,19.5644368 L46.936503,18.4509925 C49.5664912,18.1982583 51.5008569,15.8732807 51.2493626,13.2672909 L51.0014356,10.7090201 C50.7651023,8.2576754 48.7130159,6.40900445 46.228395,6.40900445 C46.0741095,6.40900445 45.9189321,6.41695762 45.762863,6.4310966 L32.8501471,7.67709375 L32.8929546,5.78777325 C32.921493,4.50731235 32.4434755,3.29666263 31.5445171,2.37674559 C30.6464506,1.45682854 29.4407049,0.942523337 28.1493442,0.929268049 L25.5710818,0.900990099 L25.5523535,0.900990099 L25.519356,0.900990099 Z M25.519356,4.43573379 L25.5327333,4.43573379 L28.1109958,4.46401174 C28.7950246,4.47019754 29.3417125,5.03045441 29.3265515,5.7091252 L29.2248836,10.2088539 C29.2088308,10.8981289 29.7715716,11.4548511 30.4520331,11.4548511 C30.4921651,11.4548511 30.5322972,11.4522 30.5724293,11.4486653 L46.1079988,9.94993394 C46.1481308,9.9463992 46.1882629,9.94374814 46.228395,9.94374814 C46.8544552,9.94374814 47.3895495,10.4156364 47.4501935,11.0457045 L47.6981205,13.6039752 C47.7623318,14.2729255 47.2682614,14.8676461 46.5922591,14.9321552 L30.1140319,16.513953 C29.495998,16.5731599 29.020656,17.0786283 29.0037113,17.69279 L28.9484182,19.6916875 C28.9350409,20.1759474 29.2123981,20.6213251 29.6538508,20.827224 L46.6966024,28.769793 C47.3128526,29.0569909 47.5759406,29.7869155 47.2834225,30.3957751 L46.1490227,32.7516818 C45.9385523,33.18999 45.4979913,33.4462589 45.0387021,33.4462589 C44.862121,33.4462589 44.6828644,33.4091441 44.5125261,33.3287287 L30.5207035,26.749687 C30.3485815,26.6692716 30.1684331,26.6312731 29.9945275,26.6312731 C29.3604408,26.6312731 28.7852145,27.1261372 28.7655944,27.8154122 L28.6487655,31.8573916 C28.6282535,32.5563872 29.1990207,33.1104583 29.8750231,33.1104583 C29.9517199,33.1104583 30.0293086,33.1033888 30.1077891,33.0883661 L33.2889244,32.486576 C33.3674049,32.4715533 33.4449935,32.4644839 33.5207985,32.4644839 C34.0978085,32.4644839 34.611499,32.8683283 34.7265442,33.44891 L35.2170473,35.9382532 C35.3481454,36.600134 34.9111517,37.2408063 34.2431758,37.368057 L29.4701351,38.2773699 C28.9029352,38.3860632 28.4882372,38.8712068 28.4730762,39.4438353 L28.3143316,45.733028 C28.2982787,46.3949087 27.7515908,46.9207019 27.0862903,46.9207019 L27.0595356,46.9207019 L24.4830568,46.8659133 C23.8043789,46.8508907 23.2657174,46.2950522 23.2808784,45.6225672 L23.3816545,40.9231255 C23.3977073,40.2276647 22.8278319,39.678012 22.1553968,39.678012 C22.0795918,39.678012 22.0011113,39.6859652 21.921739,39.7009879 L14.5695441,41.0954443 C14.4919555,41.1095832 14.4143668,41.1166527 14.33767,41.1166527 C13.7570927,41.1166527 13.2389431,40.7066225 13.1301406,40.119855 L12.6672841,37.6375812 C12.5442124,36.9792352 12.9803142,36.3465161 13.6438311,36.2192653 L22.6030924,34.5128678 C23.1711841,34.4032908 23.5849903,33.9190309 23.6001513,33.3455187 L24.0032556,17.0954183 L23.3611425,17.1484395 L23.4681614,17.2014606 L9.38448093,37.6791145 C9.14725582,38.023752 8.76109614,38.2102097 8.36780187,38.2102097 C8.13325223,38.2102097 7.89691894,38.144817 7.68734036,38.0060783 L5.55677345,36.5992503 C4.98868173,36.2236838 4.83796352,35.4619465 5.22144773,34.9016896 L15.4747452,19.9249806 C16.0348105,19.1066875 15.4292622,18.0224048 14.4643089,18.0224048 C14.4241769,18.0224048 14.383153,18.0241722 14.3421291,18.027707 L5.15991189,18.8893007 C5.12067164,18.8928355 5.0814314,18.8954865 5.04308298,18.8954865 C4.41613089,18.8954865 3.88103665,18.4227146 3.82039264,17.7935302 L3.57335746,15.2326084 C3.50825433,14.5627745 4.0032165,13.9680538 4.67921889,13.9035448 L23.0284923,12.1617998 C23.6465261,12.1025928 24.1236518,11.5971245 24.1405965,10.9829628 L24.2913147,5.61987292 C24.3091512,4.95975954 24.8549473,4.43573379 25.519356,4.43573379 Z" id="Fill-3" fill="#333333"></path>
                    <path d="M92.1133061,50.4554455 C90.845816,50.4554455 89.6996814,49.6578982 89.2628019,48.4723306 L88.3836492,46.090442 C87.8101325,44.5356728 88.6092804,42.7954065 90.1644278,42.212032 L93.3304561,41.0246722 L93.4805772,35.710677 L82.2017138,48.4149789 C81.6255003,49.0637702 80.7966877,49.4347642 79.9274232,49.4347642 C79.2019874,49.4347642 78.4999238,49.1757853 77.9497792,48.705322 L75.9946084,47.0313687 C75.3743473,46.4999692 75.0012918,45.7597735 74.9446592,44.9469921 C74.9042074,44.3698905 75.0255628,43.8071267 75.2925448,43.3106759 L60.2237963,50.0754904 C59.8282675,50.2529223 59.4093666,50.3425343 58.9787795,50.3425343 C57.7948899,50.3434305 56.7107814,49.6507292 56.2163704,48.5771767 L55.1475437,46.253536 C54.8077485,45.5142365 54.7780839,44.6880133 55.0648422,43.9272069 C55.3516006,43.1646082 55.9197238,42.5615191 56.6631382,42.2290583 L62.3120086,39.7011021 L61.3852127,25.7986869 L59.0228271,26.0343666 C58.922147,26.0442239 58.8214669,26.0496006 58.7225847,26.0496006 C57.1494588,26.0496006 55.8505063,24.8720982 55.701284,23.3101599 L55.4522807,20.7167869 C55.2922713,19.0580676 56.5166127,17.5767802 58.1814294,17.4163746 L60.7694463,17.1654609 L60.1572756,7.97126338 C60.0476062,6.31881697 61.305208,4.87516666 62.9601365,4.75150202 L65.5625362,4.55883609 C65.6371474,4.55256324 65.7135563,4.54987488 65.7899653,4.54987488 C67.3810698,4.54987488 68.7105859,5.79010581 68.8175585,7.37444705 L69.4180431,16.2836782 L71.9080767,16.0408295 C72.0069589,16.0309722 72.1058411,16.0255955 72.2038244,16.0255955 C73.7598707,16.0255955 75.0570254,17.1896561 75.2215294,18.733672 L75.5001974,21.3386946 C75.5855957,22.1434109 75.3518741,22.9337893 74.8403835,23.5628659 C74.3288928,24.1928387 73.6025581,24.5862357 72.7944208,24.670471 L70.0427989,24.9545412 L70.8158779,35.8648097 L72.8735266,34.9292598 C73.2726511,34.7473473 73.6960467,34.6550469 74.1329263,34.6550469 C75.3338955,34.6550469 76.4251955,35.3638783 76.9115161,36.4598338 L77.9569706,38.8184233 C78.1097886,39.1625336 78.1924901,39.5209818 78.2113676,39.8767417 L91.682719,24.5826512 L89.5082095,24.5996775 L80.8650063,34.6604236 C80.2878938,35.3325141 79.4464961,35.7187421 78.5583542,35.7187421 C77.8410088,35.7187421 77.1443387,35.4642438 76.5968909,35.0027417 L74.6030662,33.3189311 C73.9810072,32.7929083 73.603457,32.0580894 73.5387341,31.2479963 C73.4740112,30.4387994 73.730206,29.6537977 74.2605742,29.0381629 L78.1843997,24.4742206 C77.3097417,24.1534094 76.6157684,23.4418897 76.3326058,22.508132 L75.4633413,19.6396499 C75.0723072,18.3546129 75.5640214,16.9889251 76.684986,16.2442489 L83.1348022,11.958104 L77.5164954,11.3424691 C75.8588701,11.1596605 74.6534062,9.66672358 74.8286974,8.01338105 L75.1073654,5.40925455 C75.2709705,3.86703097 76.5690241,2.7029703 78.1250704,2.7029703 C78.2320429,2.7029703 78.3390155,2.70834702 78.446887,2.71910047 L95.119325,4.48625032 C96.3886128,4.62156453 97.4448545,5.54277652 97.7486926,6.77852685 L98.4687348,9.72138694 C98.769876,10.9499683 98.2646779,12.2493432 97.210234,12.953694 L92.7416575,15.9395679 L97.6965547,15.9162687 C98.5109844,15.9162687 99.2939517,16.2388722 99.8584792,16.802532 L101.652742,18.5911888 C102.237944,19.1736672 102.562458,19.9810718 102.541783,20.8063989 L101.970963,43.7865159 C101.955681,44.3698905 101.774097,44.9326542 101.445089,45.4147671 L100.2603,47.1478644 C99.8917395,47.6837445 99.3748553,48.081622 98.7626846,48.296691 L93.1246013,50.2824943 C92.79829,50.3971977 92.4575959,50.4554455 92.1133061,50.4554455" id="Fill-5" fill="#FFFFFF"></path>
                    <path d="M71.6274723,26.108456 L72.6307719,26.0045295 C73.1368376,25.9516855 73.6234732,25.8222177 74.0756645,25.6205298 L72.5477523,27.3996109 C72.2386372,27.7589501 71.9886955,28.15528 71.8023432,28.578032 L71.6274723,26.108456 Z M77.6861298,0.900990099 C75.2520686,0.900990099 73.2216234,2.72234643 72.9646162,5.13731696 L72.6917117,7.69496627 C72.4161576,10.2816798 74.3017602,12.6191458 76.8947949,12.9036226 L77.5880961,12.9802464 L75.2918119,14.5056764 C75.0904455,14.6404286 74.9014436,14.787511 74.7265728,14.9451623 C73.9290556,14.3471444 72.9381207,13.9957318 71.8685821,13.9957318 C71.7166741,13.9957318 71.5621165,14.0027777 71.4075589,14.0177502 L70.772548,14.0794015 L70.3035762,7.13570067 C70.1375371,4.65731734 68.0558672,2.7161813 65.5661653,2.7161813 C65.4487015,2.7161813 65.3303545,2.72058496 65.2111244,2.72939229 L62.657833,2.91874994 C60.0665646,3.11163052 58.0988257,5.37071126 58.2701639,7.95654404 L58.7585659,15.2886482 L57.9213053,15.3696757 C55.3185555,15.6215654 53.4029246,17.9387745 53.6519831,20.5360568 L53.8966257,23.0840181 C54.13067,25.5271721 56.1637647,27.369666 58.6234384,27.369666 C58.7788791,27.369666 58.9360863,27.3617394 59.0941766,27.3458862 L59.5984759,27.2965651 L60.3067913,37.9199694 L55.8776124,39.9033807 C54.7135729,40.4247747 53.8250876,41.3671593 53.376429,42.5587914 C52.9277704,43.7495427 52.9736961,45.0424591 53.5053742,46.1997426 L54.5563658,48.4834838 C55.3282706,50.1621614 57.0231049,51.2454633 58.8751464,51.2454633 C59.5507839,51.2454633 60.2061081,51.1054267 60.8243384,50.827115 L72.9946446,45.3621652 C73.2543013,46.2120728 73.7497688,46.9721456 74.44307,47.5657598 L76.3622336,49.209208 C77.2233402,49.9472625 78.3220239,50.3541612 79.4569182,50.3541612 C80.817025,50.3541612 82.1135423,49.7719966 83.0143923,48.7565111 L85.9607015,45.4370276 C86.0004449,45.5964403 86.0499033,45.755853 86.1081936,45.9126235 L86.9719497,48.2544932 C87.6555359,50.1093174 89.4475207,51.3564356 91.4293906,51.3564356 C91.9690174,51.3564356 92.5015787,51.2648394 93.0111771,51.0851698 L98.5505211,49.1343457 C99.5096614,48.7961441 100.319543,48.1743465 100.893614,47.3358884 L102.05677,45.6343118 C102.572551,44.8786427 102.856937,43.9979095 102.8799,43.0828276 L103.440723,20.4999468 C103.473401,19.2087918 102.966452,17.9449397 102.051471,17.0325 L100.288632,15.2745565 C99.5891481,14.576135 98.7086115,14.1234382 97.7521208,13.9578603 C99.1731674,12.81643 99.8284916,10.9325416 99.3904312,9.14289171 L98.6821159,6.25056377 C98.2087281,4.31647358 96.5562866,2.87471328 94.5700008,2.66421803 L78.1904291,0.927412096 C78.0208574,0.909797431 77.853052,0.900990099 77.6861298,0.900990099 Z M65.5661653,6.23911423 C66.200293,6.23911423 66.7355038,6.72968265 66.7796631,7.37173717 L67.4076085,16.6890141 C67.4508847,17.3319493 67.9878619,17.821637 68.6211064,17.821637 C68.6599666,17.821637 68.69971,17.8198755 68.7394534,17.8154719 L71.749352,17.5239492 C71.7899786,17.5204262 71.8297219,17.5186648 71.8685821,17.5186648 C72.4841629,17.5186648 73.0114251,17.9810497 73.0776641,18.6037281 L73.3505686,21.1649004 C73.4221067,21.8333769 72.9354711,22.430514 72.2660159,22.5000919 L69.0344376,22.8347706 C68.3808797,22.902587 67.8995433,23.4750636 67.9463521,24.127687 L68.7986268,36.1664295 C68.8463189,36.8296217 69.4027262,37.2955296 70.0130079,37.2955296 C70.1808133,37.2955296 70.3521514,37.2603002 70.5190736,37.1845572 L73.2596004,35.9374389 C73.4238731,35.8625766 73.5952112,35.8273473 73.7638998,35.8273473 C74.2311053,35.8273473 74.6771143,36.0977324 74.8784808,36.55131 L75.9056264,38.8693998 C76.1758814,39.4806287 75.9020936,40.1931419 75.2918119,40.4679307 L59.3732635,47.6150809 C59.2116404,47.6881817 59.0420686,47.7225303 58.8751464,47.7225303 C58.41324,47.7225303 57.9725301,47.4600718 57.7676309,47.0144208 L56.7166393,44.7306795 C56.4349029,44.1176892 56.7078074,43.3928457 57.3242714,43.1171762 L63.222189,40.4758573 C63.686745,40.2680042 63.9720141,39.7941697 63.938453,39.2886289 L62.9642986,24.6834296 C62.9219057,24.0396136 62.3849285,23.549926 61.751684,23.549926 C61.7110574,23.549926 61.671314,23.5516874 61.6298043,23.5560911 L58.7453181,23.8405679 C58.7046915,23.8449716 58.6640649,23.8467331 58.6234384,23.8467331 C58.0034416,23.8467331 57.4735299,23.3764215 57.4134732,22.7484587 L57.1688306,20.1996167 C57.1043581,19.5329017 57.5945264,18.9401682 58.2630984,18.8758747 L61.3357032,18.5781869 C61.9901442,18.5156548 62.4758967,17.9440589 62.4326205,17.2896741 L61.7958433,7.72314973 C61.751684,7.05819614 62.2533337,6.48219661 62.9201393,6.43199481 L65.4743139,6.24263717 C65.5052254,6.23999497 65.5361369,6.23911423 65.5661653,6.23911423 Z M77.6861298,4.42392304 C77.7294059,4.42392304 77.772682,4.42656524 77.8168414,4.4309689 L94.196413,6.16689411 C94.7068947,6.22149957 95.1281745,6.58964606 95.2509374,7.08637961 L95.9583696,9.97870755 C96.0793661,10.4727989 95.8779996,10.99067 95.4540702,11.2742661 L89.5508535,15.219951 C88.5519699,15.8884276 89.0271241,17.442041 90.2282573,17.442041 L90.2344396,17.442041 L96.9245753,17.4103346 L96.9298744,17.4103346 C97.2531206,17.4103346 97.5622357,17.5380409 97.790981,17.7652701 L99.5538207,19.5232136 C99.7896314,19.7583694 99.9176934,20.079837 99.9097447,20.4118734 L99.3489215,42.9965158 C99.3427392,43.2299101 99.2694347,43.4562585 99.1369568,43.6500198 L97.9746837,45.3515964 C97.8280748,45.5647339 97.6178765,45.7259081 97.3741171,45.8122199 L91.8347731,47.7639248 C91.701412,47.8114844 91.5636349,47.8335027 91.4293906,47.8335027 C90.93304,47.8335027 90.4676008,47.528769 90.2865476,47.0382006 L89.4227915,44.6963309 C89.1922799,44.0710103 89.5111101,43.3761118 90.1372892,43.1418368 L93.5931969,41.8445167 C94.0559864,41.6710123 94.3677512,41.23593 94.380999,40.7427194 L94.5814822,33.6448903 C94.6026787,32.8909826 93.9888643,32.3942491 93.3538534,32.3942491 C93.0332568,32.3942491 92.7064779,32.520194 92.4538866,32.8055515 L80.3692495,46.4216873 C80.1281397,46.6920724 79.7934121,46.8312283 79.4569182,46.8312283 C79.176065,46.8312283 78.8934454,46.7343476 78.6638169,46.5379441 L76.7446533,44.8936152 C76.2306389,44.4532486 76.1758814,43.679084 76.6236568,43.1717817 L94.8879479,22.4278718 L94.8879479,22.3750278 L88.6067274,22.4234682 C88.2543361,22.4261104 87.9204917,22.5811194 87.6917465,22.8479816 L79.0365215,32.9253312 C78.7962949,33.2062851 78.4545018,33.3498447 78.1118256,33.3498447 C77.8336219,33.3498447 77.5536519,33.2547255 77.3257898,33.0627256 L75.367766,31.4087086 C74.8528684,30.9727457 74.7910454,30.2021041 75.2308721,29.6912788 L79.7059767,24.4843839 C80.3824973,23.6970084 79.8216741,22.4807158 78.7821639,22.4807158 C78.2451867,22.4807158 77.7717989,22.130184 77.6163581,21.6175972 L76.7614338,18.7983702 C76.6068762,18.2866642 76.8055931,17.7335637 77.2516022,17.4367566 L84.8434709,12.3892744 C85.7893634,11.7604309 85.431673,10.297533 84.3020778,10.1724689 L77.2816305,9.40182728 C76.6157081,9.32872642 76.1343716,8.73247002 76.2050265,8.06751643 L76.477931,5.50986712 C76.54417,4.88630799 77.0723154,4.42392304 77.6861298,4.42392304 Z" id="Fill-7" fill="#333333"></path>
                    <path d="M138.697712,13.5971945 L143.875093,13.2985474 L140.776636,7.51663239 C140.670343,7.3166375 140.587965,7.11126158 140.528618,6.90140147 L138.697712,13.5971945 Z M126.493443,50.4554455 C126.225937,50.4554455 125.958432,50.4186752 125.699784,50.3469281 L123.220488,49.6572597 C121.629628,49.2133248 120.691588,47.5434123 121.128277,45.933588 L127.378336,22.899199 L122.833402,23.1691472 L122.708507,23.1709409 C121.843987,23.1718378 121.061843,22.79965 120.514432,22.201459 L119.293828,47.1488036 C119.214993,48.7640089 117.902268,50.0294475 116.305208,50.0294475 L116.147539,50.0249633 L113.589408,49.887747 C111.945401,49.7971664 110.676965,48.3720907 110.759343,46.7102498 L112.044609,20.7799706 C111.649551,20.9674098 111.215519,21.0669588 110.773515,21.0669588 C109.874449,21.0669588 109.031187,20.6633817 108.460745,19.9602606 L106.81851,17.9360971 C105.779491,16.657206 105.954875,14.7523219 107.208253,13.6904657 L120.125575,2.72931076 C120.662357,2.27282019 121.345293,2.02170553 122.04683,2.02170553 C122.928181,2.02170553 123.760813,2.41183009 124.330369,3.09163334 L125.993863,5.08082019 C126.51293,5.70053529 126.760948,6.48795912 126.691857,7.29870073 C126.623652,8.10764867 126.24631,8.84036538 125.631579,9.36232514 L120.948464,13.3335241 L120.863429,15.07339 C121.305433,14.7603935 121.836015,14.5639859 122.412657,14.5325966 L129.75134,14.1308132 L132.385648,4.41177898 C132.739959,3.09970489 133.926904,2.18313638 135.270631,2.18313638 C135.540794,2.18313638 135.810071,2.22080358 136.071376,2.2943443 L138.499297,2.97773491 C139.544517,3.27010412 140.306287,4.09429831 140.579993,5.08261386 C140.81561,4.39115171 141.297474,3.78399233 141.98041,3.40821718 L144.240919,2.16789013 C144.676723,1.92843437 145.170102,1.8019802 145.666139,1.8019802 C146.771591,1.8019802 147.782266,2.4145206 148.30399,3.40104248 L151.511397,9.45918365 C152.114613,10.598168 151.918856,11.9658461 151.12254,12.8886924 C152.677969,12.9093197 153.967663,14.1469562 154.067756,15.7235976 L154.229854,18.2643398 C154.281229,19.0750814 154.017267,19.8562274 153.486685,20.4642836 C152.956103,21.0723398 152.223564,21.4346624 151.423705,21.4830917 L142.405584,22.0355439 C143.48535,22.3880013 144.31001,23.3494117 144.457935,24.5413095 L146.342874,39.7185002 L151.172144,37.4503967 C151.569858,37.2638544 151.993261,37.1687895 152.42995,37.1687895 C153.584121,37.1687895 154.647056,37.8512833 155.138664,38.9086554 L156.228172,41.2529901 C156.92971,42.7623686 156.288405,44.5694973 154.798524,45.2833804 L145.206419,49.8635324 C144.810476,50.0527653 144.369357,50.154108 143.930011,50.154108 C143.413601,50.154108 142.903393,50.0168917 142.454302,49.7594992 L139.979435,48.3389077 C139.154774,47.8635835 138.597619,47.0142779 138.484239,46.0654232 L136.046574,25.5816416 C135.95091,24.7780747 136.170583,23.984373 136.664848,23.347618 C137.071421,22.8229677 137.625033,22.4570578 138.250393,22.2893491 L136.324709,22.4077317 L129.379312,48.2205251 C129.025886,49.5361865 127.838942,50.4554455 126.493443,50.4554455 Z" id="Fill-9" fill="#FFFFFF"></path>
                    <path d="M122.698164,24.5347106 C122.790383,24.5347106 122.884376,24.5320656 122.977482,24.525894 L125.007191,24.4077522 L121.518822,37.0312963 L122.143962,24.502971 C122.32574,24.5232491 122.511065,24.5347106 122.698164,24.5347106 M145.679363,0 C144.888406,0 144.103657,0.197490843 143.407579,0.57219445 L141.146436,1.79152407 C140.983278,1.87968963 140.825442,1.97579008 140.675586,2.08070709 C140.189661,1.69366031 139.617725,1.39566073 138.980171,1.22021128 L136.55055,0.548389751 C136.133791,0.433774529 135.70373,0.375585263 135.273669,0.375585263 C133.132233,0.375585263 131.240853,1.81003884 130.675124,3.86341461 L128.376738,12.1906513 L124.541661,12.3969587 L126.762902,10.5472453 C127.743618,9.73083228 128.343929,8.58291676 128.452996,7.31685939 C128.562063,6.04992037 128.166585,4.81736591 127.340159,3.84754481 L125.674893,1.89291446 C124.766889,0.826992904 123.440351,0.216005609 122.035782,0.216005609 L122.034895,0.216005609 C120.917624,0.216005609 119.829615,0.609223983 118.973041,1.32424663 L106.04196,12.0998407 C104.045946,13.7617614 103.766628,16.7435205 105.420367,18.7439969 L107.065238,20.7338935 C107.845554,21.6781466 108.944204,22.2759091 110.145714,22.4275538 L108.964599,45.8231654 C108.833364,48.4266943 110.856865,50.6572828 113.475358,50.7957027 L116.034441,50.930596 C116.11868,50.9350043 116.203805,50.9376493 116.288044,50.9376493 C117.931141,50.9376493 119.38448,50.1133013 120.242828,48.8481256 C120.852007,49.6292724 121.711241,50.2279165 122.740727,50.5091647 L125.222664,51.1862761 C125.63499,51.299128 126.060618,51.3564356 126.487131,51.3564356 C128.632114,51.3564356 130.523494,49.9184554 131.08745,47.8606714 L135.199185,32.8531307 L136.729668,45.489018 C136.91056,46.9763709 137.80083,48.3059074 139.112293,49.0456165 L141.58891,50.4430405 C142.304496,50.8468387 143.118507,51.0601994 143.942273,51.0601994 C144.641011,51.0601994 145.344182,50.9032647 145.976416,50.6061468 L155.577852,46.1035319 C157.953383,44.9891193 158.976661,42.1598866 157.858503,39.7961681 L156.767834,37.4915205 C155.984858,35.836653 154.29033,34.7672049 152.452153,34.7672049 C151.754302,34.7680865 151.07862,34.9162046 150.445499,35.2080326 L147.813706,36.4220723 L146.230905,23.8981553 C146.19987,23.6601083 146.151987,23.4264696 146.088143,23.1998841 L151.551243,22.8719082 C152.826351,22.7952042 153.994165,22.2291813 154.839212,21.2769933 C155.684259,20.3239237 156.104565,19.1019491 156.022987,17.8332468 L155.85983,15.3346349 C155.75697,13.7406017 154.860493,12.3661007 153.570311,11.5858356 C153.769824,10.5542986 153.629722,9.45134747 153.095028,8.45860332 L149.883317,2.50213844 C149.051571,0.95835958 147.440395,0 145.679363,0 M141.500238,23.2748248 C142.107643,23.2748248 142.63347,23.7244691 142.711502,24.3381014 L144.691554,40.0033572 C144.772246,40.6372675 145.31492,41.0683971 145.904591,41.0683971 C146.075729,41.0683971 146.250413,41.0322492 146.41889,40.9537818 L151.937854,38.4075606 C152.104558,38.3308566 152.279242,38.2938271 152.451267,38.2938271 C152.910589,38.2938271 153.350404,38.5521521 153.557897,38.9920982 L154.648566,41.2976275 C154.935865,41.9042065 154.675168,42.6271641 154.064216,42.9145838 L144.462779,47.4171987 C144.297849,47.4947843 144.119618,47.5335772 143.942273,47.5335772 C143.733006,47.5335772 143.525513,47.4797962 143.338415,47.3748792 L140.861797,45.9774551 C140.524843,45.7870175 140.297842,45.4493435 140.251732,45.066705 L137.81147,24.9296923 C137.730779,24.262279 138.208722,23.6574633 138.879972,23.5772327 L141.353929,23.2836414 C141.402698,23.2774698 141.451468,23.2748248 141.500238,23.2748248 M135.273669,3.90220745 C135.381849,3.90220745 135.491803,3.91631394 135.60087,3.94629023 L138.031378,4.61811176 C138.681346,4.79708783 139.06175,5.46626439 138.881745,6.11251791 L136.789966,13.6242232 C136.572718,14.4036067 137.165936,15.1644754 137.96576,15.1644754 C137.989702,15.1644754 138.012757,15.1635938 138.037585,15.1618305 L151.031623,14.4274114 C151.054678,14.4256481 151.07862,14.4247664 151.102561,14.4247664 C151.741888,14.4247664 152.279242,14.9193752 152.320918,15.5621021 L152.483189,18.0607139 C152.526638,18.7325354 152.013226,19.3109015 151.336656,19.3523393 L135.826984,20.2842492 C135.303818,20.3151071 134.858683,20.6748226 134.721241,21.1773663 L127.665586,46.9331698 C127.517503,47.4745063 127.024485,47.8298135 126.487131,47.8298135 C126.379838,47.8298135 126.270771,47.815707 126.162591,47.7857307 L123.680653,47.1086192 C123.029798,46.9296431 122.646734,46.2622299 122.825852,45.6142131 L129.285629,22.2353529 C129.501103,21.4568511 128.907885,20.696864 128.109834,20.696864 C128.085893,20.696864 128.061065,20.6977456 128.036236,20.6995089 L122.770875,21.0054434 C122.746934,21.0072067 122.722106,21.0080884 122.698164,21.0080884 C122.053516,21.0080884 121.513502,20.5055447 121.47892,19.8566462 L121.343251,17.3165966 C121.307782,16.64742 121.823855,16.0752256 122.497765,16.0390777 L130.241516,15.6229363 C130.766456,15.5938417 131.214251,15.2350079 131.353467,14.7307009 L134.095214,4.79532452 C134.244184,4.25663298 134.736315,3.90220745 135.273669,3.90220745 M122.035782,3.7426278 C122.382491,3.7426278 122.727426,3.88898262 122.968615,4.17199405 L124.63388,6.1266244 C125.071921,6.64062958 125.005417,7.41119653 124.485798,7.84320775 L119.613255,11.9023499 C119.351671,12.1192372 119.193835,12.4348698 119.176987,12.7734256 L117.508174,46.2560583 C117.475366,46.9058384 116.935351,47.4110271 116.288044,47.4110271 C116.266762,47.4110271 116.244594,47.4101454 116.222426,47.4092638 L113.663344,47.2743705 C112.990321,47.2382226 112.473361,46.6677914 112.507057,46.0003782 L113.849555,19.3920138 C113.887685,18.6408432 113.274959,18.1136132 112.623218,18.1136132 C112.358087,18.1136132 112.08675,18.2000155 111.849995,18.395743 L111.529001,18.659358 C111.301114,18.8471506 111.025343,18.9388428 110.750459,18.9388428 C110.397543,18.9388428 110.047287,18.7871981 109.805212,18.4944884 L108.160341,16.5054735 C107.734714,15.9905867 107.806538,15.2297179 108.319951,14.802115 L121.251032,4.02652089 C121.479807,3.83520163 121.758238,3.7426278 122.035782,3.7426278 M145.679363,3.52662219 C146.114744,3.52662219 146.536824,3.75937925 146.757619,4.16758577 L149.968442,10.1240507 C150.285003,10.7112332 150.066869,11.4430074 149.479858,11.76393 L147.254183,12.9788513 C147.067085,13.0802417 146.865799,13.1278511 146.667173,13.1278511 C146.233565,13.1278511 145.813259,12.8986207 145.591578,12.4921775 L142.344398,6.54012085 C142.022518,5.95029329 142.243312,5.2123476 142.83653,4.89230663 L145.097673,3.67385867 C145.282998,3.57423159 145.482511,3.52662219 145.679363,3.52662219" id="Fill-11" fill="#333333"></path>
                    <path d="M171.560175,12.7717504 L173.180469,12.6247503 C173.272318,12.6167321 173.362384,12.6122775 173.451558,12.6122775 C173.71373,12.6122775 173.967877,12.6452412 174.21043,12.7084958 L174.131957,10.705731 L171.541448,10.9106402 L171.560175,12.7717504 Z M183.220584,23.2167748 C183.256254,23.1704475 183.292816,23.1250111 183.33116,23.0804656 C183.857288,22.4719743 184.588516,22.1040287 185.391975,22.0443377 L191.966783,21.558792 L192.038123,18.4842629 L186.973924,19.449118 C186.783983,19.4847544 186.596717,19.5025726 186.410343,19.5025726 C185.614018,19.5025726 184.863172,19.1952087 184.296916,18.6374993 L182.973572,17.3403349 L183.220584,23.2167748 Z M171.668967,24.7812121 L174.648275,23.8867388 L174.538591,21.0981917 C174.356676,21.1498645 174.168518,21.1855008 173.975902,21.203319 L171.643999,21.4189192 L171.668967,24.7812121 Z M184.654505,39.2504752 L191.637731,39.6219845 L191.790219,30.2104153 L186.020652,30.6264701 C185.947529,30.6318156 185.875298,30.6344883 185.803067,30.6344883 C184.879223,30.6344883 184.041878,30.2086335 183.486323,29.5404513 L183.896524,39.3048207 C184.090032,39.2665116 184.289782,39.2460207 184.494883,39.2460207 L184.654505,39.2504752 Z M175.184212,50.4554455 C174.163168,50.4554455 173.219706,49.9467362 172.661475,49.0923538 L171.277493,46.9773344 C170.836081,46.3038067 170.684485,45.4984244 170.850349,44.7117512 C171.015321,43.9241871 171.478135,43.2479867 172.153183,42.8087683 L175.353643,40.721367 L175.012997,32.7851441 L171.751008,33.741981 L171.792028,38.5787294 C171.792919,38.788984 171.773301,38.9938933 171.733173,39.193457 L171.571768,40.001512 C171.528072,40.2206758 171.4603,40.4318214 171.371126,40.6340579 L168.226846,47.6900621 C167.74263,48.77519 166.66184,49.4763359 165.473149,49.4763359 C165.062948,49.4763359 164.662556,49.3934813 164.284458,49.2322266 L161.933827,48.2210442 C161.190115,47.9012077 160.617617,47.3114255 160.321559,46.5594978 C160.025501,45.80757 160.041552,44.9870423 160.366146,44.2475873 L163.140353,37.9248017 L162.996783,21.9570286 C162.080073,21.6158102 161.399674,20.7623188 161.324768,19.7386636 L161.06438,16.2106615 C160.973422,14.983879 161.775097,13.8844965 162.919202,13.5566417 L162.878181,7.41471081 C162.873723,6.63872853 163.163539,5.90194628 163.693233,5.33710958 L165.385758,3.53123577 C165.902968,2.98065363 166.601201,2.64567161 167.352939,2.58776248 L177.371653,1.80999838 C177.449235,1.80376202 177.526816,1.8019802 177.605289,1.8019802 C178.350785,1.8019802 179.065962,2.07548945 179.620625,2.57439884 L181.519142,4.28227258 C182.058646,4.76781833 182.406425,5.44045509 182.494707,6.15763734 C182.898666,4.95490935 184.040986,4.10230884 185.349171,4.10230884 C185.477582,4.10230884 185.607776,4.11032703 185.73797,4.12725431 L188.269624,4.45332723 C189.072191,4.55578184 189.785584,4.96649117 190.277825,5.60972792 C190.770066,6.25207376 190.979626,7.04676514 190.86905,7.8485838 L190.5721,10.0019124 L192.176343,9.70345763 L192.275326,5.35938232 C192.313671,3.7094177 193.637015,2.41848966 195.287628,2.41848966 L197.897755,2.44610785 C198.704781,2.45501695 199.460977,2.77841714 200.024558,3.35839931 C200.58903,3.93749056 200.892222,4.70100011 200.877063,5.50994604 L200.831584,8.0615112 L204.955887,7.26681982 C205.149395,7.23029252 205.339336,7.21247433 205.527494,7.21247433 C206.967656,7.21247433 208.210743,8.2379113 208.484508,9.65089396 L208.978533,12.2042409 C209.131912,12.9971505 208.966048,13.800751 208.512152,14.4680423 C208.059147,15.1353336 207.371615,15.585243 206.577965,15.7349158 L200.654127,16.8440982 L200.566737,20.9226825 L203.900066,20.6767914 C203.97408,20.6705551 204.048987,20.6678823 204.123001,20.6678823 C205.706734,20.6678823 207.026511,21.9062467 207.128169,23.4849386 L207.29225,26.0650128 C207.397475,27.6971593 206.153496,29.1297419 204.519826,29.257142 L200.439218,29.572524 L200.236792,40.0211121 L206.72421,40.3525304 C208.353422,40.4371668 209.633962,41.8287677 209.58135,43.4555686 L209.499309,46.0285156 C209.445805,47.6624439 208.124244,48.942681 206.489682,48.942681 L206.343437,48.9391174 L184.213093,47.8816076 C183.405175,47.8424076 182.663246,47.4913892 182.121959,46.892698 C182.052403,46.8160797 181.987306,46.7358979 181.926668,46.6530433 C181.882081,46.6860069 181.83571,46.7180797 181.78934,46.7483706 L176.824124,49.9698998 C176.333666,50.2879545 175.767411,50.4554455 175.184212,50.4554455 Z" id="Fill-13" fill="#FFFFFF"></path>
                    <path d="M173.15788,39.8653224 L173.219278,39.5505938 C173.229803,39.4988821 173.238574,39.4462787 173.247345,39.3945669 L173.264888,39.7948874 L173.15788,39.8653224 Z M185.338379,32.4206096 C185.45065,32.4206096 185.563798,32.4170433 185.677823,32.4090191 L189.441524,32.1335201 L189.352059,37.7531638 L185.144537,37.5249187 L184.933152,32.402778 C185.066474,32.4152601 185.201549,32.4206096 185.338379,32.4206096 Z M177.274182,0 C177.152263,0 177.031221,0.00445791184 176.908425,0.0142653179 L167.053158,0.792616725 C165.875192,0.885341291 164.782306,1.41939913 163.974483,2.29493301 L162.308841,4.10484522 C161.479967,5.00445183 161.027376,6.17955739 161.03527,7.41350739 L161.067723,12.4571888 C159.878355,13.3104332 159.142455,14.7601461 159.255603,16.333789 L159.511721,19.8662383 C159.603818,21.1331769 160.233587,22.2458717 161.160697,22.9796439 L161.289633,37.5686062 L158.710914,43.5457744 C158.203065,44.7244463 158.178505,46.0332892 158.643377,47.2306844 C159.107371,48.4280795 160.003782,49.3669157 161.166837,49.8760092 L163.478036,50.8861721 C164.070089,51.1456225 164.697226,51.2775767 165.341906,51.2775767 C167.203144,51.2775767 168.8951,50.1613156 169.65205,48.4316458 L169.744147,48.2212324 L170.944041,50.0864227 C171.818525,51.4451942 173.29471,52.2574257 174.893691,52.2574257 C175.806768,52.2574257 176.695286,51.989951 177.461884,51.4835322 L181.351013,48.915775 C182.04218,49.3731568 182.843863,49.6379567 183.69028,49.6789695 L205.458526,50.7372778 C205.534835,50.7408441 205.610267,50.7426273 205.684822,50.7426273 C208.245998,50.7426273 210.316867,48.7035784 210.398439,46.1010495 L210.480011,43.5243764 C210.561583,40.9316549 208.554743,38.7151812 206.005846,38.583227 L201.32205,38.3389334 L201.457126,31.2276724 L203.883227,31.0368738 C206.440895,30.8353762 208.388968,28.5529253 208.225825,25.9503964 L208.063558,23.370157 C207.905678,20.85322 205.838317,18.8810398 203.356958,18.8810398 C203.241179,18.8810398 203.125399,18.8854977 203.007866,18.8944135 L201.654477,18.9960539 L201.668511,18.3229092 L206.093557,17.4794723 C207.33643,17.2423114 208.413527,16.5263708 209.124868,15.462713 C209.836208,14.3999468 210.095834,13.118743 209.855505,11.8562623 L209.369583,9.30009568 C208.941551,7.0488502 206.994355,5.41457972 204.739291,5.41457972 C204.440195,5.41457972 204.139345,5.44489352 203.844634,5.50195479 L201.912349,5.8808773 L201.919366,5.52602752 C201.941294,4.23858258 201.467652,3.02157264 200.585274,2.09878489 C199.702896,1.17421398 198.519667,0.65887937 197.253113,0.645505634 L194.717373,0.616974999 L194.698953,0.616974999 L194.6665,0.616974999 C192.700008,0.616974999 190.988756,1.8758893 190.287063,3.64033081 C189.62835,3.11608038 188.8407,2.77995382 187.989022,2.66850603 L185.497137,2.3412953 C185.297155,2.31543941 185.093664,2.30206567 184.891928,2.30206567 C183.983236,2.30206567 183.125417,2.56954038 182.397412,3.03316322 C182.364959,3.00195783 182.331628,2.97075245 182.298298,2.94043865 L180.430042,1.23127525 C179.562575,0.43687536 178.441622,0 177.274182,0 Z M194.6665,4.18330447 L194.679657,4.18330447 L197.215397,4.21183511 C197.88639,4.21896776 198.423185,4.77977307 198.410905,5.46183359 L198.353892,8.70006075 C198.341613,9.3999529 198.901212,9.95095081 199.559926,9.95095081 C199.636235,9.95095081 199.713421,9.94381815 199.791484,9.92866125 L204.509487,9.00409033 C204.586673,8.98893343 204.662982,8.98090919 204.739291,8.98090919 C205.306785,8.98090919 205.812881,9.38925392 205.925151,9.97769828 L206.411073,12.5329733 C206.538255,13.2025517 206.105837,13.8480573 205.447124,13.974662 L199.187152,15.1675992 C198.624921,15.2745891 198.213554,15.7676342 198.201274,16.3489459 L198.092512,21.4898098 C198.078478,22.1834609 198.629307,22.7451578 199.3003,22.7451578 C199.330122,22.7451578 199.359944,22.7433746 199.390643,22.7415915 L203.266615,22.4509356 C203.297314,22.4482609 203.327136,22.4473693 203.356958,22.4473693 C203.988481,22.4473693 204.52089,22.9457638 204.562114,23.5984021 L204.724381,26.1768583 C204.766482,26.8482198 204.270912,27.4295315 203.611321,27.4812433 L199.10558,27.8369847 C198.484583,27.8851301 198.002169,28.4049227 197.98989,29.0379461 L197.771488,40.5340092 C197.758331,41.1973465 198.266181,41.7510191 198.917878,41.7848993 L205.826914,42.1442069 C206.484751,42.1789787 206.994355,42.7415671 206.973304,43.4111455 L206.891732,45.9869269 C206.871559,46.652939 206.33301,47.1762978 205.684822,47.1762978 C205.665525,47.1762978 205.646229,47.1762978 205.626055,47.1745147 L183.857809,46.117098 C183.189447,46.0841094 182.673703,45.5045809 182.708788,44.8243035 L182.843863,42.2030514 C182.878071,41.5477383 183.411357,41.0386448 184.049897,41.0386448 C184.071825,41.0386448 184.093753,41.0395364 184.115681,41.040428 L191.549232,41.4434232 C191.57116,41.4443148 191.593088,41.4443148 191.614139,41.4443148 C192.270221,41.4443148 192.811401,40.9102569 192.821927,40.2353291 L192.990333,29.6388727 C193.001735,28.9478963 192.451784,28.3906573 191.783422,28.3906573 C191.7536,28.3906573 191.724655,28.3915489 191.694833,28.3933321 L185.426091,28.8507138 C185.396269,28.8533886 185.367324,28.8542802 185.338379,28.8542802 C184.711242,28.8542802 184.180587,28.3630183 184.1341,27.7166211 L183.944643,25.1363817 C183.895525,24.4605623 184.39548,23.8703347 185.061211,23.8204061 L192.022875,23.2970473 C192.643872,23.250685 193.12804,22.7326756 193.142951,22.1005437 L193.240311,17.8343221 C193.256976,17.1326468 192.696499,16.577191 192.034277,16.577191 C191.959722,16.577191 191.882536,16.5843236 191.80535,16.5985889 L186.161113,17.6925605 C186.085681,17.7059342 186.009372,17.7139585 185.93394,17.7139585 C185.619933,17.7139585 185.315574,17.5900285 185.087524,17.3617834 L183.076299,15.3548315 C182.804393,15.0828989 182.67458,14.6977353 182.724576,14.3143549 L183.695542,6.93472766 C183.776237,6.31775266 184.295489,5.86839514 184.891928,5.86839514 C184.943677,5.86839514 184.996304,5.87196147 185.048931,5.87909413 L187.539939,6.20541328 C188.206546,6.29278835 188.674926,6.91511284 188.582829,7.59182386 L188.188127,10.5072982 C188.086381,11.2597937 188.668786,11.9044078 189.381881,11.9044078 C189.456435,11.9044078 189.53099,11.8972751 189.607299,11.8830098 L192.363195,11.3614341 C192.925426,11.2553358 193.336793,10.7622908 193.34995,10.1809791 L193.457835,5.38426592 C193.472746,4.71647073 194.010418,4.18330447 194.6665,4.18330447 Z M170.787914,14.5952034 C170.823876,14.5952034 170.860715,14.5934202 170.897554,14.5898539 L173.079816,14.3919226 C173.116655,14.3883563 173.153494,14.3865731 173.189456,14.3865731 C173.806068,14.3865731 174.33146,14.8626781 174.391981,15.4983763 L174.634942,18.0830736 C174.698971,18.7597846 174.209541,19.3616027 173.542933,19.4240135 L170.751075,19.6870303 C170.125692,19.7467663 169.649419,20.2817157 169.653804,20.9200887 L169.686258,25.5340274 C169.69152,26.2285701 170.251997,26.7546037 170.893168,26.7546037 C171.008947,26.7546037 171.126481,26.736772 171.244014,26.7011088 L175.275236,25.4689419 C175.803259,25.3066739 176.156737,24.8029299 176.135686,24.2439077 L175.588366,10.0490249 C175.56293,9.384796 175.024381,8.86767823 174.382333,8.86767823 C174.349879,8.86767823 174.318303,8.8694614 174.28585,8.87213614 L170.665118,9.16190041 C170.031841,9.21361219 169.545042,9.75480269 169.551182,10.3994167 L169.580127,13.3781934 C169.587144,14.0584708 170.132709,14.5952034 170.787914,14.5952034 Z M177.274182,3.56632947 C177.571524,3.56632947 177.860095,3.67777727 178.082882,3.88194963 L179.951137,5.59111303 C180.192344,5.81222546 180.336191,6.12249612 180.350225,6.4523816 L181.841321,42.5650338 C181.850092,42.7852547 181.800973,43.0045839 181.698351,43.1971657 L180.844041,44.8171709 C180.748435,44.9990537 180.608097,45.154189 180.437059,45.2665284 L175.55065,48.493165 C175.347159,48.6269023 175.119109,48.6910963 174.893691,48.6910963 C174.498989,48.6910963 174.112181,48.4949482 173.880623,48.1338573 L172.518463,46.0163492 C172.152706,45.4493028 172.310586,44.6861083 172.869309,44.31521 L176.278656,42.0532655 C176.635642,41.8161046 176.844395,41.4059767 176.825976,40.9717761 L176.447062,32.0060238 C176.418994,31.3302044 175.868166,30.8282435 175.241906,30.8282435 C175.129635,30.8282435 175.013856,30.8451836 174.898954,30.8790637 L170.626525,32.1558097 C170.10815,32.3091618 169.753795,32.7950742 169.759058,33.3451806 L169.802037,38.6028418 C169.802914,38.6866505 169.79502,38.7704593 169.778355,38.8533764 L169.619597,39.6638248 C169.602055,39.752983 169.574864,39.8403581 169.538902,39.9232753 L166.447071,46.9810413 C166.247089,47.4393146 165.805023,47.7112472 165.341906,47.7112472 C165.182271,47.7112472 165.020882,47.6791503 164.864755,47.61139 L162.553556,46.6003356 C161.937821,46.3301862 161.65539,45.6026549 161.924665,44.9776557 L164.699857,38.5422142 C164.769149,38.3826209 164.803357,38.2114371 164.80248,38.0375786 L164.65337,21.1028631 C164.648985,20.6704456 164.302524,20.3262948 163.883263,20.3262948 C163.865721,20.3262948 163.848178,20.3271864 163.830636,20.328078 C163.813971,20.3298612 163.796429,20.3307527 163.778886,20.3307527 C163.378922,20.3307527 163.040355,20.0160242 163.011411,19.6041131 L162.755293,16.0716638 C162.723717,15.6437042 163.038601,15.2692396 163.459616,15.2335763 L163.881509,15.197913 C164.283228,15.1640329 164.591095,14.8216653 164.588464,14.4115374 L164.543731,7.38943466 C164.541977,7.07470609 164.658633,6.77156808 164.870018,6.54153983 L166.53566,4.73341079 C166.742659,4.50962362 167.023336,4.37142835 167.325063,4.34824721 L177.18033,3.5698958 C177.211906,3.56722105 177.242605,3.56632947 177.274182,3.56632947 Z" id="Fill-15" fill="#333333"></path>
                    <path d="M241.973755,15.9794816 L244.235499,14.8141589 L242.114053,14.8141589 L241.973755,15.9794816 Z M243.134563,40.8527275 L245.78503,40.8118701 L245.789498,40.7097268 L243.134563,40.8527275 Z M228.542695,49.5544554 C227.814397,49.5544554 227.110227,49.2924355 226.560653,48.8163585 L224.759122,47.2540088 C224.181845,46.752174 223.820824,46.0602636 223.741292,45.3044025 L222.723463,35.634533 L219.703932,37.185336 C219.27589,37.4047222 218.797805,37.5201886 218.318826,37.5201886 C217.191975,37.5210768 216.166997,36.9046637 215.643337,35.9125406 L214.426231,33.603212 C214.050912,32.8908729 213.978529,32.0763905 214.221593,31.309871 C214.463763,30.5424633 214.993678,29.91628 215.712146,29.5467874 L224.693888,24.9210245 L217.765677,24.801117 C216.956954,24.7860176 216.203635,24.4591588 215.643337,23.8809384 C215.08304,23.3009416 214.783678,22.5406396 214.800657,21.7368156 L214.856061,19.121945 C214.890019,17.5027503 216.243848,16.1846566 217.873805,16.1846566 L233.21363,16.4546704 L233.415587,14.8141589 L223.584016,14.8141589 C221.920101,14.8141589 220.565378,13.4676426 220.565378,11.8138081 L220.565378,9.25134147 C220.565378,7.59661868 221.920101,6.25099064 223.584016,6.25099064 L234.433417,6.25099064 L234.642523,4.45593173 C234.820353,2.94332147 236.108054,1.8019802 237.639714,1.8019802 C237.756777,1.8019802 237.874735,1.80908582 237.993586,1.82329708 L240.5815,2.1235098 C241.383074,2.21588295 242.100648,2.61468624 242.601074,3.2453106 C243.102393,3.87593496 243.324903,4.6637713 243.228393,5.46137789 L243.132776,6.25099064 L249.590944,6.25099064 C251.255752,6.25099064 252.609581,7.59661868 252.609581,9.25134147 L252.609581,10.4966025 L253.662262,9.9547985 C254.089411,9.73452407 254.570176,9.61728124 255.050942,9.61728124 C256.201921,9.61728124 257.237622,10.2532348 257.752346,11.2755568 L258.906005,13.5688978 C259.47792,14.7057981 259.243792,16.0549789 258.419877,16.9476233 C259.818388,17.2229663 260.870174,18.4602335 260.854089,19.9231044 L260.827281,22.4837946 C260.809408,24.1207533 259.454686,25.4521701 257.809537,25.4521701 L252.807071,25.3722318 L254.037581,26.5704181 C254.654176,27.1726199 254.983027,28.0093074 254.93924,28.8664236 L254.799836,31.6083073 L255.160857,31.5861022 L255.289538,31.5834376 C256.894474,31.5834376 258.218814,32.8322515 258.303707,34.4265765 L258.440431,36.9810492 C258.483324,37.7813204 258.209877,38.5496163 257.671026,39.1456007 C257.131282,39.7424733 256.391367,40.0942019 255.585325,40.1359474 L254.420049,40.1981216 L254.237751,44.7057535 C254.205581,45.472273 253.884772,46.1917177 253.331624,46.7290807 L251.566731,48.4442013 C251.00822,48.9851171 250.273667,49.2888827 249.496221,49.2995411 L228.542695,49.5544554 Z" id="Fill-17" fill="#FFFFFF"></path>
                    <path d="M238.539783,0.900990099 C236.10002,0.900990099 234.047364,2.72006576 233.76575,5.13127455 L233.73893,5.35443584 L224.477843,5.35443584 C221.826198,5.35443584 219.669837,7.49980708 219.669837,10.1359553 L219.669837,12.7000874 C219.669837,13.6691942 219.961286,14.5733975 220.461933,15.3273448 L218.850921,15.2988939 L218.818736,15.2980048 L218.765096,15.2980048 C216.169774,15.2980048 214.012519,17.3980326 213.957984,19.9790573 L213.902555,22.5965347 C213.875735,23.8768226 214.352244,25.0895397 215.24447,26.0124138 C216.107193,26.9032808 217.256001,27.4198414 218.493315,27.4749649 L215.779984,28.8726124 C214.635647,29.4620783 213.792592,30.4596359 213.405484,31.6812439 C213.018376,32.903741 213.134598,34.2018106 213.731799,35.3362879 L214.949445,37.6479188 C215.781772,39.2287186 217.414241,40.2111618 219.20942,40.2111618 C219.972908,40.2111618 220.736396,40.0271204 221.415846,39.6777085 L222.111388,39.3202948 L222.856996,46.4107779 C222.983946,47.6163823 223.559691,48.7197415 224.477843,49.5172541 L226.280174,51.0793831 C227.156307,51.839554 228.278294,52.2574257 229.440512,52.2574257 L229.461968,52.2574257 L229.497729,52.2574257 L250.42033,52.0022573 C251.662115,51.9862537 252.835061,51.5025894 253.722816,50.6383951 L255.488493,48.9233428 C256.369096,48.0662612 256.881366,46.9211148 256.930537,45.6968396 L257.049441,42.7806284 C259.468642,42.4205474 261.267397,40.2760652 261.135083,37.7981748 L260.998299,35.2411554 C260.888335,33.1784694 259.4749,31.4785317 257.578697,30.9130712 L257.632338,29.859501 C257.662734,29.2602552 257.579591,28.668122 257.392742,28.1106634 L258.638997,28.1311124 L258.668499,28.1311124 L258.716776,28.1311124 C261.339812,28.1311124 263.497067,26.0088575 263.524781,23.400271 L263.552496,20.8379171 C263.568588,19.3131298 262.858741,17.943044 261.743906,17.0539552 C262.045189,15.9550415 261.960258,14.7476589 261.414015,13.6629706 L260.259844,11.3664542 C259.440033,9.73675447 257.791472,8.72408234 255.95785,8.72408234 C255.675342,8.72408234 255.39194,8.74897683 255.113007,8.7987658 C254.53011,6.81076327 252.680396,5.35443584 250.496321,5.35443584 L245.900197,5.35443584 C245.789339,4.51069058 245.451402,3.70962158 244.907842,3.02413412 C244.111276,2.01857471 242.968726,1.38287622 241.689393,1.23439839 L239.099435,0.933886384 C238.914374,0.912548253 238.725738,0.900990099 238.539783,0.900990099 M232.391651,43.728397 L232.411319,43.728397 L247.240323,43.4972339 C247.892953,43.4865649 248.424891,42.9726715 248.452606,42.3245258 L248.505353,41.0940269 C248.535749,40.393425 247.971626,39.8164063 247.27519,39.8164063 C247.25284,39.8164063 247.230489,39.8172954 247.207245,39.8172954 L233.971373,40.5321228 C233.949023,40.5330119 233.925778,40.533901 233.903428,40.533901 C233.25348,40.533901 232.70992,40.0271204 232.674159,39.372751 L232.536481,36.8041735 C232.500721,36.1293551 233.020143,35.5532256 233.697805,35.5149948 L247.676602,34.7379312 C248.303306,34.7032567 248.803953,34.2044779 248.837926,33.5812267 L248.863852,33.1108987 C248.902295,32.4058513 248.336384,31.8181636 247.634583,31.8181636 C247.611339,31.8181636 247.587201,31.8190527 247.563956,31.8199418 L231.358171,32.7365923 C230.651901,32.7766013 230.124433,33.3980744 230.203106,34.0968982 L231.166852,42.6392632 C231.23748,43.2607363 231.764948,43.728397 232.391651,43.728397 M238.539783,4.45734525 C238.58806,4.45734525 238.635442,4.46001252 238.684613,4.46623614 L241.275464,4.76763724 C241.952233,4.84587705 242.436788,5.45668105 242.355433,6.13061035 L242.18557,7.53892699 C242.097063,8.26886888 242.670126,8.91079099 243.408581,8.91079099 L250.496321,8.91079099 C251.176665,8.91079099 251.728272,9.45935877 251.728272,10.1359553 L251.728272,12.7000874 C251.728272,13.376684 251.176665,13.9252517 250.496321,13.9252517 L242.522613,13.9252517 C241.899486,13.9252517 241.373806,14.3893561 241.299603,15.0046055 L240.786439,19.2597845 L241.827071,19.2597845 C242.023754,19.2597845 242.218649,19.2135519 242.393875,19.1228648 L255.39194,12.4182463 C255.573424,12.3248919 255.767425,12.2804375 255.95785,12.2804375 C256.410221,12.2804375 256.845606,12.5276042 257.061063,12.9579231 L258.216129,15.2535504 C258.515623,15.8492399 258.281392,16.5747363 257.687766,16.8859174 L257.021726,17.2344402 C255.891693,17.8265734 256.301151,19.525622 257.577803,19.5442929 L258.762371,19.5611856 C259.440033,19.5718546 259.983593,20.1248679 259.976441,20.8005753 L259.948727,23.3629292 C259.941575,24.0359694 259.390862,24.5747572 258.716776,24.5747572 L258.697108,24.5747572 L243.61778,24.3329251 L243.598112,24.3329251 C243.400535,24.3329251 243.20564,24.3800468 243.030413,24.4707339 L242.57983,24.702786 C241.422977,25.2984755 241.870878,27.0170841 243.135013,27.0170841 C243.162727,27.0170841 243.19223,27.0161951 243.221732,27.0144169 L250.860184,26.5485344 C250.886111,26.5476453 250.910249,26.5467562 250.936176,26.5467562 C251.257127,26.5467562 251.567349,26.6712286 251.798005,26.8961681 L253.69242,28.7419164 C253.944531,28.988194 254.078634,29.3296041 254.060753,29.6799051 L253.889997,33.0415498 C253.853342,33.7457081 254.420147,34.3298394 255.118371,34.3298394 C255.144298,34.3298394 255.16933,34.3289503 255.195257,34.3280612 L256.122349,34.2711596 C256.147381,34.2693814 256.172413,34.2684923 256.197446,34.2684923 C256.848288,34.2684923 257.391848,34.776162 257.426715,35.4296423 L257.563499,37.9875507 C257.600153,38.6632582 257.078049,39.2402768 256.399493,39.2758404 L254.726793,39.3656383 C254.092044,39.3985346 253.586926,39.9070934 253.561,40.5392355 L253.358059,45.5536963 C253.345542,45.8657664 253.213228,46.1609439 252.987937,46.3796598 L251.223154,48.0964902 C250.996969,48.3169842 250.693004,48.4423458 250.376523,48.4459021 L229.45571,48.7010706 L229.440512,48.7010706 C229.142806,48.7010706 228.854933,48.5943799 228.630536,48.3996695 L226.829098,46.8366514 C226.593973,46.6330501 226.445567,46.3485417 226.413382,46.0409169 L225.310169,35.5550038 C225.242224,34.9006344 224.685254,34.4552009 224.083583,34.4552009 C223.89584,34.4552009 223.702733,34.4987663 223.51946,34.5938988 L219.774437,36.518776 C219.593846,36.6112413 219.399845,36.6548066 219.20942,36.6548066 C218.76599,36.6548066 218.336863,36.4156417 218.116936,35.9986591 L216.900183,33.6870282 C216.582808,33.0851151 216.818828,32.342726 217.424969,32.0306558 L228.361438,26.3956111 C229.496835,25.8105907 229.095423,24.1053184 227.816089,24.0822021 L218.68821,23.9230552 C218.006078,23.9106079 217.463412,23.3495929 217.477716,22.6712182 L217.533145,20.0537408 C217.547449,19.3869242 218.096373,18.85436 218.765096,18.85436 L218.787446,18.85436 L234.580196,19.1335339 C234.587349,19.134423 234.594501,19.134423 234.602547,19.134423 C235.223886,19.134423 235.748672,18.6729859 235.824663,18.0577364 L236.164389,15.299783 C236.25379,14.5698411 235.681621,13.9252517 234.941378,13.9252517 L224.477843,13.9252517 C223.797498,13.9252517 223.245892,13.376684 223.245892,12.7000874 L223.245892,10.1359553 C223.245892,9.45935877 223.797498,8.91079099 224.477843,8.91079099 L235.826451,8.91079099 C236.452261,8.91079099 236.977941,8.44401937 237.050356,7.82699176 L237.317666,5.54203357 C237.390081,4.91789324 237.922913,4.45734525 238.539783,4.45734525" id="Fill-19" fill="#333333"></path>
                </g>
            </g>
        </g>
    </g>
</svg>