<?xml version="1.0" encoding="UTF-8"?>
<svg width="40px" height="35px" viewBox="0 0 40 35" version="1.1" xmlns="http://www.w3.org/2000/svg" xmlns:xlink="http://www.w3.org/1999/xlink">
    <!-- Generator: Sketch 51.2 (57519) - http://www.bohemiancoding.com/sketch -->
    <title>VIP1 </title>
    <desc>Created with Sketch.</desc>
    <defs></defs>
    <g id="Page-1" stroke="none" stroke-width="1" fill="none" fill-rule="evenodd">
        <g id="足记5.0切图" transform="translate(-104.000000, -2630.000000)">
            <g id="VIP1-" transform="translate(125.000000, 2646.500000) rotate(-30.000000) translate(-125.000000, -2646.500000) translate(105.000000, 2631.000000)">
                <path d="M27.4887231,16.2644296 L20.0057918,2.73405137 L12.5228604,16.2644296 L2.6094511,9.94114786 L7.04130378,27.2450706 C7.11188131,27.5205918 7.36028637,27.7133123 7.64487318,27.7133389 L32.3667103,27.7133389 C32.6512972,27.7133123 32.8997022,27.5205918 32.9702797,27.2450706 L37.4021324,9.94114786 L27.4887231,16.2644296 Z" id="Shape" fill="#87A924" fill-rule="nonzero"></path>
                <polygon id="Triangle-6" fill="#99BE2D" points="2.53521127 8.61971831 17.915493 27.7183099 5.91549296 27.7183099"></polygon>
                <polygon id="Triangle-6-Copy" fill="#99BE2D" transform="translate(29.830986, 18.169014) scale(-1, 1) translate(-29.830986, -18.169014) " points="22.1408451 8.61971831 30.1846399 18.6081669 37.5211268 27.7183099 25.5211268 27.7183099"></polygon>
                <polygon id="Triangle-5" fill="#AFD63D" points="20.028169 3 34.2253521 28.0140845 6 28.0140845"></polygon>
                <text id="1" font-family="PingFangSC-Medium, PingFang SC" font-size="18" font-weight="400" fill="#FFFFFF">
                    <tspan x="16" y="25">1</tspan>
                </text>
                <path d="M4.36420347e-16,9.87986744 C1.45473449e-16,11.2868895 1.1404746,12.4275062 2.54732131,12.4275062 C3.95416802,12.4275062 5.09464262,11.2868895 5.09464262,9.87986744 C5.09464262,8.4728454 3.95416802,7.33222867 2.54732131,7.33222867 C1.1404746,7.33222867 1.45473449e-16,8.4728454 0,9.87986744 Z" id="Shape" fill="#B4DB41" fill-rule="nonzero"></path>
                <path d="M34.7926813,9.87986744 C34.7926813,10.7900511 35.278198,11.6310955 36.0663419,12.0861873 C36.8544859,12.5412792 37.8255193,12.5412792 38.6136633,12.0861873 C39.4018073,11.6310955 39.887324,10.7900511 39.8873239,9.87986744 C39.887324,8.96968378 39.4018073,8.12863939 38.6136633,7.67354755 C37.8255193,7.21845571 36.8544859,7.21845571 36.0663419,7.67354755 C35.278198,8.12863939 34.7926813,8.96968378 34.7926813,9.87986744 Z" id="Shape" fill="#B4DB41" fill-rule="nonzero"></path>
                <path d="M17.2720811,2.60977629 C17.272081,3.54215955 17.7812815,4.40371723 18.6078715,4.86990888 C19.4344615,5.33610052 20.4528624,5.33610052 21.2794524,4.86990888 C22.1060425,4.40371723 22.6152429,3.54215955 22.6152429,2.60977629 C22.6152429,1.67739303 22.1060425,0.815835363 21.2794524,0.349643727 C20.4528624,-0.116547909 19.4344615,-0.116547909 18.6078715,0.349643727 C17.7812815,0.815835363 17.2720811,1.67739303 17.2720811,2.60977629 Z" id="Shape" fill="#B4DB41" fill-rule="nonzero"></path>
            </g>
        </g>
    </g>
</svg>