<?xml version="1.0" encoding="UTF-8"?>
<svg width="40px" height="35px" viewBox="0 0 40 35" version="1.1" xmlns="http://www.w3.org/2000/svg" xmlns:xlink="http://www.w3.org/1999/xlink">
    <!-- Generator: Sketch 51.2 (57519) - http://www.bohemiancoding.com/sketch -->
    <title>VIP3</title>
    <desc>Created with Sketch.</desc>
    <defs></defs>
    <g id="Page-1" stroke="none" stroke-width="1" fill="none" fill-rule="evenodd">
        <g id="足记5.0切图" transform="translate(-220.000000, -2630.000000)">
            <g id="VIP3" transform="translate(241.000000, 2646.500000) rotate(-30.000000) translate(-241.000000, -2646.500000) translate(221.000000, 2631.000000)">
                <path d="M27.3237907,16.166843 L19.885757,2.71764706 L12.4477233,16.166843 L2.59379439,9.88150097 L6.99905596,27.0816002 C7.06921002,27.3554683 7.31612465,27.5470324 7.59900394,27.5470588 L32.1725101,27.5470588 C32.4553894,27.5470324 32.702304,27.3554683 32.7724581,27.0816002 L37.1777196,9.88150097 L27.3237907,16.166843 Z" id="Shape" fill="#3A6FED" fill-rule="nonzero"></path>
                <polygon id="Triangle-6" fill="#5082F9" points="2.52 8.568 17.808 27.552 5.88 27.552"></polygon>
                <polygon id="Triangle-6-Copy" fill="#5082F9" transform="translate(29.652000, 18.060000) scale(-1, 1) translate(-29.652000, -18.060000) " points="22.008 8.568 30.0035321 18.4965179 37.296 27.552 25.368 27.552"></polygon>
                <polygon id="Triangle-5" fill="#6899FF" points="19.944 3 34.056 27.864 6 27.864"></polygon>
                <text id="3" font-family="PingFangSC-Medium, PingFang SC" font-size="18" font-weight="400" fill="#FFFFFF">
                    <tspan x="14" y="25">3</tspan>
                </text>
                <path d="M4.33801825e-16,9.82058824 C1.44600608e-16,11.2191681 1.13363175,12.3529412 2.53203738,12.3529412 C3.93044302,12.3529412 5.06407477,11.2191681 5.06407477,9.82058824 C5.06407477,8.42200832 3.93044302,7.28823529 2.53203738,7.28823529 C1.13363175,7.28823529 1.44600608e-16,8.42200832 0,9.82058824 Z" id="Shape" fill="#77A0FF" fill-rule="nonzero"></path>
                <path d="M34.5839252,9.82058824 C34.5839252,10.7253108 35.0665288,11.5613089 35.8499439,12.0136702 C36.633359,12.4660315 37.5985662,12.4660315 38.3819813,12.0136702 C39.1653964,11.5613089 39.648,10.7253108 39.648,9.82058824 C39.648,8.91586568 39.1653964,8.07986755 38.3819813,7.62750626 C37.5985662,7.17514497 36.633359,7.17514497 35.8499439,7.62750626 C35.0665288,8.07986755 34.5839252,8.91586568 34.5839252,9.82058824 Z" id="Shape" fill="#77A0FF" fill-rule="nonzero"></path>
                <path d="M17.1684486,2.59411763 C17.1684486,3.5209066 17.6745938,4.37729493 18.4962243,4.84068942 C19.3178547,5.30408392 20.3301453,5.30408392 21.1517757,4.84068942 C21.9734062,4.37729493 22.4795514,3.5209066 22.4795514,2.59411763 C22.4795514,1.66732867 21.9734062,0.810940351 21.1517757,0.347545865 C20.3301452,-0.115848622 19.3178548,-0.115848622 18.4962243,0.347545865 C17.6745938,0.810940351 17.1684486,1.66732867 17.1684486,2.59411763 Z" id="Shape" fill="#77A0FF" fill-rule="nonzero"></path>
            </g>
        </g>
    </g>
</svg>