<?xml version="1.0" encoding="UTF-8"?>
<svg width="539px" height="703px" viewBox="0 0 539 703" version="1.1" xmlns="http://www.w3.org/2000/svg" xmlns:xlink="http://www.w3.org/1999/xlink">
    <!-- Generator: Sketch 51.2 (57519) - http://www.bohemiancoding.com/sketch -->
    <title>Path 17 Copy 2</title>
    <desc>Created with Sketch.</desc>
    <defs>
        <linearGradient x1="56.0857562%" y1="95.9296756%" x2="56.0857562%" y2="-3.83470133%" id="linearGradient-1">
            <stop stop-color="#FFFFFF" stop-opacity="0" offset="0%"></stop>
            <stop stop-color="#FDDAE0" offset="100%"></stop>
        </linearGradient>
    </defs>
    <g id="Page-1" stroke="none" stroke-width="1" fill="none" fill-rule="evenodd">
        <g id="足记游戏切图" transform="translate(-1712.000000, -1690.000000)">
            <g id="弹框背景" transform="translate(1238.000000, 1740.000000)" stroke="#FF846E" stroke-linecap="round" stroke-linejoin="round" stroke-width="4">
                <g id="Group-9-Copy" transform="translate(400.000000, 264.000000)">
                    <path d="M0,4.17287996 C2.95908308,1.39095999 6.10712178,1.1200744e-16 9.4441161,0 C12.7811104,-7.67374204e-17 16.2997384,1.39095999 20,4.17287996 C22.5472127,6.92047388 25.4914237,8.29427083 28.8326329,8.29427083 C32.1738421,8.29427083 35.8962978,6.92047388 40,4.17287996 C43.0497166,1.39095999 46.2426287,1.11977683e-16 49.5787365,0 C52.9148443,-7.67374204e-17 56.3885988,1.39095999 60,4.17287996 C64.21969,6.92047388 67.9917619,8.29427083 71.3162157,8.29427083 C74.6406696,8.29427083 77.5352644,6.92047388 80,4.17287996" id="Path-28-Copy-2"></path>
                    <path d="M0,17.5062133 C2.95908308,14.7242933 6.10712178,13.3333333 9.4441161,13.3333333 C12.7811104,13.3333333 16.2997384,14.7242933 20,17.5062133 C22.5472127,20.2538072 25.4914237,21.6276042 28.8326329,21.6276042 C32.1738421,21.6276042 35.8962978,20.2538072 40,17.5062133 C43.0497166,14.7242933 46.2426287,13.3333333 49.5787365,13.3333333 C52.9148443,13.3333333 56.3885988,14.7242933 60,17.5062133 C64.21969,20.2538072 67.9917619,21.6276042 71.3162157,21.6276042 C74.6406696,21.6276042 77.5352644,20.2538072 80,17.5062133" id="Path-28-Copy-3"></path>
                    <path d="M0,30.8395466 C2.95908308,28.0576267 6.10712178,26.6666667 9.4441161,26.6666667 C12.7811104,26.6666667 16.2997384,28.0576267 20,30.8395466 C22.5472127,33.5871405 25.4914237,34.9609375 28.8326329,34.9609375 C32.1738421,34.9609375 35.8962978,33.5871405 40,30.8395466 C43.0497166,28.0576267 46.2426287,26.6666667 49.5787365,26.6666667 C52.9148443,26.6666667 56.3885988,28.0576267 60,30.8395466 C64.21969,33.5871405 67.9917619,34.9609375 71.3162157,34.9609375 C74.6406696,34.9609375 77.5352644,33.5871405 80,30.8395466" id="Path-28-Copy-6"></path>
                </g>
            </g>
            <polygon id="Path-17-Copy-2" fill="url(#linearGradient-1)" opacity="0.126897321" points="1915.04312 1690 1703 2423 2260 2423 2040.51478 1690"></polygon>
        </g>
    </g>
</svg>