<?xml version="1.0" encoding="UTF-8"?>
<svg width="471px" height="135px" viewBox="0 0 471 135" version="1.1" xmlns="http://www.w3.org/2000/svg" xmlns:xlink="http://www.w3.org/1999/xlink">
    <!-- Generator: Sketch 51.2 (57519) - http://www.bohemiancoding.com/sketch -->
    <title>win彩带</title>
    <desc>Created with Sketch.</desc>
    <defs>
        <path d="M10.2111429,0.270881551 C7.54114286,1.35011486 5.52385714,3.91383058 4.42414286,6.48699067 C1.71685714,12.8202958 -0.461142857,19.2231457 0.533142857,26.2038191 C1.39157143,32.2336167 4.94142857,37.5465011 10.485,40.1471357 C16.4627143,42.9512534 22.9864286,41.4079584 27.9471429,37.2842053 C32.1728571,33.7717602 35.8354286,28.3974874 35.8637143,22.759631 L35.8637143,22.6265513 C35.8585714,21.6658019 35.7475714,20.6981838 35.5152857,19.7305657 C34.9242857,17.2685915 31.1708571,19.7455908 30.2284286,20.5316195 C28.5557143,21.9263805 25.9838571,24.7691342 26.574,27.2268155 C26.8984286,28.5769304 26.8011429,30.1476999 26.4094286,31.1432218 C26.4218571,31.092995 26.3434286,31.2144838 26.2714286,31.3424121 C26.2307143,31.3655937 26.1814286,31.3999368 26.1368571,31.43428 C26.1184286,31.4484465 26.1008571,31.4630424 26.085,31.4763503 C25.8535714,31.6012735 25.5968571,31.7407925 25.5445714,31.7583934 C21.6981429,33.0630036 17.1792857,31.1247624 14.3477143,28.5417286 C11.1972857,25.6684953 9.52842857,21.4391371 9.32657143,17.2119253 C9.08357143,12.1085341 11.0387143,7.47607322 13.0037143,2.87967265 C13.7558571,1.11915721 12.8485714,0.0128786791 11.4484286,0.0128786791 C11.0648571,0.0128786791 10.6444286,0.0957315147 10.2111429,0.270881551" id="path-1"></path>
        <linearGradient x1="50%" y1="1.70926662%" x2="50%" y2="100%" id="linearGradient-3">
            <stop stop-color="#FFCA00" offset="0%"></stop>
            <stop stop-color="#FF8E97" offset="100%"></stop>
        </linearGradient>
        <linearGradient x1="70.3417692%" y1="23.5448275%" x2="50%" y2="122.819146%" id="linearGradient-4">
            <stop stop-color="#61E7FC" offset="0%"></stop>
            <stop stop-color="#1FA1F8" offset="100%"></stop>
        </linearGradient>
        <path d="M9.76694443,0.548427339 C1.64909519,6.29160699 -3.14127422,17.1939097 2.361834,26.1761888 C4.69994498,29.9919551 8.31634346,32.7559972 11.8355255,35.5023567 C13.6026262,36.8818705 15.3697269,38.2714133 16.981445,39.8219477 C18.6808219,41.4566729 20.5967512,43.4065195 21.183327,45.7171458 C21.3242363,46.2737546 21.3788523,46.8580752 21.1846924,47.401752 C21.1942502,47.3745681 21.2155505,47.3658587 21.2365776,47.3542462 C21.1931579,47.4133645 21.1497382,47.4724827 21.1063185,47.5318649 C21.0593487,47.5812181 20.9935364,47.651421 20.9088816,47.7422097 C20.8777505,47.7720328 20.6112244,48.0082419 20.6052167,48.0164234 C20.3433329,48.2365333 20.0732568,48.447406 19.8023615,48.6569591 C19.2870595,49.0560073 18.7621997,49.4429151 18.2261437,49.8153073 C15.6895035,51.578298 12.977546,53.0939949 10.1457064,54.3655651 C8.54436526,55.0847492 7.01129412,56.5360495 6.4585802,58.1871377 C6.01427903,59.5130756 6.80921492,60.4325755 8.2379695,59.7907203 C13.6468651,57.3618575 19.2783209,54.2182973 23.4253139,50.0100808 C25.5326722,47.8715309 27.368316,45.0417725 27.0335199,41.9781804 C26.7620784,39.4928386 24.9477349,37.2856692 23.2639236,35.4936473 C17.3577493,29.2099579 7.29202037,25.1257842 5.88729683,15.8547757 C5.54703915,13.6103936 5.83431931,11.2678329 6.62707056,9.13904807 C6.97988992,8.1923643 7.49218801,7.27919847 7.88105393,6.74739814 C8.01431698,6.56529282 8.15113006,6.38529886 8.29285858,6.20899979 C8.41328686,6.07624765 8.53671902,5.94666256 8.66342814,5.81945275 C8.69100922,5.79147715 8.80761438,5.68247788 8.9083809,5.58773032 C8.96245074,5.54946181 9.07550587,5.46131228 9.18501095,5.37342667 C9.40101723,5.19950289 9.60282335,5.02557911 9.30762387,5.23434043 C10.6405274,4.29135155 12.3057692,2.85509478 12.4237398,1.13037261 C12.4810866,0.293743806 11.9980081,0 11.3964128,0 C10.8445181,0 10.1929492,0.247029831 9.76694443,0.548427339" id="path-5"></path>
        <linearGradient x1="0%" y1="0%" x2="101.999998%" y2="100.999999%" id="linearGradient-7">
            <stop stop-color="#FA4B7F" offset="0%"></stop>
            <stop stop-color="#C86DD7" offset="100%"></stop>
        </linearGradient>
        <path d="M18.231202,0.668863456 C11.6086072,3.02233257 7.38137706,10.4640117 8.12996961,17.2849778 C8.49982759,20.6538615 10.0371217,23.7043637 11.7621394,26.5730738 C13.5594848,29.5623235 15.6024159,32.4097427 17.846221,35.0829037 C18.9725618,36.4252163 20.1505184,37.7239644 21.3774606,38.9765275 C22.4308161,40.052212 23.7744691,41.1187249 24.5168152,42.451211 C24.5411436,42.4947755 24.5674446,42.5593035 24.5950607,42.6375887 C24.3613104,42.6664134 24.1275602,42.6896696 23.8970976,42.7103055 C17.5168008,43.2818857 8.45478711,41.2920005 6.91453409,34.0370266 C6.51245737,32.1404941 3.55162094,34.073385 2.8592468,34.6479132 C1.53959352,35.7419406 -0.34849038,37.8520377 0.0555589174,39.7567591 C1.44063596,46.280962 8.11681911,49.22894 14.1775586,49.8060886 C15.3545289,49.9181117 16.5377456,49.9977071 17.7163597,50 L17.8136735,50 C19.6646072,49.9967245 21.5030479,49.7988824 23.2882291,49.2328706 C26.6278001,48.1738914 29.5768011,45.6818673 31.1252732,42.5429258 C31.6568824,41.4656036 31.8972079,40.4357767 31.8965504,39.4491867 C31.8952353,37.3934634 30.8461537,35.5280484 29.204313,33.8211691 C26.7971129,31.3193184 24.4142412,28.8577568 22.2963522,26.0981218 C18.7766193,21.5130333 13.7603588,14.9030115 15.1582576,8.71225769 C15.1737094,8.64478175 15.4344182,7.8452246 15.526143,7.52848074 C15.6231279,7.50194894 15.7141952,7.47738246 15.754633,7.46788342 C15.9610959,7.41711268 15.9377538,7.4135096 16.2500783,7.35291227 C16.7931942,7.24744017 17.3343375,7.2025654 17.8846862,7.23204518 C20.4204325,7.36666951 23.0600679,8.72994556 24.2031756,11.0660544 C25.0300137,12.7562284 27.2886131,11.2593107 28.2587917,10.4545127 C29.2671067,9.61892471 31.8508524,6.95821077 31.0624795,5.34632191 C29.3354893,1.81595446 25.791428,0.000327553113 22.0928481,0 C20.8004822,0 19.490363,0.221425904 18.231202,0.668863456 M15.5494851,7.40695854 C15.794742,6.82555176 15.7950708,7.16587945 15.5494851,7.40695854 M15.3045569,7.59071583 C15.2950228,7.59661179 15.2858175,7.60218019 15.2769409,7.60742104 C15.2332154,7.61757519 15.2118459,7.62216093 15.2072432,7.62216093 C15.1996816,7.62216093 15.2411057,7.60905881 15.3045569,7.59071583 M15.2598452,7.61724764 C15.1855449,7.65917444 15.138203,7.6762072 15.1270251,7.6762072 C15.1135458,7.6762072 15.1523398,7.65196827 15.2598452,7.61724764 M26.6564025,42.2062012 C26.7214975,42.2186483 26.6817172,42.2360086 26.5945951,42.2553342 C26.6162934,42.2379739 26.6370055,42.2215962 26.6564025,42.2062012" id="path-8"></path>
        <linearGradient x1="82.906428%" y1="0%" x2="50%" y2="143.356634%" id="linearGradient-10">
            <stop stop-color="#5627FF" offset="0%"></stop>
            <stop stop-color="#CB6DD7" offset="100%"></stop>
        </linearGradient>
    </defs>
    <g id="Page-1" stroke="none" stroke-width="1" fill="none" fill-rule="evenodd">
        <g id="足记游戏切图" transform="translate(-1507.000000, -305.000000)">
            <g id="win彩带" transform="translate(1508.000000, 295.000000)">
                <g id="Group-9" transform="translate(421.091095, 107.147968) rotate(-16.000000) translate(-421.091095, -107.147968) translate(403.091095, 86.147968)">
                    <mask id="mask-2" fill="white">
                        <use xlink:href="#path-1"></use>
                    </mask>
                    <g id="Clip-8"></g>
                    <path d="M45.9230508,0.258002872 C43.2530508,1.33723618 41.2357651,3.9009519 40.1360508,6.47411199 C37.4287651,12.8074171 35.2507651,19.210267 36.2450508,26.1909404 C37.1034794,32.220738 40.6533365,37.5336224 46.196908,40.134257 C52.1746223,42.9383747 58.6983365,41.3950797 63.6590508,37.2713266 C67.8847651,33.7588816 71.5473365,28.3846088 71.5756223,22.7467523 L71.5756223,22.6136726 C71.5704794,21.6529232 71.4594794,20.6853051 71.2271937,19.717687 C70.6361937,17.2557128 66.8827651,19.7327121 65.9403365,20.5187408 C64.2676223,21.9135018 61.6957651,24.7562556 62.285908,27.2139368 C62.6103365,28.5640517 62.5130508,30.1348212 62.1213365,31.1303431 C62.1337651,31.0801163 62.0553365,31.2016052 61.9833365,31.3295334 C61.9426223,31.352715 61.8933365,31.3870581 61.8487651,31.4214013 C61.8303365,31.4355678 61.8127651,31.4501637 61.796908,31.4634716 C61.5654794,31.5883948 61.3087651,31.7279139 61.2564794,31.7455147 C57.4100508,33.0501249 52.8911937,31.1118837 50.0596223,28.52885 C46.9091937,25.6556167 45.2403365,21.4262584 45.0384794,17.1990467 C44.7954794,12.0956554 46.7506223,7.46319454 48.7156223,2.86679397 C49.4677651,1.10627854 48.5604794,0 47.1603365,0 C46.7767651,0 46.3563365,0.0828528356 45.9230508,0.258002872" id="Fill-7" fill="url(#linearGradient-3)" mask="url(#mask-2)"></path>
                </g>
                <path d="M23.5033385,109.70093 L35.2814822,133.257217 C36.0224499,134.739152 35.4217769,136.541172 33.9398414,137.282139 C33.5232751,137.490422 33.0639359,137.598858 32.5982006,137.598858 L9.04191317,137.598858 C7.38505892,137.598858 6.04191317,136.255712 6.04191317,134.598858 C6.04191317,134.133122 6.15034844,133.673783 6.3586316,133.257217 L18.1367753,109.70093 C18.8777431,108.218994 20.6797622,107.618321 22.1616977,108.359289 C22.7422799,108.64958 23.2130474,109.120347 23.5033385,109.70093 Z" id="Triangle-2" stroke="url(#linearGradient-4)" stroke-width="4" transform="translate(20.820385, 122.820385) rotate(40.000000) translate(-20.820385, -122.820385) "></path>
                <path d="M136.311879,41 C137.298501,41 138.098317,41.7998155 138.098317,42.7864379 L138.098317,50.5276688 C138.098317,51.5142912 137.298501,52.3141067 136.311879,52.3141067 C135.325256,52.3141067 134.525441,51.5142912 134.525441,50.5276688 L134.525441,42.7864379 C134.525441,41.7998155 135.325256,41 136.311879,41 Z M150.857014,46.2939963 C151.61281,46.9281849 151.711393,48.0549906 151.077204,48.8107872 L146.101237,54.7409141 C145.467049,55.4967107 144.340243,55.5952935 143.584446,54.9611048 C142.82865,54.3269161 142.730067,53.2001104 143.364256,52.4443138 L148.340223,46.5141869 C148.974411,45.7583903 150.101217,45.6598076 150.857014,46.2939963 Z M158.596319,59.6988653 C158.767644,60.6704987 158.118866,61.5970497 157.147232,61.7683749 L149.523608,63.1126255 C148.551975,63.2839507 147.625424,62.6351727 147.454099,61.6635393 C147.282773,60.6919059 147.931551,59.7653549 148.903185,59.5940298 L156.526809,58.2497791 C157.498442,58.0784539 158.424993,58.7272319 158.596319,59.6988653 Z M155.908486,74.94232 C155.415175,75.7967601 154.322607,76.0895129 153.468167,75.5962017 L146.764064,71.7255862 C145.909624,71.232275 145.616871,70.1397067 146.110182,69.2852667 C146.603494,68.4308266 147.696062,68.1380738 148.550502,68.631385 L155.254605,72.5020005 C156.109045,72.9953117 156.401797,74.0878799 155.908486,74.94232 Z M144.051183,84.8917784 C143.124062,85.2292232 142.098928,84.7511955 141.761483,83.8240737 L139.113826,76.5496961 C138.776382,75.6225743 139.254409,74.5974406 140.181531,74.2599959 C141.108653,73.9225511 142.133787,74.4005789 142.471231,75.3277006 L145.118888,82.6020782 C145.456333,83.5292 144.978305,84.5543337 144.051183,84.8917784 Z M128.572574,84.8917784 C127.645452,84.5543337 127.167424,83.5292 127.504869,82.6020782 L130.152526,75.3277006 C130.489971,74.4005789 131.515104,73.9225511 132.442226,74.2599959 C133.369348,74.5974406 133.847376,75.6225743 133.509931,76.5496961 L130.862274,83.8240737 C130.524829,84.7511955 129.499696,85.2292232 128.572574,84.8917784 Z M116.715271,74.94232 C116.22196,74.0878799 116.514713,72.9953117 117.369153,72.5020005 L124.073255,68.631385 C124.927695,68.1380738 126.020264,68.4308266 126.513575,69.2852667 C127.006886,70.1397067 126.714133,71.232275 125.859693,71.7255862 L119.155591,75.5962017 C118.301151,76.0895129 117.208582,75.7967601 116.715271,74.94232 Z M114.027439,59.6988653 C114.198764,58.7272319 115.125315,58.0784539 116.096948,58.2497791 L123.720572,59.5940298 C124.692206,59.7653549 125.340984,60.6919059 125.169659,61.6635393 C124.998333,62.6351727 124.071782,63.2839507 123.100149,63.1126255 L115.476525,61.7683749 C114.504892,61.5970497 113.856114,60.6704987 114.027439,59.6988653 Z M121.766743,46.2939963 C122.52254,45.6598076 123.649346,45.7583903 124.283534,46.5141869 L129.259502,52.4443138 C129.89369,53.2001104 129.795108,54.3269161 129.039311,54.9611048 C128.283514,55.5952935 127.156709,55.4967107 126.52252,54.7409141 L121.546553,48.8107872 C120.912364,48.0549906 121.010947,46.9281849 121.766743,46.2939963 Z" id="Rectangle-48" fill="#FFCF25"></path>
                <path d="M337.218191,10 C338.046618,10 338.718191,10.6715729 338.718191,11.5 L338.718191,15.9570248 C338.718191,16.785452 338.046618,17.4570248 337.218191,17.4570248 C336.389764,17.4570248 335.718191,16.785452 335.718191,15.9570248 L335.718191,11.5 C335.718191,10.6715729 336.389764,10 337.218191,10 Z M346.804757,13.4892248 C347.439369,14.0217275 347.522145,14.9678609 346.989642,15.6024729 L344.124722,19.016752 C343.592219,19.651364 342.646086,19.7341399 342.011474,19.2016373 C341.376862,18.6691346 341.294086,17.7230012 341.826589,17.0883892 L344.691509,13.6741101 C345.224012,13.0394981 346.170145,12.9567221 346.804757,13.4892248 Z M351.905662,22.3242521 C352.049517,23.1400936 351.504765,23.9180812 350.688923,24.061936 L346.29961,24.8358903 C345.483769,24.9797451 344.705781,24.4349924 344.561927,23.6191509 C344.418072,22.8033095 344.962824,22.0253219 345.778666,21.881467 L350.167979,21.1075128 C350.98382,20.9636579 351.761808,21.5084107 351.905662,22.3242521 Z M350.134137,32.3710745 C349.719923,33.0885135 348.802537,33.3343262 348.085098,32.9201127 L344.225202,30.6916002 C343.507763,30.2773867 343.26195,29.3600011 343.676164,28.6425621 C344.090377,27.9251232 345.007763,27.6793105 345.725202,28.093524 L349.585098,30.3220364 C350.302537,30.73625 350.54835,31.6536356 350.134137,32.3710745 Z M342.319096,38.9286721 C341.540629,39.2120109 340.679866,38.8106303 340.396527,38.0321634 L338.872135,33.8439301 C338.588796,33.0654632 338.990177,32.2046997 339.768643,31.9213609 C340.54711,31.6380222 341.407874,32.0394028 341.691213,32.8178696 L343.215605,37.006103 C343.498944,37.7845699 343.097563,38.6453334 342.319096,38.9286721 Z M332.117285,38.9286721 C331.338818,38.6453334 330.937438,37.7845699 331.220777,37.006103 L332.745169,32.8178696 C333.028508,32.0394028 333.889271,31.6380222 334.667738,31.9213609 C335.446205,32.2046997 335.847585,33.0654632 335.564247,33.8439301 L334.039854,38.0321634 C333.756516,38.8106303 332.895752,39.2120109 332.117285,38.9286721 Z M324.302245,32.3710745 C323.888031,31.6536356 324.133844,30.73625 324.851283,30.3220364 L328.71118,28.093524 C329.428619,27.6793105 330.346004,27.9251232 330.760218,28.6425621 C331.174431,29.3600011 330.928619,30.2773867 330.21118,30.6916002 L326.351283,32.9201127 C325.633844,33.3343262 324.716458,33.0885135 324.302245,32.3710745 Z M322.530719,22.3242521 C322.674574,21.5084107 323.452561,20.9636579 324.268403,21.1075128 L328.657715,21.881467 C329.473557,22.0253219 330.01831,22.8033095 329.874455,23.6191509 C329.7306,24.4349924 328.952612,24.9797451 328.136771,24.8358903 L323.747458,24.061936 C322.931617,23.9180812 322.386864,23.1400936 322.530719,22.3242521 Z M327.631624,13.4892248 C328.266236,12.9567221 329.21237,13.0394981 329.744872,13.6741101 L332.609793,17.0883892 C333.142295,17.7230012 333.059519,18.6691346 332.424907,19.2016373 C331.790295,19.7341399 330.844162,19.651364 330.311659,19.016752 L327.446739,15.6024729 C326.914236,14.9678609 326.997012,14.0217275 327.631624,13.4892248 Z" id="Rectangle-48-Copy" fill="#FA4B7F"></path>
                <path d="M245.500108,82 C246.074105,94.5989066 244.446521,100.89836 240.617355,100.89836 C240.765574,103.495991 248.439012,106.792182 252.989451,106.643235 C255.765245,103.978921 256.94817,97.0454515 256.538227,85.8428254 L245.500108,82 Z" id="Path-3" fill="#61E7FC" transform="translate(248.617355, 94.324054) rotate(45.000000) translate(-248.617355, -94.324054) "></path>
                <path d="M454.817423,64.1421356 C455.46317,75.3874593 453.632137,81.0101212 449.324326,81.0101212 C449.491073,83.3286715 458.12369,86.2707311 463.242934,86.1377867 C466.365702,83.7597177 467.696493,77.5711559 467.235307,67.5721012 L454.817423,64.1421356 Z" id="Path-3-Copy-3" fill="#FA4B7F" transform="translate(458.324326, 75.142136) scale(-1, 1) rotate(45.000000) translate(-458.324326, -75.142136) "></path>
                <path d="M410.478929,50 C409.834627,56.8445443 411.661564,60.2668164 415.959741,60.2668164 C415.793366,61.6780182 407.180057,63.4687232 402.072263,63.3878056 C398.956479,61.9403774 397.628665,58.1736663 398.08882,52.0876723 L410.478929,50 Z" id="Path-3-Copy-2" fill="#FFCB1E"></path>
                <path d="M264.398296,15.3429728 L269.067575,26.8376007 C256.486868,28.8448049 248.385714,27.8373911 244.764113,23.8153591 C243.598646,16.7077921 239.048308,10.5486749 241.953836,10 C242.792808,15.9962482 250.274295,17.7772392 264.398296,15.3429728 Z" id="Path-3-Copy" fill="#FA4B7F"></path>
                <g id="Group-12-Copy" transform="translate(176.749055, 26.723027) rotate(-60.000000) translate(-176.749055, -26.723027) translate(163.212469, -3.276973)">
                    <mask id="mask-6" fill="white">
                        <use xlink:href="#path-5"></use>
                    </mask>
                    <g id="Clip-11"></g>
                    <path d="M9.76694443,0.548427339 C1.64909519,6.29160699 -3.14127422,17.1939097 2.361834,26.1761888 C4.69994498,29.9919551 8.31634346,32.7559972 11.8355255,35.5023567 C13.6026262,36.8818705 15.3697269,38.2714133 16.981445,39.8219477 C18.6808219,41.4566729 20.5967512,43.4065195 21.183327,45.7171458 C21.3242363,46.2737546 21.3788523,46.8580752 21.1846924,47.401752 C21.1942502,47.3745681 21.2155505,47.3658587 21.2365776,47.3542462 C21.1931579,47.4133645 21.1497382,47.4724827 21.1063185,47.5318649 C21.0593487,47.5812181 20.9935364,47.651421 20.9088816,47.7422097 C20.8777505,47.7720328 20.6112244,48.0082419 20.6052167,48.0164234 C20.3433329,48.2365333 20.0732568,48.447406 19.8023615,48.6569591 C19.2870595,49.0560073 18.7621997,49.4429151 18.2261437,49.8153073 C15.6895035,51.578298 12.977546,53.0939949 10.1457064,54.3655651 C8.54436526,55.0847492 7.01129412,56.5360495 6.4585802,58.1871377 C6.01427903,59.5130756 6.80921492,60.4325755 8.2379695,59.7907203 C13.6468651,57.3618575 19.2783209,54.2182973 23.4253139,50.0100808 C25.5326722,47.8715309 27.368316,45.0417725 27.0335199,41.9781804 C26.7620784,39.4928386 24.9477349,37.2856692 23.2639236,35.4936473 C17.3577493,29.2099579 7.29202037,25.1257842 5.88729683,15.8547757 C5.54703915,13.6103936 5.83431931,11.2678329 6.62707056,9.13904807 C6.97988992,8.1923643 7.49218801,7.27919847 7.88105393,6.74739814 C8.01431698,6.56529282 8.15113006,6.38529886 8.29285858,6.20899979 C8.41328686,6.07624765 8.53671902,5.94666256 8.66342814,5.81945275 C8.69100922,5.79147715 8.80761438,5.68247788 8.9083809,5.58773032 C8.96245074,5.54946181 9.07550587,5.46131228 9.18501095,5.37342667 C9.40101723,5.19950289 9.60282335,5.02557911 9.30762387,5.23434043 C10.6405274,4.29135155 12.3057692,2.85509478 12.4237398,1.13037261 C12.4810866,0.293743806 11.9980081,0 11.3964128,0 C10.8445181,0 10.1929492,0.247029831 9.76694443,0.548427339" id="Fill-10" fill="url(#linearGradient-7)" mask="url(#mask-6)"></path>
                </g>
                <g id="Group-3" transform="translate(320.504824, 93.396901) rotate(32.000000) translate(-320.504824, -93.396901) translate(304.556548, 68.396901)">
                    <mask id="mask-9" fill="white">
                        <use xlink:href="#path-8"></use>
                    </mask>
                    <g id="Clip-2"></g>
                    <path d="M18.231202,0.668863456 C11.6086072,3.02233257 7.38137706,10.4640117 8.12996961,17.2849778 C8.49982759,20.6538615 10.0371217,23.7043637 11.7621394,26.5730738 C13.5594848,29.5623235 15.6024159,32.4097427 17.846221,35.0829037 C18.9725618,36.4252163 20.1505184,37.7239644 21.3774606,38.9765275 C22.4308161,40.052212 23.7744691,41.1187249 24.5168152,42.451211 C24.5411436,42.4947755 24.5674446,42.5593035 24.5950607,42.6375887 C24.3613104,42.6664134 24.1275602,42.6896696 23.8970976,42.7103055 C17.5168008,43.2818857 8.45478711,41.2920005 6.91453409,34.0370266 C6.51245737,32.1404941 3.55162094,34.073385 2.8592468,34.6479132 C1.53959352,35.7419406 -0.34849038,37.8520377 0.0555589174,39.7567591 C1.44063596,46.280962 8.11681911,49.22894 14.1775586,49.8060886 C15.3545289,49.9181117 16.5377456,49.9977071 17.7163597,50 L17.8136735,50 C19.6646072,49.9967245 21.5030479,49.7988824 23.2882291,49.2328706 C26.6278001,48.1738914 29.5768011,45.6818673 31.1252732,42.5429258 C31.6568824,41.4656036 31.8972079,40.4357767 31.8965504,39.4491867 C31.8952353,37.3934634 30.8461537,35.5280484 29.204313,33.8211691 C26.7971129,31.3193184 24.4142412,28.8577568 22.2963522,26.0981218 C18.7766193,21.5130333 13.7603588,14.9030115 15.1582576,8.71225769 C15.1737094,8.64478175 15.4344182,7.8452246 15.526143,7.52848074 C15.6231279,7.50194894 15.7141952,7.47738246 15.754633,7.46788342 C15.9610959,7.41711268 15.9377538,7.4135096 16.2500783,7.35291227 C16.7931942,7.24744017 17.3343375,7.2025654 17.8846862,7.23204518 C20.4204325,7.36666951 23.0600679,8.72994556 24.2031756,11.0660544 C25.0300137,12.7562284 27.2886131,11.2593107 28.2587917,10.4545127 C29.2671067,9.61892471 31.8508524,6.95821077 31.0624795,5.34632191 C29.3354893,1.81595446 25.791428,0.000327553113 22.0928481,0 C20.8004822,0 19.490363,0.221425904 18.231202,0.668863456 M15.5494851,7.40695854 C15.794742,6.82555176 15.7950708,7.16587945 15.5494851,7.40695854 M15.3045569,7.59071583 C15.2950228,7.59661179 15.2858175,7.60218019 15.2769409,7.60742104 C15.2332154,7.61757519 15.2118459,7.62216093 15.2072432,7.62216093 C15.1996816,7.62216093 15.2411057,7.60905881 15.3045569,7.59071583 M15.2598452,7.61724764 C15.1855449,7.65917444 15.138203,7.6762072 15.1270251,7.6762072 C15.1135458,7.6762072 15.1523398,7.65196827 15.2598452,7.61724764 M26.6564025,42.2062012 C26.7214975,42.2186483 26.6817172,42.2360086 26.5945951,42.2553342 C26.6162934,42.2379739 26.6370055,42.2215962 26.6564025,42.2062012" id="Fill-1" fill="url(#linearGradient-10)" mask="url(#mask-9)"></path>
                </g>
            </g>
        </g>
    </g>
</svg>