<?xml version="1.0" encoding="UTF-8"?>
<svg width="80px" height="80px" viewBox="0 0 80 80" version="1.1" xmlns="http://www.w3.org/2000/svg" xmlns:xlink="http://www.w3.org/1999/xlink">
    <!-- Generator: Sketch 51.2 (57519) - http://www.bohemiancoding.com/sketch -->
    <title>弹框-关闭按钮</title>
    <desc>Created with Sketch.</desc>
    <defs></defs>
    <g id="Page-1" stroke="none" stroke-width="1" fill="none" fill-rule="evenodd">
        <g id="足记游戏切图" transform="translate(-2592.000000, -955.000000)">
            <g id="弹框-关闭按钮" transform="translate(2592.000000, 955.000000)">
                <circle id="Oval-26" fill="#FFFFFF" cx="40" cy="40" r="40"></circle>
                <path d="M44.6170094,39.8743687 L54.5165043,49.7738636 C55.6880772,50.9454365 55.6880772,52.8449314 54.5165043,54.0165043 C53.3449314,55.1880772 51.4454365,55.1880772 50.2738636,54.0165043 L40.3743687,44.1170094 L30.4748737,54.0165043 C29.3033009,55.1880772 27.4038059,55.1880772 26.232233,54.0165043 C25.0606602,52.8449314 25.0606602,50.9454365 26.232233,49.7738636 L36.131728,39.8743687 L26.232233,29.9748737 C25.0606602,28.8033009 25.0606602,26.9038059 26.232233,25.732233 C27.4038059,24.5606602 29.3033009,24.5606602 30.4748737,25.732233 L40.3743687,35.631728 L50.2738636,25.732233 C51.4454365,24.5606602 53.3449314,24.5606602 54.5165043,25.732233 C55.6880772,26.9038059 55.6880772,28.8033009 54.5165043,29.9748737 L44.6170094,39.8743687 Z" id="关闭" fill="#FA4B7F"></path>
            </g>
        </g>
    </g>
</svg>