<?xml version="1.0" encoding="UTF-8"?>
<svg width="484px" height="317px" viewBox="0 0 484 317" version="1.1" xmlns="http://www.w3.org/2000/svg" xmlns:xlink="http://www.w3.org/1999/xlink">
    <!-- Generator: Sketch 51.2 (57519) - http://www.bohemiancoding.com/sketch -->
    <title>弹框背景</title>
    <desc>Created with Sketch.</desc>
    <defs>
        <linearGradient x1="56.0857562%" y1="95.9296756%" x2="56.0857562%" y2="-3.83470133%" id="linearGradient-1">
            <stop stop-color="#FFFFFF" stop-opacity="0" offset="0%"></stop>
            <stop stop-color="#FDDAE0" offset="100%"></stop>
        </linearGradient>
    </defs>
    <g id="Page-1" stroke="none" stroke-width="1" fill="none" fill-rule="evenodd">
        <g id="足记游戏切图" transform="translate(-1236.000000, -1740.000000)">
            <g id="弹框背景" transform="translate(1238.000000, 1740.000000)">
                <circle id="Oval-2" stroke="#FFFFFF" stroke-width="4" opacity="0.2" cx="402" cy="118" r="12"></circle>
                <circle id="Oval-2-Copy" stroke="#FFFFFF" stroke-width="4" opacity="0.2" cx="15" cy="235" r="15"></circle>
                <circle id="Oval-2-Copy-2" stroke="#FFFFFF" stroke-width="4" opacity="0.2" cx="439.5" cy="230.5" r="10.5"></circle>
                <g id="Group-9" transform="translate(0.000000, 288.000000)" stroke="#FF846E" stroke-linecap="round" stroke-linejoin="round" stroke-width="4">
                    <path d="M0,3.12965997 C2.21931231,1.04321999 4.58034134,8.40055797e-17 7.08308708,0 C9.58583282,-5.75530653e-17 12.2248038,1.04321999 15,3.12965997 C16.9104095,5.19035541 19.1185677,6.22070312 21.6244747,6.22070312 C24.1303816,6.22070312 26.9222233,5.19035541 30,3.12965997 C32.2872874,1.04321999 34.6819716,8.39832623e-17 37.1840524,0 C39.6861333,-5.75530653e-17 42.2914491,1.04321999 45,3.12965997 C48.1647675,5.19035541 50.9938214,6.22070312 53.4871618,6.22070312 C55.9805022,6.22070312 58.1514483,5.19035541 60,3.12965997" id="Path-28-Copy-2"></path>
                    <path d="M0,13.12966 C2.21931231,11.04322 4.58034134,10 7.08308708,10 C9.58583282,10 12.2248038,11.04322 15,13.12966 C16.9104095,15.1903554 19.1185677,16.2207031 21.6244747,16.2207031 C24.1303816,16.2207031 26.9222233,15.1903554 30,13.12966 C32.2872874,11.04322 34.6819716,10 37.1840524,10 C39.6861333,10 42.2914491,11.04322 45,13.12966 C48.1647675,15.1903554 50.9938214,16.2207031 53.4871618,16.2207031 C55.9805022,16.2207031 58.1514483,15.1903554 60,13.12966" id="Path-28-Copy-3"></path>
                    <path d="M0,23.12966 C2.21931231,21.04322 4.58034134,20 7.08308708,20 C9.58583282,20 12.2248038,21.04322 15,23.12966 C16.9104095,25.1903554 19.1185677,26.2207031 21.6244747,26.2207031 C24.1303816,26.2207031 26.9222233,25.1903554 30,23.12966 C32.2872874,21.04322 34.6819716,20 37.1840524,20 C39.6861333,20 42.2914491,21.04322 45,23.12966 C48.1647675,25.1903554 50.9938214,26.2207031 53.4871618,26.2207031 C55.9805022,26.2207031 58.1514483,25.1903554 60,23.12966" id="Path-28-Copy-6"></path>
                </g>
                <g id="Group-9-Copy" transform="translate(400.000000, 264.000000)" stroke="#FF846E" stroke-linecap="round" stroke-linejoin="round" stroke-width="4">
                    <path d="M0,4.17287996 C2.95908308,1.39095999 6.10712178,1.1200744e-16 9.4441161,0 C12.7811104,-7.67374204e-17 16.2997384,1.39095999 20,4.17287996 C22.5472127,6.92047388 25.4914237,8.29427083 28.8326329,8.29427083 C32.1738421,8.29427083 35.8962978,6.92047388 40,4.17287996 C43.0497166,1.39095999 46.2426287,1.11977683e-16 49.5787365,0 C52.9148443,-7.67374204e-17 56.3885988,1.39095999 60,4.17287996 C64.21969,6.92047388 67.9917619,8.29427083 71.3162157,8.29427083 C74.6406696,8.29427083 77.5352644,6.92047388 80,4.17287996" id="Path-28-Copy-2"></path>
                    <path d="M0,17.5062133 C2.95908308,14.7242933 6.10712178,13.3333333 9.4441161,13.3333333 C12.7811104,13.3333333 16.2997384,14.7242933 20,17.5062133 C22.5472127,20.2538072 25.4914237,21.6276042 28.8326329,21.6276042 C32.1738421,21.6276042 35.8962978,20.2538072 40,17.5062133 C43.0497166,14.7242933 46.2426287,13.3333333 49.5787365,13.3333333 C52.9148443,13.3333333 56.3885988,14.7242933 60,17.5062133 C64.21969,20.2538072 67.9917619,21.6276042 71.3162157,21.6276042 C74.6406696,21.6276042 77.5352644,20.2538072 80,17.5062133" id="Path-28-Copy-3"></path>
                    <path d="M0,30.8395466 C2.95908308,28.0576267 6.10712178,26.6666667 9.4441161,26.6666667 C12.7811104,26.6666667 16.2997384,28.0576267 20,30.8395466 C22.5472127,33.5871405 25.4914237,34.9609375 28.8326329,34.9609375 C32.1738421,34.9609375 35.8962978,33.5871405 40,30.8395466 C43.0497166,28.0576267 46.2426287,26.6666667 49.5787365,26.6666667 C52.9148443,26.6666667 56.3885988,28.0576267 60,30.8395466 C64.21969,33.5871405 67.9917619,34.9609375 71.3162157,34.9609375 C74.6406696,34.9609375 77.5352644,33.5871405 80,30.8395466" id="Path-28-Copy-6"></path>
                </g>
                <path d="M352,1.13686838e-13 C353.995177,4.54871946 355.940541,17.7777566 357.836091,19.6871115 C359.731641,21.5964664 362.786277,23.4038434 367,25.1092426 C362.672195,27.6781542 359.617559,29.8598311 357.836091,31.6542732 C356.054623,33.4487153 354.109259,46.3034526 352,50.2184852 C350.423603,46.4732859 348.660367,33.6185486 346.710294,31.6542732 C344.760221,29.6899978 341.523456,27.5083209 337,25.1092426 C341.617757,23.3637761 344.854522,21.5563991 346.710294,19.6871115 C348.566066,17.817824 350.329302,4.58878679 352,1.13686838e-13 Z" id="Rectangle" fill="#FFCB2B"></path>
                <path d="M35,87 C37.6602365,93.0649593 40.2540548,107.370342 42.7814546,109.916149 C45.3088545,112.461955 49.381703,114.871791 55,117.145657 C49.2295937,120.570872 45.1567452,123.479775 42.7814546,125.872364 C40.406164,128.264954 37.8123458,143.07127 35,148.291314 C32.8981369,143.297715 30.5471565,128.491398 27.9470587,125.872364 C25.346961,123.25333 21.0312747,120.344428 15,117.145657 C21.1570094,114.818368 25.4726957,112.408532 27.9470587,109.916149 C30.4214217,107.423765 32.7724022,93.1183824 35,87 Z" id="Rectangle-Copy" fill="#FFE16B"></path>
                <path d="M55,143 C56.3301183,146.03248 57.6270274,153.185171 58.8907273,154.458074 C60.1544273,155.730978 62.1908515,156.935896 65,158.072828 C62.1147968,159.785436 60.0783726,161.239887 58.8907273,162.436182 C57.703082,163.632477 56.4061729,171.035635 55,173.645657 C53.9490684,171.148857 52.7735782,163.745699 51.4735294,162.436182 C50.1734805,161.126665 48.0156374,159.672214 45,158.072828 C48.0785047,156.909184 50.2363478,155.704266 51.4735294,154.458074 C52.7107109,153.211883 53.8862011,146.059191 55,143 Z" id="Rectangle-Copy-4" fill="#FFFFFF"></path>
                <path d="M400,5 C401.330118,8.03247964 402.627027,10.1851711 403.890727,11.4580744 C405.154427,12.7309776 407.190851,13.9358956 410,15.0728284 C407.114797,16.7854362 405.078373,18.2398874 403.890727,19.4361821 C402.703082,20.6324768 401.406173,22.5356351 400,25.1456568 C398.949068,22.6488573 397.773578,20.745699 396.473529,19.4361821 C395.17348,18.1266652 393.015637,16.672214 390,15.0728284 C393.078505,13.9091841 395.236348,12.7042661 396.473529,11.4580744 C397.710711,10.2118826 398.886201,8.05919119 400,5 Z" id="Rectangle-Copy-2" fill="#FFFFFF"></path>
            </g>
            <polygon id="Path-17-Copy-2" fill="url(#linearGradient-1)" opacity="0.126897321" points="1915.04312 1690 1703 2423 2260 2423 2040.51478 1690"></polygon>
        </g>
    </g>
</svg>