<?xml version="1.0" encoding="UTF-8"?>
<svg width="94px" height="94px" viewBox="0 0 94 94" version="1.1" xmlns="http://www.w3.org/2000/svg" xmlns:xlink="http://www.w3.org/1999/xlink">
    <!-- Generator: Sketch 51.2 (57519) - http://www.bohemiancoding.com/sketch -->
    <title>影视分类</title>
    <desc>Created with Sketch.</desc>
    <defs></defs>
    <g id="Page-1" stroke="none" stroke-width="1" fill="none" fill-rule="evenodd">
        <g id="足记游戏切图" transform="translate(-278.000000, -320.000000)">
            <g id="影视分类" transform="translate(339.500000, 367.000000) scale(-1, 1) translate(-339.500000, -367.000000) translate(278.000000, 320.000000)">
                <g id="Group-11" transform="translate(42.171533, 74.674757) scale(-1, 1) translate(-42.171533, -74.674757) translate(0.671533, 56.174757)" fill="#372257">
                    <rect id="Rectangle-2" x="0" y="33" width="50" height="4" rx="2"></rect>
                </g>
                <g id="Group-9" transform="translate(28.781022, 0.000000)">
                    <ellipse id="Oval-16" fill="#372257" cx="47.1094891" cy="47" rx="46.6131387" ry="46.5"></ellipse>
                    <ellipse id="Oval-16-Copy" stroke="#FFFFFF" stroke-width="3" fill="#FFD127" cx="47.4105839" cy="47.3125" rx="40.4105839" ry="40.3125"></ellipse>
                    <path d="M48,32.6178763 C43.6995513,32.6178763 40.2133488,29.1216956 40.2133488,24.8089382 C40.2133488,20.4961807 43.6995513,17 48,17 C52.3004487,17 55.7866512,20.4961807 55.7866512,24.8089382 C55.7866512,29.1216956 52.3004487,32.6178763 48,32.6178763 Z M62.7898947,43.4095634 C61.460983,39.3195937 63.7087526,34.9236388 67.8104287,33.5909234 C71.9121047,32.2582081 76.314466,34.4934045 77.6433777,38.5833742 C78.9722895,42.673344 76.7245199,47.0692989 72.6228438,48.4020143 C68.5211677,49.7347296 64.1188064,47.4995332 62.7898947,43.4095634 Z M57.1406576,60.87088 C60.6197937,58.3431397 65.4951943,59.1224708 68.0301695,62.6115649 C70.5651447,66.100659 69.7997511,70.978267 66.320615,73.5060074 C62.8414789,76.0337477 57.9660783,75.2544165 55.4311031,71.7653225 C52.8961279,68.2762284 53.6615215,63.3986203 57.1406576,60.87088 Z M38.8593424,60.87088 C42.3384785,63.3986203 43.1038721,68.2762284 40.5688969,71.7653225 C38.0339217,75.2544165 33.1585211,76.0337477 29.679385,73.5060074 C26.2002489,70.978267 25.4348553,66.100659 27.9698305,62.6115649 C30.5048057,59.1224708 35.3802063,58.3431397 38.8593424,60.87088 Z M33.2101053,43.4095634 C31.8811936,47.4995332 27.4788323,49.7347296 23.3771562,48.4020143 C19.2754801,47.0692989 17.0277105,42.673344 18.3566223,38.5833742 C19.685534,34.4934045 24.0878953,32.2582081 28.1895713,33.5909234 C32.2912474,34.9236388 34.539017,39.3195937 33.2101053,43.4095634 Z M47.0739077,53.4346007 C44.3119878,53.4346007 42.0730094,51.1874945 42.0730094,48.4155486 C42.0730094,45.6436026 44.3119878,43.3964964 47.0739077,43.3964964 C49.8358276,43.3964964 52.074806,45.6436026 52.074806,48.4155486 C52.074806,51.1874945 49.8358276,53.4346007 47.0739077,53.4346007 Z" id="Combined-Shape" fill="#372257"></path>
                </g>
            </g>
        </g>
    </g>
</svg>