<?xml version="1.0" encoding="UTF-8"?>
<svg width="45px" height="44px" viewBox="0 0 45 44" version="1.1" xmlns="http://www.w3.org/2000/svg" xmlns:xlink="http://www.w3.org/1999/xlink">
    <!-- Generator: Sketch 51.2 (57519) - http://www.bohemiancoding.com/sketch -->
    <title>礼物</title>
    <desc>Created with Sketch.</desc>
    <defs></defs>
    <g id="Page-1" stroke="none" stroke-width="1" fill="none" fill-rule="evenodd">
        <g id="足记游戏切图" transform="translate(-973.000000, -343.000000)" stroke="#030303" stroke-width="3">
            <g id="礼物" transform="translate(959.000000, 334.000000)">
                <path d="M35,17.5 L21,26 L21,12.5540485 C21,11.449479 21.8954305,10.5540485 23,10.5540485 C23.3660434,10.5540485 23.7250669,10.6545049 24.0379563,10.8444734 L35,17.5 Z" id="Triangle" fill="#FFCF25"></path>
                <path d="M44,10.5 L52.5,24.5 L39.0540485,24.5 C37.949479,24.5 37.0540485,23.6045695 37.0540485,22.5 C37.0540485,22.1339566 37.1545049,21.7749331 37.3444734,21.4620437 L44,10.5 Z" id="Triangle-Copy" fill="#FFCF25" transform="translate(44.000000, 17.500000) scale(-1, 1) rotate(90.000000) translate(-44.000000, -17.500000) "></path>
                <circle id="Oval-2" fill="#FFCF25" cx="37" cy="17" r="4"></circle>
                <rect id="Rectangle-6-Copy" fill="#FA4B7F" x="17.5" y="22.5" width="38" height="29" rx="2"></rect>
                <rect id="Rectangle-6" fill="#FFFFFF" x="15.5" y="18.5" width="42" height="6" rx="2"></rect>
                <rect id="Rectangle-7" fill="#FFFFFF" x="34.5" y="18.5" width="5" height="33"></rect>
            </g>
        </g>
    </g>
</svg>