<?xml version="1.0" encoding="UTF-8"?>
<svg width="42px" height="42px" viewBox="0 0 42 42" version="1.1" xmlns="http://www.w3.org/2000/svg" xmlns:xlink="http://www.w3.org/1999/xlink">
    <!-- Generator: Sketch 51.2 (57519) - http://www.bohemiancoding.com/sketch -->
    <title>第三名</title>
    <desc>Created with Sketch.</desc>
    <defs>
        <linearGradient x1="50%" y1="93.5205078%" x2="50%" y2="0%" id="linearGradient-1">
            <stop stop-color="#FFA56E" offset="0%"></stop>
            <stop stop-color="#EC9752" offset="100%"></stop>
        </linearGradient>
        <circle id="path-2" cx="20" cy="20" r="16"></circle>
        <filter x="-3.1%" y="-3.1%" width="106.2%" height="106.2%" filterUnits="objectBoundingBox" id="filter-3">
            <feOffset dx="1" dy="2" in="SourceAlpha" result="shadowOffsetInner1"></feOffset>
            <feComposite in="shadowOffsetInner1" in2="SourceAlpha" operator="arithmetic" k2="-1" k3="1" result="shadowInnerInner1"></feComposite>
            <feColorMatrix values="0 0 0 0 0.79254358   0 0 0 0 0.378371781   0 0 0 0 0.22393484  0 0 0 1 0" type="matrix" in="shadowInnerInner1"></feColorMatrix>
        </filter>
        <text id="text-4" font-family="Arial-Black, Arial Black" font-size="22" font-weight="700" fill="#FFFFFF">
            <tspan x="12.1630859" y="27">3</tspan>
        </text>
        <filter x="-6.7%" y="-3.2%" width="120.0%" height="112.9%" filterUnits="objectBoundingBox" id="filter-5">
            <feOffset dx="1" dy="2" in="SourceAlpha" result="shadowOffsetOuter1"></feOffset>
            <feColorMatrix values="0 0 0 0 0.792156863   0 0 0 0 0.376470588   0 0 0 0 0.223529412  0 0 0 1 0" type="matrix" in="shadowOffsetOuter1"></feColorMatrix>
        </filter>
    </defs>
    <g id="Page-1" stroke="none" stroke-width="1" fill="none" fill-rule="evenodd">
        <g id="足记游戏切图" transform="translate(-1073.000000, -70.000000)">
            <g id="第三名" transform="translate(1074.000000, 71.000000)">
                <circle id="Oval-20" stroke="#E26C40" stroke-width="1.05263158" fill="url(#linearGradient-1)" cx="20" cy="20" r="20"></circle>
                <g id="Oval-20-Copy">
                    <use fill="#E26C40" fill-rule="evenodd" xlink:href="#path-2"></use>
                    <use fill="black" fill-opacity="1" filter="url(#filter-3)" xlink:href="#path-2"></use>
                </g>
                <path d="M31,4 C31.9310828,5.99899399 31.5788142,8.67814136 32.4634042,9.51723222 C33.3479941,10.3563231 36.033596,9.89049349 38,10.6399534 C35.9803578,11.768895 33.2947559,11.4675564 32.4634042,12.2561473 C31.6320525,13.0447382 31.984321,15.5593947 31,17.2799067 C30.2643479,15.6340301 30.7016097,13.1193737 29.7915755,12.2561473 C28.8815413,11.3929209 26.1109462,11.6942596 24,10.6399534 C26.1549533,9.87288539 28.9255484,10.338715 29.7915755,9.51723222 C30.6576026,8.69574947 30.2203408,6.01660209 31,4 Z" id="Rectangle-Copy-3" fill="#FFFFFF" transform="translate(31.000000, 10.639953) scale(-1, 1) translate(-31.000000, -10.639953) "></path>
                <path d="M11,20 C11.9310828,21.998994 11.5788142,24.6781414 12.4634042,25.5172322 C13.3479941,26.3563231 16.033596,25.8904935 18,26.6399534 C15.9803578,27.768895 13.2947559,27.4675564 12.4634042,28.2561473 C11.6320525,29.0447382 11.984321,31.5593947 11,33.2799067 C10.2643479,31.6340301 10.7016097,29.1193737 9.79157549,28.2561473 C8.88154128,27.3929209 6.11094615,27.6942596 4,26.6399534 C6.1549533,25.8728854 8.92554843,26.338715 9.79157549,25.5172322 C10.6576026,24.6957495 10.2203408,22.0166021 11,20 Z" id="Rectangle-Copy-6" fill-opacity="0.5" fill="#FFFFFF" transform="translate(11.000000, 26.639953) scale(-1, 1) translate(-11.000000, -26.639953) "></path>
                <g id="3" fill="#FFFFFF" fill-opacity="1">
                    <use filter="url(#filter-5)" xlink:href="#text-4"></use>
                    <use xlink:href="#text-4"></use>
                </g>
            </g>
        </g>
    </g>
</svg>