<?xml version="1.0" encoding="UTF-8"?>
<svg width="310px" height="67px" viewBox="0 0 310 67" version="1.1" xmlns="http://www.w3.org/2000/svg" xmlns:xlink="http://www.w3.org/1999/xlink">
    <!-- Generator: Sketch 51.2 (57519) - http://www.bohemiancoding.com/sketch -->
    <title>获得奖励-星星</title>
    <desc>Created with Sketch.</desc>
    <defs></defs>
    <g id="Page-1" stroke="none" stroke-width="1" fill="none" fill-rule="evenodd">
        <g id="足记游戏切图" transform="translate(-2082.000000, -331.000000)">
            <g id="获得奖励-星星" transform="translate(2082.000000, 331.000000)">
                <path d="M269.77199,39 C271.07178,41.7905927 272.339118,43.7715739 273.574005,44.9429436 C274.808891,46.1143132 276.798883,47.2231205 279.54398,48.2693654 C276.724562,49.8453663 274.734571,51.1838027 273.574005,52.2846745 C272.413439,53.3855463 271.146101,55.1368984 269.77199,57.5387307 C268.745021,55.2410894 267.596333,53.4897373 266.325926,52.2846745 C265.05552,51.0796117 262.946878,49.7411753 260,48.2693654 C263.008312,47.1985396 265.116954,46.0897323 266.325926,44.9429436 C267.534899,43.7961548 268.683587,41.8151736 269.77199,39 Z" id="Rectangle" fill="#FFCB2B"></path>
                <path d="M295.680786,8 C297.500492,11.9068298 299.274766,14.6802035 301.003607,16.320121 C302.732448,17.9600385 305.518436,19.5123687 309.361572,20.9771115 C305.414387,23.1835128 302.628399,25.0573238 301.003607,26.5985443 C299.378815,28.1397648 297.604541,30.5916577 295.680786,33.954223 C294.243029,30.7375251 292.634866,28.2856322 290.856297,26.5985443 C289.077728,24.9114564 286.125629,23.0376454 282,20.9771115 C286.211636,19.4779554 289.163735,17.9256252 290.856297,16.320121 C292.548858,14.7146167 294.157021,11.9412431 295.680786,8 Z" id="Rectangle-Copy" fill="#FFFFFF"></path>
                <path d="M9.77198996,39 C11.0717802,41.7905927 12.3391185,43.7715739 13.5740048,44.9429436 C14.8088911,46.1143132 16.7988828,47.2231205 19.5439799,48.2693654 C16.7245623,49.8453663 14.7345706,51.1838027 13.5740048,52.2846745 C12.413439,53.3855463 11.1461007,55.1368984 9.77198996,57.5387307 C8.7450207,55.2410894 7.59633284,53.4897373 6.32592638,52.2846745 C5.05551993,51.0796117 2.9468778,49.7411753 0,48.2693654 C3.00831172,47.1985396 5.11695385,46.0897323 6.32592638,44.9429436 C7.53489892,43.7961548 8.68358678,41.8151736 9.77198996,39 Z" id="Rectangle-Copy-3" fill="#FFCB2B" transform="translate(9.771990, 48.269365) scale(-1, 1) translate(-9.771990, -48.269365) "></path>
                <path d="M67.77199,48 C69.0717802,50.7905927 70.3391185,52.7715739 71.5740048,53.9429436 C72.8088911,55.1143132 74.7988828,56.2231205 77.5439799,57.2693654 C74.7245623,58.8453663 72.7345706,60.1838027 71.5740048,61.2846745 C70.413439,62.3855463 69.1461007,64.1368984 67.77199,66.5387307 C66.7450207,64.2410894 65.5963328,62.4897373 64.3259264,61.2846745 C63.0555199,60.0796117 60.9468778,58.7411753 58,57.2693654 C61.0083117,56.1985396 63.1169539,55.0897323 64.3259264,53.9429436 C65.5348989,52.7961548 66.6835868,50.8151736 67.77199,48 Z" id="Rectangle-Copy-4" fill="#FFCB2B" transform="translate(67.771990, 57.269365) scale(-1, 1) translate(-67.771990, -57.269365) "></path>
                <path d="M46,0 C48.9262602,6.28255253 51.7794602,10.7424001 54.5596001,13.3795429 C57.33974,16.0166856 61.8198733,18.5129796 68,20.8684248 C61.652553,24.4165272 57.1724197,27.4297927 54.5596001,29.9082214 C51.9467804,32.38665 49.0935804,36.3295261 46,41.7368496 C43.6879506,36.5640947 41.1018721,32.6212186 38.2417646,29.9082214 C35.381657,27.1952241 30.6344022,24.1819586 24,20.8684248 C30.7727104,18.4576398 35.5199652,15.9613458 38.2417646,13.3795429 C40.9635639,10.7977399 43.5496424,6.3378923 46,0 Z" id="Rectangle-Copy-2" fill="#FFFFFF" transform="translate(46.000000, 20.868425) scale(-1, 1) translate(-46.000000, -20.868425) "></path>
                <path d="M296,48 C296.931083,49.998994 297.838919,51.4180364 298.723509,52.2571273 C299.608099,53.0962181 301.033596,53.8904935 303,54.6399534 C300.980358,55.768895 299.554861,56.7276613 298.723509,57.5162523 C297.892157,58.3048432 296.984321,59.5593947 296,61.2799067 C295.264348,59.6340301 294.441505,58.3794786 293.531471,57.5162523 C292.621436,56.6530259 291.110946,55.6942596 289,54.6399534 C291.154953,53.8728854 292.665443,53.07861 293.531471,52.2571273 C294.397498,51.4356445 295.220341,50.0166021 296,48 Z" id="Rectangle-Copy-5" fill="#FFFFFF" transform="translate(296.000000, 54.639953) scale(-1, 1) translate(-296.000000, -54.639953) "></path>
            </g>
        </g>
    </g>
</svg>