<?xml version="1.0" encoding="UTF-8"?>
<svg width="298px" height="57px" viewBox="0 0 298 57" version="1.1" xmlns="http://www.w3.org/2000/svg" xmlns:xlink="http://www.w3.org/1999/xlink">
    <!-- Generator: Sketch 51.2 (57519) - http://www.bohemiancoding.com/sketch -->
    <title>获得奖励</title>
    <desc>Created with Sketch.</desc>
    <defs></defs>
    <g id="Page-1" stroke="none" stroke-width="1" fill="none" fill-rule="evenodd">
        <g id="足记游戏切图" transform="translate(-846.000000, -532.000000)">
            <g id="获得奖励" transform="translate(846.000000, 532.000000)">
                <path d="M4.00037124,9 L55.3106232,9 C57.5197622,9 59.3106232,10.790861 59.3106232,13 L59.3106235,53.0000045 C59.3106235,55.2091435 57.5197625,57.0000045 55.3106235,57.0000045 C55.3106234,57.0000045 55.3106233,57.0000045 55.3106232,57.0000045 L4.00037195,57.0000047 C1.79123066,57.0000046 0.000367926097,55.2091416 0.000368082118,53.0000003 C0.000368139464,52.1880207 0.247482606,51.395269 0.708867101,50.7271109 C6.04503351,42.9994945 8.71311671,37.0904575 8.71311671,33 C8.71311671,28.9095431 6.04503429,23.0005072 0.708869441,15.2728924 L0.708865073,15.2728955 C-0.546417493,13.4550468 -0.0903675676,10.9637817 1.72748109,9.70849914 C2.39563937,9.24711451 3.1883914,9 4.00037124,9 Z" id="Rectangle-52-Copy" fill="#FFC700"></path>
                <path d="M59,46.5234964 L59,53.9976757 C59,55.1022452 58.1045695,55.9976757 57,55.9976757 C56.7354668,55.9976757 56.4735616,55.9451973 56.2294498,55.8432792 L31.2636719,45.4199219 L54.5105022,42.5535604 C56.7030373,42.2832182 58.6995939,43.8414635 58.969936,46.0339986 C58.9899598,46.196396 59,46.3598691 59,46.5234964 Z" id="Rectangle-53" fill="#FFAA0E"></path>
                <path d="M242.000371,9 L293.310623,9 C295.519762,9 297.310623,10.790861 297.310623,13 L297.310624,53.0000045 C297.310624,55.2091435 295.519763,57.0000045 293.310624,57.0000045 C293.310623,57.0000045 293.310623,57.0000045 293.310623,57.0000045 L242.000372,57.0000047 C239.791231,57.0000046 238.000368,55.2091416 238.000368,53.0000003 C238.000368,52.1880207 238.247483,51.395269 238.708867,50.7271109 C244.045034,42.9994945 246.713117,37.0904575 246.713117,33 C246.713117,28.9095431 244.045034,23.0005072 238.708869,15.2728924 L238.708865,15.2728955 C237.453583,13.4550468 237.909632,10.9637817 239.727481,9.70849914 C240.395639,9.24711451 241.188391,9 242.000371,9 Z" id="Rectangle-52-Copy-2" fill="#FFC700" transform="translate(267.655312, 33.000002) scale(-1, 1) translate(-267.655312, -33.000002) "></path>
                <path d="M266,46.5234964 L266,53.9976757 C266,55.1022452 265.104569,55.9976757 264,55.9976757 C263.735467,55.9976757 263.473562,55.9451973 263.22945,55.8432792 L238.263672,45.4199219 L261.510502,42.5535604 C263.703037,42.2832182 265.699594,43.8414635 265.969936,46.0339986 C265.98996,46.196396 266,46.3598691 266,46.5234964 Z" id="Rectangle-53-Copy" fill="#FFAA0E" transform="translate(252.131836, 49.260380) scale(-1, 1) translate(-252.131836, -49.260380) "></path>
                <path d="M34.0022482,2.22044605e-15 L262.892571,-4.4408921e-15 C265.10171,1.08501723e-14 266.892571,1.790861 266.892571,4 C266.892571,4.64828003 266.735005,5.28684632 266.433438,5.8607147 L256.901301,24 L266.433438,42.1392853 C267.461083,44.0948523 266.708853,46.5132229 264.753286,47.5408672 C264.179418,47.8424333 263.540851,48 262.892571,48 L34.002242,47.9999979 C31.7931042,47.9999979 30.0022441,46.2091378 30.0022441,44 C30.0022441,43.1880216 30.2493582,42.3952709 30.7107421,41.7271138 C36.0469098,33.999496 38.7149937,28.090458 38.7149937,24 C38.7149937,19.9095431 36.0469113,14.0005072 30.7107464,6.27289244 L30.7107421,6.27289546 C29.4554595,4.4550468 29.9115094,1.96378171 31.7293581,0.708499142 C32.3975164,0.247114511 33.1902684,2.81369354e-15 34.0022482,2.66453526e-15 Z" id="Rectangle-52" fill="#FFCF25"></path>
            </g>
        </g>
    </g>
</svg>